<svg version="1.1" xmlns="http://www.w3.org/2000/svg" viewBox="-2676.140261195757 -2732.5838100001056 5305.743882444383 5729.62568604787" fill="none" stroke="black" stroke-width="0.6%" vector-effect="non-scaling-stroke">
    <path d="M -1857.70295 658.35536 A 295.275 98.92048 261.04635 0 1 -1905.61328 720.52163 A 295.275 98.92048 261.04635 0 1 -2045.43413 466.76672" />
    <path d="M -2077.12292 434.42679 A 295.275 98.92048 261.04635 0 1 -2125.03325 496.59307 A 295.275 98.92048 261.04635 0 1 -2264.8541 242.83816" />
    <path d="M -2316.06355 190.57647 L 359.10476 2920.71353 L 2628.60362 2563.14188" />
    <path d="M 460.51674 1333.23181 L 172.70254 1378.57847" />
    <path d="M 906.37813 1788.25465 L 618.56393 1833.60131" />
    <path d="M 1352.23951 2243.27749 L 1064.42531 2288.62415" />
    <path d="M -2316.06355 -171.27614 L -2316.06355 190.57647" />
    <path d="M -2675.14026 -2638.50913 L -2316.06355 -171.27614 L -978.47939 1193.79239 L -978.47939 1189.21198" />
    <path d="M -2675.14026 -2730.11739 L -2675.14026 -2638.50913 L -1337.55611 -1273.4406 L -978.47939 1193.79239" />
    <path d="M -2665.83293 -2731.58381 L -2675.14026 -2730.11739 L -1337.55611 -1365.04886 L -1337.55611 -1273.4406" />
    <path d="M -419.58943 -2518.57367 L -2665.83293 -2731.58381 L -1328.24878 -1366.51528 L -1337.55611 -1365.04886" />
    <path d="M -129.91131 -2384.23921 A 600 511.57685 315.58264 0 0 -419.58943 -2518.57367 L 917.99473 -1153.50514 L -1328.24878 -1366.51528" />
    <path d="M 359.10476 2554.28051 L 359.10476 2920.71353" />
    <path d="M 359.10476 2554.28051 L -978.47939 1189.21198" />
    <path d="M 2628.60362 2196.70885 L 2628.60362 2563.14188" />
    <path d="M 359.10476 2554.28051 L 2628.60362 2196.70885" />
    <path d="M 1291.01947 831.64032 L 2628.60362 2196.70885" />
    <path d="M -526.96768 1639.03626 L 1723.91652 1284.39744 L 1285.36914 836.83889 L 1285.36914 937.24314" />
    <path d="M -965.51506 1191.4777 L -526.96768 1639.03626" />
    <path d="M 1285.36914 836.83889 L -965.51506 1191.4777" />
    <path d="M -81.10629 2094.0591 L 2169.77791 1739.42029 L 1731.23052 1291.86173 L 1731.23052 1392.26599" />
    <path d="M -519.65368 1646.50054 L -81.10629 2094.0591" />
    <path d="M 1731.23052 1291.86173 L -519.65368 1646.50054" />
    <path d="M 364.75509 2549.08195 L 2615.63929 2194.44313 L 2177.09191 1746.88457 L 2177.09191 1847.28883" />
    <path d="M -73.79229 2101.52339 L 364.75509 2549.08195" />
    <path d="M 2177.09191 1746.88457 L -73.79229 2101.52339" />
    <path d="M 1291.01947 831.64032 L -978.47939 1189.21198" />
    <path d="M 1333.15264 -755.42356 A 600 511.57685 315.58264 0 0 1207.67285 -1019.17068 A 600 511.57685 315.58264 0 0 917.99473 -1153.50514" />
    <path d="M 1337.55611 -687.22799 L 1333.15264 -755.42356" />
    <path d="M 1291.15515 831.7788 L 1337.55611 -687.22799" />
    <path d="M -1411.84156 1113.3782 A 295.275 98.92048 261.04635 0 1 -1459.75189 1175.54447 A 295.275 98.92048 261.04635 0 1 -1599.57274 921.78957" />
    <path d="M -1631.26154 889.44964 A 295.275 98.92048 261.04635 0 1 -1679.17187 951.61591 A 295.275 98.92048 261.04635 0 1 -1818.99271 697.861" />
    <path d="M -965.98018 1568.40105 A 295.275 98.92048 261.04635 0 1 -1013.89051 1630.56732 A 295.275 98.92048 261.04635 0 1 -1153.71136 1376.81241" />
    <path d="M -1185.40015 1344.47248 A 295.275 98.92048 261.04635 0 1 -1233.31048 1406.63875 A 295.275 98.92048 261.04635 0 1 -1373.13133 1152.88385" />
    <path d="M 433.06098 1337.55761 A 295.275 98.92048 261.04635 0 1 382.20869 1410.60444 A 295.275 98.92048 261.04635 0 1 311.35964 1356.7323" />
    <path d="M 1372.38584 951.95436 A 295.275 98.92048 81.04635 0 0 1326.43058 930.77369 L 516.73958 1058.34483 A 295.275 98.92048 261.04635 0 1 562.69484 1079.5255 A 295.275 98.92048 261.04635 0 1 670.60603 1450.35213" />
    <path d="M 1462.98971 1167.75743 A 295.275 98.92048 81.04635 0 0 1372.38584 951.95436" />
    <path d="M 490.86076 1478.67196 A 295.275 98.92048 261.04635 0 1 516.73958 1058.34483" />
    <path d="M 1591.80581 1175.88292 A 295.275 98.92048 81.04635 0 0 1545.85056 1154.70226 L 736.15956 1282.2734 A 295.275 98.92048 261.04635 0 1 782.11482 1303.45406 A 295.275 98.92048 261.04635 0 1 846.54377 1422.6322" />
    <path d="M 1656.23477 1295.06107 A 295.275 98.92048 81.04635 0 0 1591.80581 1175.88292" />
    <path d="M 878.92236 1792.58045 A 295.275 98.92048 261.04635 0 1 828.07007 1865.62728 A 295.275 98.92048 261.04635 0 1 757.22102 1811.75515" />
    <path d="M 674.28012 1449.77326 A 295.275 98.92048 261.04635 0 1 736.15956 1282.2734" />
    <path d="M 195.70662 1395.8458 A 295.275 98.92048 81.04635 0 0 149.75136 1374.66514 L -659.93964 1502.23627 A 295.275 98.92048 261.04635 0 1 -613.98438 1523.41694 A 295.275 98.92048 261.04635 0 1 -567.1103 1598.0688" />
    <path d="M 260.13557 1515.02394 A 295.275 98.92048 81.04635 0 0 195.70662 1395.8458" />
    <path d="M -520.11879 2023.42389 A 295.275 98.92048 261.04635 0 1 -568.02912 2085.59016 A 295.275 98.92048 261.04635 0 1 -707.84997 1831.83525" />
    <path d="M -660.85847 1502.39431 A 295.275 98.92048 261.04635 0 1 -659.93964 1502.23627" />
    <path d="M -23.71336 1171.91724 A 295.275 98.92048 81.04635 0 0 -69.66862 1150.73657 L -879.35961 1278.30771 A 295.275 98.92048 261.04635 0 1 -833.40436 1299.48838 A 295.275 98.92048 261.04635 0 1 -786.53027 1374.14023" />
    <path d="M 66.89051 1387.7203 A 295.275 98.92048 81.04635 0 0 -23.71336 1171.91724" />
    <path d="M -739.53877 1799.49532 A 295.275 98.92048 261.04635 0 1 -787.4491 1861.6616 A 295.275 98.92048 261.04635 0 1 -927.26994 1607.90669" />
    <path d="M -880.27844 1278.46575 A 295.275 98.92048 261.04635 0 1 -879.35961 1278.30771" />
    <path d="M 1818.24723 1406.9772 A 295.275 98.92048 81.04635 0 0 1772.29197 1385.79654 L 962.60097 1513.36767 A 295.275 98.92048 261.04635 0 1 1008.55623 1534.54834 A 295.275 98.92048 261.04635 0 1 1116.46742 1905.37497" />
    <path d="M 1908.85109 1622.78027 A 295.275 98.92048 81.04635 0 0 1818.24723 1406.9772" />
    <path d="M 936.72214 1933.6948 A 295.275 98.92048 261.04635 0 1 962.60097 1513.36767" />
    <path d="M 2037.6672 1630.90577 A 295.275 98.92048 81.04635 0 0 1991.71194 1609.7251 L 1182.02094 1737.29624 A 295.275 98.92048 261.04635 0 1 1227.9762 1758.47691 A 295.275 98.92048 261.04635 0 1 1292.40516 1877.65505" />
    <path d="M 2102.09615 1750.08391 A 295.275 98.92048 81.04635 0 0 2037.6672 1630.90577" />
    <path d="M 1324.78375 2247.60329 A 295.275 98.92048 261.04635 0 1 1273.93146 2320.65013 A 295.275 98.92048 261.04635 0 1 1203.08241 2266.77799" />
    <path d="M 1120.1415 1904.7961 A 295.275 98.92048 261.04635 0 1 1182.02094 1737.29624" />
    <path d="M 641.568 1850.86865 A 295.275 98.92048 81.04635 0 0 595.61274 1829.68798 L -214.07826 1957.25912 A 295.275 98.92048 261.04635 0 1 -168.123 1978.43978 A 295.275 98.92048 261.04635 0 1 -121.24891 2053.09164" />
    <path d="M 705.99696 1970.04679 A 295.275 98.92048 81.04635 0 0 641.568 1850.86865" />
    <path d="M -74.25741 2478.44673 A 295.275 98.92048 261.04635 0 1 -122.16774 2540.613 A 295.275 98.92048 261.04635 0 1 -261.98859 2286.8581" />
    <path d="M -214.99708 1957.41716 A 295.275 98.92048 261.04635 0 1 -214.07826 1957.25912" />
    <path d="M 422.14803 1626.94008 A 295.275 98.92048 81.04635 0 0 376.19277 1605.75941 L -433.49823 1733.33055 A 295.275 98.92048 261.04635 0 1 -387.54297 1754.51122 A 295.275 98.92048 261.04635 0 1 -340.66889 1829.16308" />
    <path d="M 512.75189 1842.74315 A 295.275 98.92048 81.04635 0 0 422.14803 1626.94008" />
    <path d="M -293.67738 2254.51817 A 295.275 98.92048 261.04635 0 1 -341.58771 2316.68444 A 295.275 98.92048 261.04635 0 1 -481.40856 2062.92953" />
    <path d="M -434.41706 1733.48859 A 295.275 98.92048 261.04635 0 1 -433.49823 1733.33055" />
    <path d="M 2264.10861 1862.00005 A 295.275 98.92048 81.04635 0 0 2218.15335 1840.81938 L 1408.46235 1968.39052 A 295.275 98.92048 261.04635 0 1 1454.41761 1989.57118 A 295.275 98.92048 261.04635 0 1 1562.3288 2360.39782" />
    <path d="M 2354.71248 2077.80311 A 295.275 98.92048 81.04635 0 0 2264.10861 1862.00005" />
    <path d="M 1382.58353 2388.71764 A 295.275 98.92048 261.04635 0 1 1408.46235 1968.39052" />
    <path d="M 2483.52858 2085.92861 A 295.275 98.92048 81.04635 0 0 2437.57333 2064.74794 L 1627.88233 2192.31908 A 295.275 98.92048 261.04635 0 1 1673.83759 2213.49975 A 295.275 98.92048 261.04635 0 1 1738.26654 2332.67789" />
    <path d="M 2529.48384 2648.10183 A 295.275 98.92048 81.04635 0 0 2581.40247 2570.57867" />
    <path d="M 2547.95754 2205.10675 A 295.275 98.92048 81.04635 0 0 2483.52858 2085.92861" />
    <path d="M 1771.71147 2698.14981 A 295.275 98.92048 261.04635 0 1 1719.79284 2775.67297 A 295.275 98.92048 261.04635 0 1 1646.55275 2717.86923" />
    <path d="M 1566.00289 2359.81895 A 295.275 98.92048 261.04635 0 1 1627.88233 2192.31908" />
    <path d="M 1087.42939 2305.89149 A 295.275 98.92048 81.04635 0 0 1041.47413 2284.71082 L 231.78313 2412.28196 A 295.275 98.92048 261.04635 0 1 277.73839 2433.46263 A 295.275 98.92048 261.04635 0 1 324.61247 2508.11448" />
    <path d="M 1133.38464 2868.06471 A 295.275 98.92048 81.04635 0 0 1185.30327 2790.54155" />
    <path d="M 1151.85834 2425.06963 A 295.275 98.92048 81.04635 0 0 1087.42939 2305.89149" />
    <path d="M 375.61227 2918.11269 A 295.275 98.92048 261.04635 0 1 323.69365 2995.63585 A 295.275 98.92048 261.04635 0 1 183.8728 2741.88094" />
    <path d="M 230.8643 2412.44 A 295.275 98.92048 261.04635 0 1 231.78313 2412.28196" />
    <path d="M 868.00941 2081.96292 A 295.275 98.92048 81.04635 0 0 822.05415 2060.78226 L 12.36316 2188.35339 A 295.275 98.92048 261.04635 0 1 58.31841 2209.53406 A 295.275 98.92048 261.04635 0 1 105.1925 2284.18592" />
    <path d="M 958.61328 2297.76599 A 295.275 98.92048 81.04635 0 0 868.00941 2081.96292" />
    <path d="M 152.184 2709.54101 A 295.275 98.92048 261.04635 0 1 104.27367 2771.70728 A 295.275 98.92048 261.04635 0 1 -35.54717 2517.95237" />
    <path d="M 11.44433 2188.51143 A 295.275 98.92048 261.04635 0 1 12.36316 2188.35339" />
    <path d="M -1817.33341 706.61267 L -1905.61328 720.52163" />
    <path d="M -2042.1724 483.5379 L -2125.03325 496.59307" />
    <path d="M 1207.67285 -1019.17068 L -129.91131 -2384.23921" />
    <path d="M -1371.47203 1161.63551 L -1459.75189 1175.54447" />
    <path d="M -1596.31102 938.56074 L -1679.17187 951.61591" />
    <path d="M -925.61064 1616.65835 L -1013.89051 1630.56732" />
    <path d="M -1150.44963 1393.58358 L -1233.31048 1406.63875" />
    <path d="M 470.48856 1396.69548 L 382.20869 1410.60444" />
    <path d="M 916.34994 1851.71832 L 828.07007 1865.62728" />
    <path d="M -479.74926 2071.6812 L -568.02912 2085.59016" />
    <path d="M -704.58825 1848.60643 L -787.4491 1861.6616" />
    <path d="M 1362.21133 2306.74116 L 1273.93146 2320.65013" />
    <path d="M -33.88787 2526.70404 L -122.16774 2540.613" />
    <path d="M -258.72686 2303.62927 L -341.58771 2316.68444" />
    <path d="M 2529.48384 2648.10183 L 1719.79284 2775.67297" />
    <path d="M 1133.38464 2868.06471 L 323.69365 2995.63585" />
    <path d="M 187.13452 2758.65211 L 104.27367 2771.70728" />
</svg>