<svg version="1.1" xmlns="http://www.w3.org/2000/svg" viewBox="-2636.822218263438 -2945.3491072145516 4913.581702493833 5796.70959738228" fill="none" stroke="black" stroke-width="0.6%" vector-effect="non-scaling-stroke">
    <path d="M -1819.66403 474.73505 L -1946.17391 492.96118" />
    <path d="M -1819.66403 465.46239 L -1819.66403 474.73505" />
    <path d="M -1772.9996 -1168.61369 L -1819.66403 465.46239" />
    <path d="M -1770.42386 -1209.66085 L -1772.9996 -1168.61369" />
    <path d="M -1487.28882 -1531.75994 A 350 302.89262 314.21544 0 0 -1770.42386 -1209.66085" />
    <path d="M 526.81012 -2125.8495 L -1487.28882 -1531.75994" />
    <path d="M 536.14301 -2127.19408 L 526.81012 -2125.8495" />
    <path d="M 536.14301 -2034.4674 L 536.14301 -2127.19408" />
    <path d="M 176.08027 187.21065 L 410.42703 -1258.76804" />
    <path d="M 436.23299 -1417.99732 L 536.14301 -2034.4674 L 516.75013 -2053.33632 L 516.75013 -2122.88215" />
    <path d="M 186.32217 185.73511 L 176.08027 187.21065 L 156.6874 168.34173 L 386.84897 -1251.81332" />
    <path d="M 676.13629 -2193.72608 L 563.33846 -1454.16186" />
    <path d="M 539.3365 -1296.79187 L 357.0007 -101.29874" />
    <path d="M 676.13629 -2286.45275 L 676.13629 -2193.72608" />
    <path d="M 666.80341 -2285.10818 L 676.13629 -2286.45275 L 656.74342 -2305.32168" />
    <path d="M -1504.83463 -1667.22539 L 666.80341 -2285.10818 L 647.41053 -2303.9771 L 656.74342 -2305.32168" />
    <path d="M -1909.31325 -1207.08382 A 500 432.70375 134.21544 0 1 -1504.83463 -1667.22539 L -1524.22751 -1686.09431 L 647.41053 -2303.9771" />
    <path d="M -1912.99288 -1148.44503 L -1909.31325 -1207.08382 L -1928.70613 -1225.95274 A 500 432.70375 134.21544 0 1 -1524.22751 -1686.09431" />
    <path d="M -1959.65731 485.63105 L -1912.99288 -1148.44503 L -1932.38576 -1167.31395 L -1928.70613 -1225.95274" />
    <path d="M -1959.65731 490.26738 L -1959.65731 485.63105 L -1979.05019 466.76213 L -1932.38576 -1167.31395" />
    <path d="M -1950.32443 488.9228 L -1959.65731 490.26738" />
    <path d="M -2176.28733 269.06494 L -1978.88934 461.12965" />
    <path d="M -1950.32443 488.9228 L -1745.62186 688.09474 L -1308.55183 625.1266" />
    <path d="M 412.69676 -1411.3007 L 516.75013 -2053.33632" />
    <path d="M -1979.05019 471.39846 L -1979.05019 466.76213" />
    <path d="M 80.77777 -56.10763 L 80.77777 39.30105" />
    <path d="M 177.76897 38.26307 L 80.77777 -56.10763 L -1134.74963 119.01189" />
    <path d="M -1322.27816 1110.42589 L -1959.65731 490.26738" />
    <path d="M -1738.43931 695.08323 L -1322.11731 1100.15708" />
    <path d="M 186.32217 417.78523 L -1148.77455 610.13096" />
    <path d="M -1308.7819 633.18302 L -1738.43931 695.08323" />
    <path d="M 834.54101 677.29051 L 651.06106 498.7678" />
    <path d="M 836.00047 668.28523 L 651.06106 488.3425" />
    <path d="M -1148.54449 602.07454 L 186.32217 409.76196" />
    <path d="M 1027.52272 837.02668 L 1027.52272 832.49353 L 977.35264 783.67894 L 651.06106 830.68736" />
    <path d="M 179.22844 29.2578 L -340.69847 -476.62178 L -350.03136 -475.2772" />
    <path d="M 2275.75948 2069.14498 L 2275.75948 2440.05169" />
    <path d="M 2275.75948 2069.14498 L 2274.77188 2068.18407 L 2274.77188 2046.04464 L 2224.6018 1997.23005 L -51.12908 2325.09178 L -51.12908 2347.2312 L -55.18721 2343.2827 L -51.12908 2342.69805" />
    <path d="M 2220.54366 1997.8147 L 2220.54366 1993.28155 L 2170.37357 1944.46696 L -105.3573 2272.32868 L -105.3573 2294.46811 L -109.41544 2290.51961 L -105.3573 2289.93496" />
    <path d="M 2166.31543 1945.05161 L 2166.31543 1940.51846 L 2116.14535 1891.70387 L -159.58552 2219.56559 L -159.58552 2241.70501 L -163.64366 2237.75652 L -159.58552 2237.17187" />
    <path d="M 2112.08721 1892.28852 L 2112.08721 1887.75537 L 2061.91712 1838.94077 L -213.81375 2166.8025 L -213.81375 2188.94192 L -217.87189 2184.99343 L -213.81375 2184.40877" />
    <path d="M 2057.85899 1839.52542 L 2057.85899 1834.99228 L 2007.6889 1786.17768 L -268.04197 2114.03941 L -268.04197 2136.17883 L -272.10011 2132.23033 L -268.04197 2131.64568" />
    <path d="M 2003.63076 1786.76233 L 2003.63076 1782.22919 L 1953.46068 1733.41459 L -322.2702 2061.27632 L -322.2702 2083.41574 L -326.32834 2079.46724 L -322.2702 2078.88259" />
    <path d="M 1949.40254 1733.99924 L 1949.40254 1729.46609 L 1899.23245 1680.6515 L -376.49842 2008.51323 L -376.49842 2030.65265 L -380.55656 2026.70415 L -376.49842 2026.1195" />
    <path d="M 1895.17431 1681.23615 L 1895.17431 1676.703 L 1845.00423 1627.88841 L -430.72665 1955.75013 L -430.72665 1977.88956 L -434.78478 1973.94106 L -434.78478 1951.80164 L -484.95487 1902.98704 L -484.95487 1925.12646 L -489.01301 1921.17797 L -484.95487 1920.59332" />
    <path d="M 1840.94609 1628.47306 L 1840.94609 1623.93991 L 1790.776 1575.12531 L -484.95487 1902.98704" />
    <path d="M 1786.71786 1575.70997 L 1786.71786 1571.17682 L 1736.54778 1522.36222 L -539.18309 1850.22395 L -539.18309 1872.36337 L -543.24123 1868.41488 L -539.18309 1867.83022" />
    <path d="M 1732.48964 1522.94687 L 1732.48964 1518.41373 L 1682.31955 1469.59913 L 598.26935 1625.7769" />
    <path d="M 1678.26142 1470.18378 L 1678.26142 1465.65064 L 1628.09133 1416.83604 L 598.26935 1565.20122" />
    <path d="M 1624.03319 1417.42069 L 1624.03319 1412.88754 L 1573.86311 1364.07295 L 598.26935 1504.62553" />
    <path d="M 1569.80497 1364.6576 L 1569.80497 1360.12445 L 1519.63488 1311.30986 L 598.26935 1444.04985" />
    <path d="M 1515.57674 1311.89451 L 1515.57674 1307.36136 L 1465.40666 1258.54676 L 598.26935 1383.47416" />
    <path d="M 1461.34852 1259.13142 L 1461.34852 1254.59827 L 1411.17843 1205.78367 L 598.26935 1322.89848" />
    <path d="M 1407.12029 1206.36832 L 1407.12029 1201.83518 L 1356.95021 1153.02058 L 598.26935 1262.32279" />
    <path d="M 1352.89207 1153.60523 L 1352.89207 1149.07209 L 1302.72198 1100.25749 L 598.26935 1201.74711" />
    <path d="M 1298.66385 1100.84214 L 1298.66385 1096.30899 L 1248.49376 1047.4944 L 598.26935 1141.17142" />
    <path d="M 1244.43562 1048.07905 L 1244.43562 1043.5459 L 1194.26554 994.73131 L 598.26935 1080.59574" />
    <path d="M 1190.2074 995.31596 L 1190.2074 990.78281 L 1140.03731 941.96821 L 651.06106 1012.41442" />
    <path d="M 1135.97917 942.55287 L 1135.97917 938.01972 L 1085.80909 889.20512 L 651.06106 951.83873" />
    <path d="M 1081.75095 889.78977 L 1081.75095 885.25663 L 1031.58086 836.44203 L 651.06106 891.26305" />
    <path d="M -1322.27816 1110.42589 L -1322.27816 1105.78956 L -1275.61373 -528.28652 L -1271.9341 -586.92531 A 500 432.70375 134.21544 0 1 -867.45548 -1047.06687 L 1304.18256 -1664.94967 L 1313.51545 -1666.29424" />
    <path d="M -1302.88528 1124.65848 L -1322.27816 1105.78956" />
    <path d="M -1302.88528 1129.29481 L -1302.88528 1124.65848 L -1256.22085 -509.4176 L -1275.61373 -528.28652" />
    <path d="M -1298.37823 1133.68009 L -1302.88528 1129.29481" />
    <path d="M -1298.37823 1111.54067 L -1298.37823 1133.68009" />
    <path d="M -1248.20815 1160.35526 L -1298.37823 1111.54067" />
    <path d="M -1248.20815 1182.49468 L -1248.20815 1160.35526" />
    <path d="M -1244.15001 1186.44318 L -1248.20815 1182.49468 L -1244.15001 1181.91003" />
    <path d="M -1244.15001 1164.30376 L -1244.15001 1186.44318" />
    <path d="M -1193.97992 1213.11835 L -1244.15001 1164.30376" />
    <path d="M -1193.97992 1235.25778 L -1193.97992 1213.11835" />
    <path d="M -1189.92179 1239.20627 L -1193.97992 1235.25778 L -1189.92179 1234.67312" />
    <path d="M -1189.92179 1217.06685 L -1189.92179 1239.20627" />
    <path d="M -1139.7517 1265.88145 L -1189.92179 1217.06685" />
    <path d="M -1139.7517 1288.02087 L -1139.7517 1265.88145" />
    <path d="M -1135.69356 1291.96936 L -1139.7517 1288.02087 L -1135.69356 1287.43622" />
    <path d="M -1135.69356 1269.82994 L -1135.69356 1291.96936" />
    <path d="M -1085.52348 1318.64454 L -1135.69356 1269.82994" />
    <path d="M -1085.52348 1340.78396 L -1085.52348 1318.64454" />
    <path d="M -1081.46534 1344.73246 L -1085.52348 1340.78396 L -1081.46534 1340.19931" />
    <path d="M -1081.46534 1322.59303 L -1081.46534 1344.73246" />
    <path d="M -1031.29525 1371.40763 L -1081.46534 1322.59303" />
    <path d="M -1031.29525 1393.54705 L -1031.29525 1371.40763" />
    <path d="M -1027.23711 1397.49555 L -1031.29525 1393.54705 L -1027.23711 1392.9624" />
    <path d="M -1027.23711 1375.35613 L -1027.23711 1397.49555" />
    <path d="M -977.06703 1424.17072 L -1027.23711 1375.35613" />
    <path d="M -977.06703 1446.31014 L -977.06703 1424.17072" />
    <path d="M -973.00889 1450.25864 L -977.06703 1446.31014 L -973.00889 1445.72549" />
    <path d="M -973.00889 1428.11922 L -973.00889 1450.25864" />
    <path d="M -922.8388 1476.93381 L -973.00889 1428.11922" />
    <path d="M -922.8388 1499.07323 L -922.8388 1476.93381" />
    <path d="M -918.78066 1503.02173 L -922.8388 1499.07323 L -918.78066 1498.48858" />
    <path d="M -918.78066 1480.88231 L -918.78066 1503.02173" />
    <path d="M -868.61058 1529.6969 L -918.78066 1480.88231" />
    <path d="M -868.61058 1551.83633 L -868.61058 1529.6969" />
    <path d="M -864.55244 1555.78482 L -868.61058 1551.83633 L -864.55244 1551.25167" />
    <path d="M -864.55244 1533.6454 L -864.55244 1555.78482" />
    <path d="M -814.38235 1582.46 L -864.55244 1533.6454" />
    <path d="M -814.38235 1604.59942 L -814.38235 1582.46" />
    <path d="M -810.32422 1608.54791 L -814.38235 1604.59942 L -810.32422 1604.01477" />
    <path d="M -810.32422 1586.40849 L -810.32422 1608.54791" />
    <path d="M -760.15413 1635.22309 L -810.32422 1586.40849" />
    <path d="M -760.15413 1657.36251 L -760.15413 1635.22309" />
    <path d="M -756.09599 1661.31101 L -760.15413 1657.36251 L -756.09599 1656.77786" />
    <path d="M -756.09599 1639.17158 L -756.09599 1661.31101" />
    <path d="M -705.92591 1687.98618 L -756.09599 1639.17158" />
    <path d="M -705.92591 1710.1256 L -705.92591 1687.98618" />
    <path d="M -701.86777 1714.0741 L -705.92591 1710.1256 L -701.86777 1709.54095" />
    <path d="M -701.86777 1691.93468 L -701.86777 1714.0741" />
    <path d="M -651.69768 1740.74927 L -701.86777 1691.93468" />
    <path d="M -651.69768 1762.88869 L -651.69768 1740.74927" />
    <path d="M -647.63954 1766.83719 L -651.69768 1762.88869 L -647.63954 1762.30404" />
    <path d="M -647.63954 1744.69777 L -647.63954 1766.83719" />
    <path d="M -597.46946 1793.51236 L -647.63954 1744.69777" />
    <path d="M -597.46946 1815.65178 L -597.46946 1793.51236" />
    <path d="M -593.41132 1819.60028 L -597.46946 1815.65178 L -593.41132 1815.06713" />
    <path d="M -593.41132 1797.46086 L -593.41132 1819.60028" />
    <path d="M -543.24123 1846.27545 L -593.41132 1797.46086" />
    <path d="M -543.24123 1868.41488 L -543.24123 1846.27545" />
    <path d="M -489.01301 1899.03855 L -539.18309 1850.22395" />
    <path d="M -489.01301 1921.17797 L -489.01301 1899.03855" />
    <path d="M -380.55656 2004.56473 L -430.72665 1955.75013" />
    <path d="M -380.55656 2026.70415 L -380.55656 2004.56473" />
    <path d="M -326.32834 2057.32782 L -376.49842 2008.51323" />
    <path d="M -326.32834 2079.46724 L -326.32834 2057.32782" />
    <path d="M -272.10011 2110.09091 L -322.2702 2061.27632" />
    <path d="M -272.10011 2132.23033 L -272.10011 2110.09091" />
    <path d="M -217.87189 2162.854 L -268.04197 2114.03941" />
    <path d="M -217.87189 2184.99343 L -217.87189 2162.854" />
    <path d="M -163.64366 2215.6171 L -213.81375 2166.8025" />
    <path d="M -163.64366 2237.75652 L -163.64366 2215.6171" />
    <path d="M -109.41544 2268.38019 L -159.58552 2219.56559" />
    <path d="M -109.41544 2290.51961 L -109.41544 2268.38019" />
    <path d="M -55.18721 2321.14328 L -105.3573 2272.32868" />
    <path d="M -55.18721 2343.2827 L -55.18721 2321.14328" />
    <path d="M -0.95899 2373.90637 L -51.12908 2325.09178" />
    <path d="M -0.95899 2396.04579 L -0.95899 2373.90637" />
    <path d="M 0.02861 2397.00671 L -0.95899 2396.04579" />
    <path d="M 0.02861 2397.00671 L 0.02861 2767.91342 L 2275.75948 2440.05169" />
    <path d="M -2627.05951 211.8037 L 0.02861 2767.91342" />
    <path d="M -2627.05951 -154.46668 L -2627.05951 211.8037" />
    <path d="M -2627.05951 -154.46668 L -2635.82222 -162.99264 L -2635.82222 -172.2653 L -2589.15779 -1806.34138 L -2585.47816 -1864.98017 A 500 432.70375 134.21544 0 1 -2180.99954 -2325.12174 L -9.3615 -2943.00453 L -0.02861 -2944.34911" />
    <path d="M -2616.42934 -153.39638 L -2635.82222 -172.2653" />
    <path d="M -2616.42934 -148.76005 L -2616.42934 -153.39638 L -2569.76491 -1787.47246 L -2589.15779 -1806.34138" />
    <path d="M -1979.05019 471.39846 L -2616.42934 -148.76005" />
    <path d="M -1294.75697 142.06395 L -1812.55904 216.66306" />
    <path d="M -1972.56639 239.71512 L -2176.28733 269.06494" />
    <path d="M 73.59522 -63.09612 L -350.03136 -475.2772" />
    <path d="M -2183.46988 262.07645 L -1972.33632 231.6587" />
    <path d="M -1812.32898 208.60664 L -1294.52691 134.00754" />
    <path d="M -1134.51956 110.95548 L 73.59522 -63.09612" />
    <path d="M -2607.09646 -150.10463 L -2183.46988 262.07645" />
    <path d="M -2607.09646 -150.10463 L -2616.42934 -148.76005" />
    <path d="M -746.41105 433.97115 L -1010.26932 471.98488" />
    <path d="M -1291.36782 23.38388 L -1448.11734 45.96659" />
    <path d="M -308.56303 859.98943 L -572.4213 898.00317" />
    <path d="M 1173.52216 -1414.30889 L 1173.52216 -1483.85472" />
    <path d="M 813.47243 807.28896 L 1173.52216 -1414.30889" />
    <path d="M 1027.52272 832.49353 L 651.06106 886.7299" />
    <path d="M 239.11389 946.07862 L -1248.20815 1160.35526" />
    <path d="M 239.11389 890.03608 L -1298.37823 1111.54067" />
    <path d="M -1116.22757 -529.58626 L -1162.53446 1091.96982" />
    <path d="M -1113.65182 -570.63341 L -1116.22757 -529.58626" />
    <path d="M -830.51679 -892.73251 A 350 302.89262 314.21544 0 0 -1113.65182 -570.63341" />
    <path d="M 1183.58215 -1486.82207 L -830.51679 -892.73251" />
    <path d="M 1192.91504 -1488.16665 L 1183.58215 -1486.82207" />
    <path d="M 1192.91504 -1395.43997 L 1192.91504 -1488.16665" />
    <path d="M 836.46009 803.97716 L 1192.91504 -1395.43997 L 1173.52216 -1414.30889" />
    <path d="M 1332.90833 -1554.69865 L 976.23604 783.83981" />
    <path d="M 1332.90833 -1647.42532 L 1332.90833 -1554.69865" />
    <path d="M 1323.57544 -1646.08075 L 1332.90833 -1647.42532 L 1313.51545 -1666.29424" />
    <path d="M -848.0626 -1028.19795 L 1323.57544 -1646.08075 L 1304.18256 -1664.94967" />
    <path d="M -1252.54122 -568.05639 A 500 432.70375 134.21544 0 1 -848.0626 -1028.19795 L -867.45548 -1047.06687" />
    <path d="M -1256.22085 -509.4176 L -1252.54122 -568.05639 L -1271.9341 -586.92531" />
    <path d="M -1298.37823 1128.64549 L -1302.88528 1129.29481" />
    <path d="M -2476.43606 -173.56504 L -2476.43606 -164.29238 L -2602.94594 -146.06625" />
    <path d="M -2429.77163 -1807.64112 L -2476.43606 -173.56504" />
    <path d="M -2427.19589 -1848.68828 L -2429.77163 -1807.64112" />
    <path d="M -2144.06085 -2170.78737 A 350 302.89262 314.21544 0 0 -2427.19589 -1848.68828" />
    <path d="M -129.96191 -2764.87693 L -2144.06085 -2170.78737" />
    <path d="M -120.62902 -2766.22151 L -129.96191 -2764.87693" />
    <path d="M -120.62902 -2673.49483 L -120.62902 -2766.22151" />
    <path d="M -480.69176 -451.81678 L -388.08318 -1023.23513" />
    <path d="M -360.86062 -1191.20519 L -246.345 -1897.79547" />
    <path d="M -220.53904 -2057.02475 L -120.62902 -2673.49483 L -140.0219 -2692.36375 L -140.0219 -2761.90958" />
    <path d="M -350.03136 -470.64087 L -480.69176 -451.81678 L -487.73065 -458.6655" />
    <path d="M -350.03136 -470.64087 L -350.03136 -475.2772" />
    <path d="M 19.36426 -2832.75351 L -93.43357 -2093.18929" />
    <path d="M -117.43553 -1935.81931 L -225.11273 -1229.8287" />
    <path d="M -250.42949 -1063.83821 L -340.08272 -476.02266" />
    <path d="M 19.36426 -2925.48019 L 19.36426 -2832.75351" />
    <path d="M 10.03138 -2924.13561 L 19.36426 -2925.48019 L -0.02861 -2944.34911" />
    <path d="M -2161.60666 -2306.25282 L 10.03138 -2924.13561 L -9.3615 -2943.00453" />
    <path d="M -2566.08528 -1846.11125 A 500 432.70375 134.21544 0 1 -2161.60666 -2306.25282 L -2180.99954 -2325.12174" />
    <path d="M -2569.76491 -1787.47246 L -2566.08528 -1846.11125 L -2585.47816 -1864.98017" />
    <path d="M -490.55256 -466.90692 L -1120.60967 -376.13538" />
    <path d="M -1556.52268 -313.33393 L -1798.41909 -278.48421" />
    <path d="M -1958.42643 -255.43215 L -2476.2285 -180.83305" />
    <path d="M 0.02861 2397.00671 L 2275.75948 2069.14498" />
    <path d="M 2274.77188 2068.18407 L -0.95899 2396.04579" />
    <path d="M 2274.77188 2046.04464 L -0.95899 2373.90637" />
    <path d="M 2220.54366 1993.28155 L -55.18721 2321.14328" />
    <path d="M 2166.31543 1940.51846 L -109.41544 2268.38019" />
    <path d="M 2112.08721 1887.75537 L -163.64366 2215.6171" />
    <path d="M 2057.85899 1834.99228 L -217.87189 2162.854" />
    <path d="M 2003.63076 1782.22919 L -272.10011 2110.09091" />
    <path d="M 1949.40254 1729.46609 L -326.32834 2057.32782" />
    <path d="M 1895.17431 1676.703 L -380.55656 2004.56473" />
    <path d="M -430.72665 1973.35641 L -434.78478 1973.94106" />
    <path d="M 1840.94609 1623.93991 L -434.78478 1951.80164" />
    <path d="M 1786.71786 1571.17682 L -489.01301 1899.03855" />
    <path d="M 1732.48964 1518.41373 L -543.24123 1846.27545" />
    <path d="M 336.1879 1663.53465 L -593.41132 1797.46086" />
    <path d="M 1678.26142 1465.65064 L 598.26935 1621.24375" />
    <path d="M 332.12976 1659.58616 L -597.46946 1793.51236" />
    <path d="M 281.95967 1610.77156 L -647.63954 1744.69777" />
    <path d="M 1624.03319 1412.88754 L 598.26935 1560.66807" />
    <path d="M 277.90153 1606.82306 L -651.69768 1740.74927" />
    <path d="M 239.11389 1556.36861 L -701.86777 1691.93468" />
    <path d="M 1569.80497 1360.12445 L 598.26935 1500.09239" />
    <path d="M 239.11389 1551.83547 L -705.92591 1687.98618" />
    <path d="M 239.11389 1495.79293 L -756.09599 1639.17158" />
    <path d="M 1515.57674 1307.36136 L 598.26935 1439.5167" />
    <path d="M 239.11389 1491.25978 L -760.15413 1635.22309" />
    <path d="M 239.11389 1435.21724 L -810.32422 1586.40849" />
    <path d="M 1461.34852 1254.59827 L 598.26935 1378.94102" />
    <path d="M 239.11389 1430.6841 L -814.38235 1582.46" />
    <path d="M 239.11389 1374.64156 L -864.55244 1533.6454" />
    <path d="M 1407.12029 1201.83518 L 598.26935 1318.36533" />
    <path d="M 239.11389 1370.10841 L -868.61058 1529.6969" />
    <path d="M 239.11389 1314.06588 L -918.78066 1480.88231" />
    <path d="M 1352.89207 1149.07209 L 598.26935 1257.78965" />
    <path d="M 239.11389 1309.53273 L -922.8388 1476.93381" />
    <path d="M 239.11389 1253.49019 L -973.00889 1428.11922" />
    <path d="M 1298.66385 1096.30899 L 598.26935 1197.21396" />
    <path d="M 239.11389 1248.95704 L -977.06703 1424.17072" />
    <path d="M 239.11389 1192.91451 L -1027.23711 1375.35613" />
    <path d="M 1244.43562 1043.5459 L 598.26935 1136.63828" />
    <path d="M 239.11389 1188.38136 L -1031.29525 1371.40763" />
    <path d="M 239.11389 1132.33882 L -1081.46534 1322.59303" />
    <path d="M 1190.2074 990.78281 L 598.26935 1076.06259" />
    <path d="M 239.11389 1127.80567 L -1085.52348 1318.64454" />
    <path d="M 239.11389 1071.76314 L -1135.69356 1269.82994" />
    <path d="M 1135.97917 938.01972 L 651.06106 1007.88127" />
    <path d="M 239.11389 1067.22999 L -1139.7517 1265.88145" />
    <path d="M 239.11389 1011.18745 L -1189.92179 1217.06685" />
    <path d="M 1081.75095 885.25663 L 651.06106 947.30559" />
    <path d="M 239.11389 1006.6543 L -1193.97992 1213.11835" />
    <path d="M 239.11389 950.61177 L -1244.15001 1164.30376" />
    <path d="M -357.07025 -469.62678 L -357.07025 -386.71724" />
    <path d="M -486.96129 -463.41268 L -487.73065 -458.6655" />
    <path d="M -486.96129 -463.41268 L -1120.72471 -372.10717" />
    <path d="M -1556.52268 -309.32229 L -1798.53412 -274.45601" />
    <path d="M -1958.54147 -251.40395 L -2476.34354 -176.80484" />
    <path d="M -495.47244 -466.19812 L -500.08463 -470.6857 L -411.66123 -1016.28042" />
    <path d="M -486.96129 -463.41268 L -490.55256 -466.90692" />
    <path d="M -384.39685 -1184.50857 L -269.92306 -1890.84076" />
    <path d="M -244.07527 -2050.32813 L -140.0219 -2692.36375" />
    <path d="M 17.22685 2765.43569 A 295.275 98.32859 261.80188 0 1 -37.11022 2850.02434 A 295.275 98.32859 261.80188 0 1 -171.896 2600.63385" />
    <path d="M 774.80418 2733.05284 A 295.275 98.32859 81.80188 0 0 829.14125 2648.46419" />
    <path d="M 1417.15972 2563.7491 A 295.275 98.32859 261.80188 0 1 1362.82265 2648.33775 A 295.275 98.32859 261.80188 0 1 1286.81777 2582.5273" />
    <path d="M 2174.73705 2531.36624 A 295.275 98.32859 81.80188 0 0 2229.07412 2446.7776" />
    <path d="M -202.01119 2571.33231 A 295.275 98.32859 261.80188 0 1 -252.58661 2640.36967 A 295.275 98.32859 261.80188 0 1 -387.37239 2390.97918" />
    <path d="M -639.85922 2145.31402 A 295.275 98.32859 261.80188 0 1 -690.43463 2214.35138 A 295.275 98.32859 261.80188 0 1 -825.22041 1964.96089" />
    <path d="M -56.60824 -164.78145 A 295.275 98.32859 81.80188 0 0 -98.71342 -183.2403 L -910.62782 -66.2688 A 295.275 98.32859 261.80188 0 1 -868.52264 -47.80994 A 295.275 98.32859 261.80188 0 1 -806.68699 63.72505" />
    <path d="M 5.22741 -53.24646 A 295.275 98.32859 81.80188 0 0 -56.60824 -164.78145" />
    <path d="M -772.9957 437.80116 A 295.275 98.32859 261.80188 0 1 -826.41745 518.24631 A 295.275 98.32859 261.80188 0 1 -900.37462 456.15249" />
    <path d="M -973.64715 87.77879 A 295.275 98.32859 261.80188 0 1 -910.62782 -66.2688" />
    <path d="M -1456.54111 36.90515 A 295.275 98.32859 81.80188 0 0 -1498.64629 18.44629 L -1808.172 63.03927" />
    <path d="M -1394.70546 148.44014 A 295.275 98.32859 81.80188 0 0 -1456.54111 36.90515" />
    <path d="M -2268.45551 153.87665 A 295.275 98.32859 261.80188 0 1 -2223.75905 222.87581" />
    <path d="M -2175.77491 650.89554 A 295.275 98.32859 261.80188 0 1 -2226.35032 719.9329 A 295.275 98.32859 261.80188 0 1 -2361.1361 470.54241" />
    <path d="M -2313.15196 135.89811 A 295.275 98.32859 261.80188 0 1 -2310.56069 135.41779 A 295.275 98.32859 261.80188 0 1 -2268.45551 153.87665" />
    <path d="M -1672.01749 -172.74952 A 295.275 98.32859 81.80188 0 0 -1714.12268 -191.20838 L -1801.26997 -178.65318" />
    <path d="M -1584.65991 30.83817 A 295.275 98.32859 81.80188 0 0 -1672.01749 -172.74952" />
    <path d="M -2483.93189 -55.77802 A 295.275 98.32859 261.80188 0 1 -2439.23544 13.22114" />
    <path d="M -2391.2513 441.24087 A 295.275 98.32859 261.80188 0 1 -2441.82671 510.27823 A 295.275 98.32859 261.80188 0 1 -2576.61249 260.88774" />
    <path d="M -2528.62835 -73.75656 A 295.275 98.32859 261.80188 0 1 -2526.03708 -74.23688 A 295.275 98.32859 261.80188 0 1 -2483.93189 -55.77802" />
    <path d="M -272.08462 -374.43612 A 295.275 98.32859 81.80188 0 0 -314.18981 -392.89497 L -1123.46056 -276.30434" />
    <path d="M -184.72704 -170.84843 A 295.275 98.32859 81.80188 0 0 -272.08462 -374.43612" />
    <path d="M -1083.99902 -257.46461 A 295.275 98.32859 261.80188 0 1 -978.61246 88.49414" />
    <path d="M -1123.46367 -276.19534 A 295.275 98.32859 261.80188 0 1 -1083.99902 -257.46461" />
    <path d="M -1018.69308 462.92344 A 295.275 98.32859 81.80188 0 0 -1060.79827 444.46458 L -1144.38751 456.50717" />
    <path d="M -956.85744 574.45843 A 295.275 98.32859 81.80188 0 0 -1018.69308 462.92344" />
    <path d="M -1830.60748 579.89494 A 295.275 98.32859 261.80188 0 1 -1785.91103 648.89409" />
    <path d="M -1737.92689 1076.91383 A 295.275 98.32859 261.80188 0 1 -1788.5023 1145.95119 A 295.275 98.32859 261.80188 0 1 -1923.28808 896.5607" />
    <path d="M -1875.30394 561.9164 A 295.275 98.32859 261.80188 0 1 -1872.71267 561.43608 A 295.275 98.32859 261.80188 0 1 -1830.60748 579.89494" />
    <path d="M -2046.08387 370.24027 A 295.275 98.32859 261.80188 0 1 -2001.38742 439.23942" />
    <path d="M -1953.40328 867.25916 A 295.275 98.32859 261.80188 0 1 -2003.97869 936.29652 A 295.275 98.32859 261.80188 0 1 -2138.76447 686.90603" />
    <path d="M -2090.78033 352.26173 A 295.275 98.32859 261.80188 0 1 -2088.18906 351.78141 A 295.275 98.32859 261.80188 0 1 -2046.08387 370.24027" />
    <path d="M -430.67462 378.20834 A 295.275 98.32859 261.80188 0 1 -368.83897 489.74333" />
    <path d="M -335.14768 863.81945 A 295.275 98.32859 261.80188 0 1 -388.56943 944.2646 A 295.275 98.32859 261.80188 0 1 -462.5266 882.17077" />
    <path d="M -535.79913 513.79708 A 295.275 98.32859 261.80188 0 1 -472.7798 359.74948 A 295.275 98.32859 261.80188 0 1 -430.67462 378.20834" />
    <path d="M 165.7634 51.58217 A 295.275 98.32859 81.80188 0 0 123.65821 33.12331 L -688.25619 150.09482 A 295.275 98.32859 261.80188 0 1 -646.151 168.55367 A 295.275 98.32859 261.80188 0 1 -540.76444 514.51242" />
    <path d="M 174.14908 60.59874 A 295.275 98.32859 81.80188 0 0 165.7634 51.58217" />
    <path d="M -726.88252 541.32622 A 295.275 98.32859 261.80188 0 1 -688.25619 150.09482" />
    <path d="M 690.969 681.18815 A 295.275 98.32859 81.80188 0 0 651.06106 552.70807" />
    <path d="M -208.30298 594.57196 A 295.275 98.32859 261.80188 0 1 -102.96762 939.31934" />
    <path d="M -289.32733 966.16795 A 295.275 98.32859 261.80188 0 1 -250.40817 576.1131 A 295.275 98.32859 261.80188 0 1 -208.30298 594.57196" />
    <path d="M -796.32145 679.28705 A 295.275 98.32859 81.80188 0 0 -838.42664 660.8282 L -1151.5104 705.93379" />
    <path d="M -708.96387 882.87474 A 295.275 98.32859 81.80188 0 0 -796.32145 679.28705" />
    <path d="M -1608.23585 796.25856 A 295.275 98.32859 261.80188 0 1 -1563.5394 865.25771" />
    <path d="M -1515.55526 1293.27744 A 295.275 98.32859 261.80188 0 1 -1566.13067 1362.31481 A 295.275 98.32859 261.80188 0 1 -1700.91645 1112.92432" />
    <path d="M -1652.93231 778.28001 A 295.275 98.32859 261.80188 0 1 -1650.34104 777.7997 A 295.275 98.32859 261.80188 0 1 -1608.23585 796.25856" />
    <path d="M -580.84506 888.94172 A 295.275 98.32859 81.80188 0 0 -622.95025 870.48286 L -1158.41243 947.62624" />
    <path d="M -519.421 999.31726 A 295.275 98.32859 81.80188 0 0 -580.84506 888.94172" />
    <path d="M -1392.75946 1005.91322 A 295.275 98.32859 261.80188 0 1 -1348.06301 1074.91238" />
    <path d="M -1300.07887 1502.93211 A 295.275 98.32859 261.80188 0 1 -1350.65428 1571.96948 A 295.275 98.32859 261.80188 0 1 -1485.44006 1322.57899" />
    <path d="M -1437.45592 987.93468 A 295.275 98.32859 261.80188 0 1 -1434.86465 987.45437 A 295.275 98.32859 261.80188 0 1 -1392.75946 1005.91322" />
    <path d="M 819.0878 687.25513 A 295.275 98.32859 81.80188 0 0 776.98262 668.79627 L 651.06106 686.93763" />
    <path d="M 830.80638 700.33409 A 295.275 98.32859 81.80188 0 0 819.0878 687.25513" />
    <path d="M 7.1734 804.22663 A 295.275 98.32859 261.80188 0 1 68.59747 914.60217" />
    <path d="M -97.88355 938.58689 A 295.275 98.32859 261.80188 0 1 -34.93178 785.76777 A 295.275 98.32859 261.80188 0 1 7.1734 804.22663" />
    <path d="M -1289.96467 -25.75117 L -1410.71699 -8.35453 L -1410.71699 -762.22242 L -1474.64165 -824.41998 L -1474.64165 -70.55209 L -1410.71699 -8.35453" />
    <path d="M -1410.30194 -762.28222 L -1410.71699 -762.22242" />
    <path d="M -1474.2266 -824.47977 L -1474.64165 -824.41998" />
    <path d="M -1474.64165 -90.61026 L -1492.59802 -88.02331 L -1492.59802 -841.8912 L -1556.52268 -904.08875 L -1556.52268 -150.22086 L -1492.59802 -88.02331" />
    <path d="M -1492.18297 -841.95099 L -1492.59802 -841.8912" />
    <path d="M -1556.10763 -904.14855 L -1556.52268 -904.08875" />
    <path d="M -1393.83801 -755.0887 L -1401.73881 -753.95045 L -1401.73881 -1342.76485 L -1564.56172 -1501.18862" />
    <path d="M -1565.50086 -913.28799 L -1401.73881 -753.95045" />
    <path d="M -1188.38904 -1373.50189 L -1401.73881 -1342.76485" />
    <path d="M -1188.38904 -1361.43085 L -1188.38904 -1373.50189 L -1337.16641 -1518.25961" />
    <path d="M -1462.15309 -1516.99158 L -1561.80495 -1502.63486" />
    <path d="M -1565.50086 -1500.68943 L -1565.50086 -913.28799" />
    <path d="M -1253.62368 -672.10216 L -1357.92527 -657.07556 L -1357.92527 -1296.88963 L -1393.83801 -1331.83208 L -1393.83801 -692.018 L -1357.92527 -657.07556" />
    <path d="M -1144.5755 -1327.62667 L -1357.92527 -1296.88963" />
    <path d="M -1144.5755 -869.30359 L -1144.5755 -1327.62667 L -1180.48824 -1362.56911 L -1393.83801 -1331.83208" />
    <path d="M -1233.81864 -1533.14879 L -1447.16841 -1502.41175 L -1447.16841 -1543.59407" />
    <path d="M -1479.64792 -1534.01374 L -1447.16841 -1502.41175" />
    <path d="M -1234.16038 -1768.62532 L -1447.16841 -1737.93752 L -1520.07126 -1808.87068 L -1520.07126 -1687.27686" />
    <path d="M -1233.81864 -1533.14879 L -1233.81864 -1606.52488" />
    <path d="M -1447.16841 -1708.01946 L -1447.16841 -1737.93752" />
    <path d="M -1306.72149 -1839.60772 L -1520.07126 -1808.87068" />
    <path d="M -1233.85681 -1768.71169 L -1306.72149 -1839.60772" />
    <path d="M -1556.52268 -869.16196 L -1573.40166 -866.73023 L -1573.40166 -1496.35707" />
    <path d="M -1609.31439 -901.67267 L -1573.40166 -866.73023" />
    <path d="M -1467.14853 -1521.85206 L -1545.67765 -1510.53846" />
    <path d="M -1609.31439 -1473.46445 L -1609.31439 -901.67267" />
    <path d="M 598.26935 1680.21267 L 384.91958 1710.9497 L 384.91958 957.08182 L 320.99492 894.88426 L 320.99492 1648.75215 L 384.91958 1710.9497" />
    <path d="M 385.33463 957.02202 L 384.91958 957.08182" />
    <path d="M 598.26935 1680.21267 L 598.26935 1039.09728" />
    <path d="M 321.40997 894.82447 L 320.99492 894.88426" />
    <path d="M 320.99492 1628.69398 L 303.03855 1631.28093 L 303.03855 877.41304 L 239.11389 815.21549 L 239.11389 1569.08338 L 303.03855 1631.28093" />
    <path d="M 303.4536 877.35324 L 303.03855 877.41304" />
    <path d="M 239.52894 815.15569 L 239.11389 815.21549" />
    <path d="M 401.79856 964.21553 L 393.89776 965.35379 L 393.89776 376.53939 L 230.1357 217.20184 L 230.1357 806.01624 L 393.89776 965.35379" />
    <path d="M 607.24753 345.80235 L 393.89776 376.53939" />
    <path d="M 607.24753 357.87338 L 607.24753 345.80235 L 458.47016 201.04463" />
    <path d="M 333.48347 202.31266 L 230.1357 217.20184" />
    <path d="M 651.06106 1031.49165 L 437.71129 1062.22868 L 437.71129 422.41461 L 401.79856 387.47216 L 401.79856 1027.28624 L 437.71129 1062.22868" />
    <path d="M 651.06106 391.67757 L 437.71129 422.41461" />
    <path d="M 651.06106 1031.49165 L 651.06106 391.67757 L 615.14833 356.73512 L 401.79856 387.47216" />
    <path d="M 561.81792 186.15545 L 348.46815 216.89248 L 348.46815 -18.63328 L 275.56531 -89.56644 L 275.56531 145.95932 L 348.46815 216.89248" />
    <path d="M 561.81792 -49.37031 L 348.46815 -18.63328" />
    <path d="M 561.81792 186.15545 L 561.81792 -49.37031 L 488.91508 -120.30348 L 275.56531 -89.56644" />
    <path d="M 239.11389 850.14228 L 222.2349 852.57401 L 222.2349 212.75994 L 186.32217 177.81749 L 186.32217 817.63157 L 222.2349 852.57401" />
    <path d="M 328.48803 197.45218 L 222.2349 212.75994" />
    <path d="M 292.5753 162.50974 L 186.32217 177.81749" />
    <path d="M 774.80418 2733.05284 L -37.11022 2850.02434" />
    <path d="M 2174.73705 2531.36624 L 1362.82265 2648.33775" />
    <path d="M -584.57881 2199.10087 L -690.43463 2214.35138" />
    <path d="M -166.57298 2627.97779 L -252.58661 2640.36967" />
    <path d="M -735.05621 505.08401 L -826.41745 518.24631" />
    <path d="M -1968.17934 86.09133 L -2310.56069 135.41779" />
    <path d="M -2134.98908 706.7706 L -2226.35032 719.9329" />
    <path d="M -1961.27731 -155.60112 L -2526.03708 -74.23688" />
    <path d="M -2355.81308 497.88636 L -2441.82671 510.27823" />
    <path d="M -1304.39485 479.55923 L -1872.71267 561.43608" />
    <path d="M -1697.14106 1132.78889 L -1788.5023 1145.95119" />
    <path d="M -1297.49282 237.86678 L -1815.29489 312.46589" />
    <path d="M -1975.30224 335.51795 L -2088.18906 351.78141" />
    <path d="M -1917.96506 923.90465 L -2003.97869 936.29652" />
    <path d="M 186.32217 264.79348 L -472.7798 359.74948" />
    <path d="M -297.20819 931.1023 L -388.56943 944.2646" />
    <path d="M 186.32217 513.1939 L -250.40817 576.1131" />
    <path d="M -1311.51775 728.98584 L -1650.34104 777.7997" />
    <path d="M -1480.11704 1349.92293 L -1566.13067 1362.31481" />
    <path d="M -1318.41977 970.6783 L -1434.86465 987.45437" />
    <path d="M -1244.79846 1556.71896 L -1350.65428 1571.96948" />
    <path d="M 186.32217 753.89199 L -34.93178 785.76777" />
</svg>