<svg version="1.1" xmlns="http://www.w3.org/2000/svg" viewBox="-2676.1403390184964 -2732.5507370476084 5305.744038584178 5729.601562565133" fill="none" stroke="black" stroke-width="0.6%" vector-effect="non-scaling-stroke">
    <path d="M -1857.70288 658.39045 A 295.275 98.92071 261.04645 0 1 -1905.61388 720.55807 A 295.275 98.92071 261.04645 0 1 -2045.43432 466.80388" />
    <path d="M -2077.12287 434.46459 A 295.275 98.92071 261.04645 0 1 -2125.03386 496.63221 A 295.275 98.92071 261.04645 0 1 -2264.8543 242.87802" />
    <path d="M -2316.06363 190.61709 L 359.10487 2920.72117 L 2628.6037 2563.15381" />
    <path d="M 460.51675 1333.2586 L 172.71076 1378.60343" />
    <path d="M 906.37817 1788.27595 L 618.57218 1833.62077" />
    <path d="M 1352.23958 2243.29329 L 1064.43359 2288.63812" />
    <path d="M -2316.06363 -171.23636 L -2316.06363 190.61709" />
    <path d="M -2675.14034 -2638.47587 L -2316.06363 -171.23636 L -978.47938 1193.81568 L -978.47938 1189.23526" />
    <path d="M -2675.14034 -2730.08433 L -2675.14034 -2638.47587 L -1337.55609 -1273.42383 L -978.47938 1193.81568" />
    <path d="M -2665.83301 -2731.55074 L -2675.14034 -2730.08433 L -1337.55609 -1365.03229 L -1337.55609 -1273.42383" />
    <path d="M -419.58953 -2518.53504 L -2665.83301 -2731.55074 L -1328.24876 -1366.4987 L -1337.55609 -1365.03229" />
    <path d="M -129.91396 -2384.20222 A 600 511.57803 315.5823 0 0 -419.58953 -2518.53504 L 917.99472 -1153.483 L -1328.24876 -1366.4987" />
    <path d="M 359.10487 2554.2873 L 359.10487 2920.72117" />
    <path d="M 359.10487 2554.2873 L -978.47938 1189.23526" />
    <path d="M 2628.6037 2196.71994 L 2628.6037 2563.15381" />
    <path d="M 359.10487 2554.2873 L 2628.6037 2196.71994" />
    <path d="M 1291.01945 831.6679 L 2628.6037 2196.71994" />
    <path d="M -526.96764 1639.05411 L 1723.91654 1284.41955 L 1285.36912 836.8664 L 1285.36912 937.26981" />
    <path d="M -965.51505 1191.50096 L -526.96764 1639.05411" />
    <path d="M 1285.36912 836.8664 L -965.51505 1191.50096" />
    <path d="M -81.10622 2094.07145 L 2169.77796 1739.43689 L 1731.23054 1291.88374 L 1731.23054 1392.28716" />
    <path d="M -519.65364 1646.5183 L -81.10622 2094.07145" />
    <path d="M 1731.23054 1291.88374 L -519.65364 1646.5183" />
    <path d="M 364.75519 2549.0888 L 2615.63937 2194.45424 L 2177.09195 1746.90109 L 2177.09195 1847.3045" />
    <path d="M -73.79222 2101.53565 L 364.75519 2549.0888" />
    <path d="M 2177.09195 1746.90109 L -73.79222 2101.53565" />
    <path d="M 1291.01945 831.6679 L -978.47938 1189.23526" />
    <path d="M 1333.15263 -755.39956 A 600 511.57803 315.5823 0 0 1207.67029 -1019.15018 A 600 511.57803 315.5823 0 0 917.99472 -1153.483" />
    <path d="M 1337.55609 -687.20383 L 1333.15263 -755.39956" />
    <path d="M 1291.15514 831.80637 L 1337.55609 -687.20383" />
    <path d="M -1411.84146 1113.4078 A 295.275 98.92071 261.04645 0 1 -1459.75246 1175.57542 A 295.275 98.92071 261.04645 0 1 -1599.5729 921.82122" />
    <path d="M -1631.26145 889.48194 A 295.275 98.92071 261.04645 0 1 -1679.17245 951.64956 A 295.275 98.92071 261.04645 0 1 -1818.99289 697.89536" />
    <path d="M -965.98005 1568.42514 A 295.275 98.92071 261.04645 0 1 -1013.89104 1630.59277 A 295.275 98.92071 261.04645 0 1 -1153.71148 1376.83857" />
    <path d="M -1185.40003 1344.49928 A 295.275 98.92071 261.04645 0 1 -1233.31103 1406.66691 A 295.275 98.92071 261.04645 0 1 -1373.13147 1152.91271" />
    <path d="M 433.06106 1337.58434 A 295.275 98.92071 261.04645 0 1 382.20814 1410.63253 A 295.275 98.92071 261.04645 0 1 311.35827 1356.75903" />
    <path d="M 195.70664 1395.86657 A 295.275 98.92071 81.04645 0 0 149.75192 1374.68645 L -659.93907 1502.25605 A 295.275 98.92071 261.04645 0 1 -613.98435 1523.43618 A 295.275 98.92071 261.04645 0 1 -567.11058 1598.08681" />
    <path d="M 260.13535 1515.04332 A 295.275 98.92071 81.04645 0 0 195.70664 1395.86657" />
    <path d="M -520.11863 2023.44249 A 295.275 98.92071 261.04645 0 1 -568.02963 2085.61011 A 295.275 98.92071 261.04645 0 1 -707.85007 1831.85592" />
    <path d="M -660.85812 1502.41413 A 295.275 98.92071 261.04645 0 1 -659.93907 1502.25605" />
    <path d="M -23.71335 1171.94071 A 295.275 98.92071 81.04645 0 0 -69.66807 1150.76059 L -879.35906 1278.33019 A 295.275 98.92071 261.04645 0 1 -833.40434 1299.51032 A 295.275 98.92071 261.04645 0 1 -786.53057 1374.16096" />
    <path d="M 66.89025 1387.74159 A 295.275 98.92071 81.04645 0 0 -23.71335 1171.94071" />
    <path d="M -739.53862 1799.51663 A 295.275 98.92071 261.04645 0 1 -787.44962 1861.68425 A 295.275 98.92071 261.04645 0 1 -927.27006 1607.93006" />
    <path d="M -880.27811 1278.48827 A 295.275 98.92071 261.04645 0 1 -879.35906 1278.33019" />
    <path d="M 1591.80582 1175.90634 A 295.275 98.92071 81.04645 0 0 1545.8511 1154.72621 L 736.16011 1282.29582 A 295.275 98.92071 261.04645 0 1 782.11483 1303.47594 A 295.275 98.92071 261.04645 0 1 846.54354 1422.65269" />
    <path d="M 1656.23453 1295.08308 A 295.275 98.92071 81.04645 0 0 1591.80582 1175.90634" />
    <path d="M 878.92248 1792.60169 A 295.275 98.92071 261.04645 0 1 828.06956 1865.64987 A 295.275 98.92071 261.04645 0 1 757.21969 1811.77638" />
    <path d="M 674.28021 1449.79337 A 295.275 98.92071 261.04645 0 1 736.16011 1282.29582" />
    <path d="M 1372.38584 951.98048 A 295.275 98.92071 81.04645 0 0 1326.43111 930.80035 L 516.74012 1058.36996 A 295.275 98.92071 261.04645 0 1 562.69485 1079.55008 A 295.275 98.92071 261.04645 0 1 670.60599 1450.37225" />
    <path d="M 1462.98943 1167.78135 A 295.275 98.92071 81.04645 0 0 1372.38584 951.98048" />
    <path d="M 490.85877 1478.69205 A 295.275 98.92071 261.04645 0 1 516.74012 1058.36996" />
    <path d="M 641.56806 1850.88392 A 295.275 98.92071 81.04645 0 0 595.61333 1829.70379 L -214.07766 1957.2734 A 295.275 98.92071 261.04645 0 1 -168.12293 1978.45353 A 295.275 98.92071 261.04645 0 1 -121.24916 2053.10416" />
    <path d="M 705.99676 1970.06067 A 295.275 98.92071 81.04645 0 0 641.56806 1850.88392" />
    <path d="M -74.25722 2478.45984 A 295.275 98.92071 261.04645 0 1 -122.16821 2540.62746 A 295.275 98.92071 261.04645 0 1 -261.98865 2286.87326" />
    <path d="M -214.9967 1957.43148 A 295.275 98.92071 261.04645 0 1 -214.07766 1957.2734" />
    <path d="M 422.14807 1626.95806 A 295.275 98.92071 81.04645 0 0 376.19335 1605.77793 L -433.49764 1733.34754 A 295.275 98.92071 261.04645 0 1 -387.54292 1754.52767 A 295.275 98.92071 261.04645 0 1 -340.66915 1829.1783" />
    <path d="M 512.75166 1842.75894 A 295.275 98.92071 81.04645 0 0 422.14807 1626.95806" />
    <path d="M -293.6772 2254.53398 A 295.275 98.92071 261.04645 0 1 -341.5882 2316.7016 A 295.275 98.92071 261.04645 0 1 -481.40864 2062.9474" />
    <path d="M -434.41669 1733.50562 A 295.275 98.92071 261.04645 0 1 -433.49764 1733.34754" />
    <path d="M 2037.66724 1630.92368 A 295.275 98.92071 81.04645 0 0 1991.71252 1609.74356 L 1182.02153 1737.31316 A 295.275 98.92071 261.04645 0 1 1227.97625 1758.49329 A 295.275 98.92071 261.04645 0 1 1292.40496 1877.67003" />
    <path d="M 2102.09595 1750.10043 A 295.275 98.92071 81.04645 0 0 2037.66724 1630.92368" />
    <path d="M 1324.78389 2247.61903 A 295.275 98.92071 261.04645 0 1 1273.93097 2320.66722 A 295.275 98.92071 261.04645 0 1 1203.0811 2266.79373" />
    <path d="M 1120.14162 1904.81072 A 295.275 98.92071 261.04645 0 1 1182.02153 1737.31316" />
    <path d="M 1818.24725 1406.99782 A 295.275 98.92071 81.04645 0 0 1772.29253 1385.8177 L 962.60154 1513.3873 A 295.275 98.92071 261.04645 0 1 1008.55626 1534.56743 A 295.275 98.92071 261.04645 0 1 1116.46741 1905.3896" />
    <path d="M 1908.85084 1622.7987 A 295.275 98.92071 81.04645 0 0 1818.24725 1406.99782" />
    <path d="M 936.72018 1933.7094 A 295.275 98.92071 261.04645 0 1 962.60154 1513.3873" />
    <path d="M 1087.42947 2305.90127 A 295.275 98.92071 81.04645 0 0 1041.47475 2284.72114 L 231.78376 2412.29075 A 295.275 98.92071 261.04645 0 1 277.73848 2433.47087 A 295.275 98.92071 261.04645 0 1 324.61225 2508.12151" />
    <path d="M 1133.38419 2868.0752 A 295.275 98.92071 81.04645 0 0 1185.30342 2790.55074" />
    <path d="M 1151.85818 2425.07801 A 295.275 98.92071 81.04645 0 0 1087.42947 2305.90127" />
    <path d="M 375.61243 2918.12035 A 295.275 98.92071 261.04645 0 1 323.6932 2995.6448 A 295.275 98.92071 261.04645 0 1 183.87276 2741.89061" />
    <path d="M 230.86471 2412.44883 A 295.275 98.92071 261.04645 0 1 231.78376 2412.29075" />
    <path d="M 868.00948 2081.97541 A 295.275 98.92071 81.04645 0 0 822.05476 2060.79528 L 12.36377 2188.36489 A 295.275 98.92071 261.04645 0 1 58.31849 2209.54501 A 295.275 98.92071 261.04645 0 1 105.19226 2284.19565" />
    <path d="M 958.61308 2297.77628 A 295.275 98.92071 81.04645 0 0 868.00948 2081.97541" />
    <path d="M 152.18421 2709.55132 A 295.275 98.92071 261.04645 0 1 104.27321 2771.71895 A 295.275 98.92071 261.04645 0 1 -35.54723 2517.96475" />
    <path d="M 11.44472 2188.52297 A 295.275 98.92071 261.04645 0 1 12.36377 2188.36489" />
    <path d="M 2483.52866 2085.94103 A 295.275 98.92071 81.04645 0 0 2437.57393 2064.7609 L 1627.88294 2192.33051 A 295.275 98.92071 261.04645 0 1 1673.83767 2213.51064 A 295.275 98.92071 261.04645 0 1 1738.26637 2332.68738" />
    <path d="M 2529.48338 2648.11496 A 295.275 98.92071 81.04645 0 0 2581.40261 2570.5905" />
    <path d="M 2547.95736 2205.11777 A 295.275 98.92071 81.04645 0 0 2483.52866 2085.94103" />
    <path d="M 1771.71162 2698.16011 A 295.275 98.92071 261.04645 0 1 1719.79239 2775.68457 A 295.275 98.92071 261.04645 0 1 1646.55152 2717.87951" />
    <path d="M 1566.00304 2359.82806 A 295.275 98.92071 261.04645 0 1 1627.88294 2192.33051" />
    <path d="M 2264.10867 1862.01517 A 295.275 98.92071 81.04645 0 0 2218.15395 1840.83504 L 1408.46296 1968.40465 A 295.275 98.92071 261.04645 0 1 1454.41768 1989.58478 A 295.275 98.92071 261.04645 0 1 1562.32882 2360.40695" />
    <path d="M 2354.71226 2077.81605 A 295.275 98.92071 81.04645 0 0 2264.10867 1862.01517" />
    <path d="M 1382.5816 2388.72674 A 295.275 98.92071 261.04645 0 1 1408.46296 1968.40465" />
    <path d="M -1817.33318 706.64914 L -1905.61388 720.55807" />
    <path d="M -2042.17219 483.57707 L -2125.03386 496.63221" />
    <path d="M 1207.67029 -1019.15018 L -129.91396 -2384.20222" />
    <path d="M -1371.47176 1161.66649 L -1459.75246 1175.57542" />
    <path d="M -1596.31077 938.59442 L -1679.17245 951.64956" />
    <path d="M -925.61035 1616.68384 L -1013.89104 1630.59277" />
    <path d="M -1150.44936 1393.61176 L -1233.31103 1406.66691" />
    <path d="M 470.48884 1396.7236 L 382.20814 1410.63253" />
    <path d="M -479.74893 2071.70118 L -568.02963 2085.61011" />
    <path d="M -704.58794 1848.62911 L -787.44962 1861.68425" />
    <path d="M 916.35025 1851.74095 L 828.06956 1865.64987" />
    <path d="M -33.88752 2526.71853 L -122.16821 2540.62746" />
    <path d="M -258.72653 2303.64646 L -341.5882 2316.7016" />
    <path d="M 1362.21167 2306.75829 L 1273.93097 2320.66722" />
    <path d="M 1133.38419 2868.0752 L 323.6932 2995.6448" />
    <path d="M 187.13489 2758.6638 L 104.27321 2771.71895" />
    <path d="M 2529.48338 2648.11496 L 1719.79239 2775.68457" />
</svg>