<svg version="1.1" xmlns="http://www.w3.org/2000/svg" viewBox="-2635.687032019883 -2573.462342235605 5271.374064039766 5371.303423688128" fill="none" stroke="black" stroke-width="0.6%" vector-effect="non-scaling-stroke">
    <path d="M -1822.291 593.14246 A 295.275 98.5739 261.75467 0 1 -1872.8947 662.01317 A 295.275 98.5739 261.75467 0 1 -2008.19036 412.41723" />
    <path d="M -2038.39299 383.05524 A 295.275 98.5739 261.75467 0 1 -2088.99669 451.92595 A 295.275 98.5739 261.75467 0 1 -2224.29235 202.33001" />
    <path d="M -2274.77934 153.24822 L 359.93612 2714.63163 L 2634.68703 2384.99766" />
    <path d="M 484.79078 1228.97242 L 221.1881 1267.17107" />
    <path d="M 923.91002 1655.86966 L 660.30734 1694.0683" />
    <path d="M 1363.02927 2082.76689 L 1099.42658 2120.96553" />
    <path d="M -2274.77934 -212.87296 L -2274.77934 153.24822" />
    <path d="M -2634.68703 -2468.67257 L -2274.77934 -212.87296 L -957.42161 1067.81874 L -957.42161 1063.18429" />
    <path d="M -2634.68703 -2561.36148 L -2634.68703 -2468.67257 L -1317.3293 -1187.98087 L -957.42161 1067.81874" />
    <path d="M -2625.35816 -2562.71333 L -2634.68703 -2561.36148 L -1317.3293 -1280.66978 L -1317.3293 -1187.98087" />
    <path d="M -454.65526 -2572.37635 L -2625.35816 -2562.71333 L -1308.00043 -1282.02163 L -1317.3293 -1280.66978" />
    <path d="M -164.5871 -2462.62201 A 500 432.34124 314.19144 0 0 -454.65526 -2572.37635 L 862.70247 -1291.68465 L -1308.00043 -1282.02163" />
    <path d="M 359.93612 2343.87599 L 359.93612 2714.63163" />
    <path d="M 359.93612 2343.87599 L -957.42161 1063.18429" />
    <path d="M 2634.68703 2014.24203 L 2634.68703 2384.99766" />
    <path d="M 359.93612 2343.87599 L 2634.68703 2014.24203" />
    <path d="M 1317.3293 733.55033 L 2634.68703 2014.24203" />
    <path d="M 1317.3293 733.55033 L 1317.3293 728.91588 L 1270.68497 -891.01522 L 1267.00692 -948.56724 A 500 432.34124 314.19144 0 0 1152.77064 -1181.93031 A 500 432.34124 314.19144 0 0 862.70247 -1291.68465" />
    <path d="M -512.5752 1485.22823 L 1743.51798 1158.29795 L 1311.60213 738.40363 L 1311.60213 834.01713" />
    <path d="M -944.49105 1065.3339 L -512.5752 1485.22823" />
    <path d="M 1311.60213 738.40363 L -944.49105 1065.3339" />
    <path d="M -73.45596 1912.12546 L 2182.63722 1585.19519 L 1750.72138 1165.30086 L 1750.72138 1260.91436" />
    <path d="M -505.3718 1492.23114 L -73.45596 1912.12546" />
    <path d="M 1750.72138 1165.30086 L -505.3718 1492.23114" />
    <path d="M 365.66328 2339.0227 L 2621.75646 2012.09242 L 2189.84062 1592.1981 L 2189.84062 1687.81159" />
    <path d="M -66.25256 1919.12837 L 365.66328 2339.0227" />
    <path d="M 2189.84062 1592.1981 L -66.25256 1919.12837" />
    <path d="M 1317.3293 733.55033 L -957.42161 1063.18429" />
    <path d="M -1383.17176 1020.03969 A 295.275 98.5739 261.75467 0 1 -1433.77546 1088.91041 A 295.275 98.5739 261.75467 0 1 -1569.07112 839.31447" />
    <path d="M -1599.27375 809.95247 A 295.275 98.5739 261.75467 0 1 -1649.87745 878.82318 A 295.275 98.5739 261.75467 0 1 -1785.17311 629.22725" />
    <path d="M -944.05251 1446.93692 A 295.275 98.5739 261.75467 0 1 -994.65622 1515.80764 A 295.275 98.5739 261.75467 0 1 -1129.95187 1266.2117" />
    <path d="M -1160.1545 1236.8497 A 295.275 98.5739 261.75467 0 1 -1210.75821 1305.72042 A 295.275 98.5739 261.75467 0 1 -1346.05386 1056.12448" />
    <path d="M 458.11515 1232.83799 A 295.275 98.5739 261.75467 0 1 404.67382 1313.03084 A 295.275 98.5739 261.75467 0 1 330.66728 1251.30645" />
    <path d="M 1396.90988 846.32713 A 295.275 98.5739 81.75467 0 0 1354.5639 827.79154 L 542.99912 945.39532 A 295.275 98.5739 261.75467 0 1 585.3451 963.93092 A 295.275 98.5739 261.75467 0 1 691.07077 1310.80799" />
    <path d="M 1484.58694 1050.35246 A 295.275 98.5739 81.75467 0 0 1396.90988 846.32713" />
    <path d="M 504.74397 1337.80859 A 295.275 98.5739 261.75467 0 1 542.99912 945.39532" />
    <path d="M 1613.01187 1056.41435 A 295.275 98.5739 81.75467 0 0 1570.66589 1037.87876 L 759.10111 1155.48255 A 295.275 98.5739 261.75467 0 1 801.44709 1174.01814 A 295.275 98.5739 261.75467 0 1 863.51974 1285.81843" />
    <path d="M 1675.08451 1168.21464 A 295.275 98.5739 81.75467 0 0 1613.01187 1056.41435" />
    <path d="M 897.23439 1659.73522 A 295.275 98.5739 261.75467 0 1 843.79307 1739.92807 A 295.275 98.5739 261.75467 0 1 769.78653 1678.20368" />
    <path d="M 695.97468 1310.09737 A 295.275 98.5739 261.75467 0 1 759.10111 1155.48255" />
    <path d="M 213.68183 1259.19115 A 295.275 98.5739 81.75467 0 0 171.33585 1240.65556 L -640.22893 1358.25934 A 295.275 98.5739 261.75467 0 1 -597.88295 1376.79494 A 295.275 98.5739 261.75467 0 1 -553.05673 1445.87343" />
    <path d="M 275.75447 1370.99144 A 295.275 98.5739 81.75467 0 0 213.68183 1259.19115" />
    <path d="M -504.93327 1873.83416 A 295.275 98.5739 261.75467 0 1 -555.53697 1942.70487 A 295.275 98.5739 261.75467 0 1 -690.83263 1693.10893" />
    <path d="M -642.70917 1358.71628 A 295.275 98.5739 261.75467 0 1 -640.22893 1358.25934" />
    <path d="M -2.42016 1049.10393 A 295.275 98.5739 81.75467 0 0 -44.76614 1030.56834 L -856.33092 1148.17212 A 295.275 98.5739 261.75467 0 1 -813.98494 1166.70771 A 295.275 98.5739 261.75467 0 1 -769.15872 1235.78621" />
    <path d="M 85.2569 1253.12925 A 295.275 98.5739 81.75467 0 0 -2.42016 1049.10393" />
    <path d="M -721.03526 1663.74694 A 295.275 98.5739 261.75467 0 1 -771.63896 1732.61765 A 295.275 98.5739 261.75467 0 1 -906.93462 1483.02171" />
    <path d="M -858.81116 1148.62906 A 295.275 98.5739 261.75467 0 1 -856.33092 1148.17212" />
    <path d="M 1836.02912 1273.22437 A 295.275 98.5739 81.75467 0 0 1793.68315 1254.68877 L 982.11837 1372.29256 A 295.275 98.5739 261.75467 0 1 1024.46434 1390.82815 A 295.275 98.5739 261.75467 0 1 1130.19001 1737.70522" />
    <path d="M 1923.70618 1477.24969 A 295.275 98.5739 81.75467 0 0 1836.02912 1273.22437" />
    <path d="M 943.86321 1764.70583 A 295.275 98.5739 261.75467 0 1 982.11837 1372.29256" />
    <path d="M 2052.13111 1483.31159 A 295.275 98.5739 81.75467 0 0 2009.78514 1464.77599 L 1198.22036 1582.37978 A 295.275 98.5739 261.75467 0 1 1240.56633 1600.91537 A 295.275 98.5739 261.75467 0 1 1302.63898 1712.71566" />
    <path d="M 2114.20376 1595.11188 A 295.275 98.5739 81.75467 0 0 2052.13111 1483.31159" />
    <path d="M 1336.35363 2086.63245 A 295.275 98.5739 261.75467 0 1 1282.91231 2166.82531 A 295.275 98.5739 261.75467 0 1 1208.90577 2105.10091" />
    <path d="M 1135.09392 1736.9946 A 295.275 98.5739 261.75467 0 1 1198.22036 1582.37978" />
    <path d="M 652.80107 1686.08839 A 295.275 98.5739 81.75467 0 0 610.4551 1667.55279 L -201.10968 1785.15658 A 295.275 98.5739 261.75467 0 1 -158.76371 1803.69217 A 295.275 98.5739 261.75467 0 1 -113.93748 1872.77066" />
    <path d="M 714.87372 1797.88867 A 295.275 98.5739 81.75467 0 0 652.80107 1686.08839" />
    <path d="M -65.81403 2300.73139 A 295.275 98.5739 261.75467 0 1 -116.41773 2369.60211 A 295.275 98.5739 261.75467 0 1 -251.71339 2120.00617" />
    <path d="M -203.58993 1785.61351 A 295.275 98.5739 261.75467 0 1 -201.10968 1785.15658" />
    <path d="M 436.69908 1476.00116 A 295.275 98.5739 81.75467 0 0 394.35311 1457.46557 L -417.21167 1575.06936 A 295.275 98.5739 261.75467 0 1 -374.8657 1593.60495 A 295.275 98.5739 261.75467 0 1 -330.03947 1662.68344" />
    <path d="M 524.37614 1680.02649 A 295.275 98.5739 81.75467 0 0 436.69908 1476.00116" />
    <path d="M -281.91602 2090.64417 A 295.275 98.5739 261.75467 0 1 -332.51972 2159.51488 A 295.275 98.5739 261.75467 0 1 -467.81538 1909.91895" />
    <path d="M -419.69192 1575.52629 A 295.275 98.5739 261.75467 0 1 -417.21167 1575.06936" />
    <path d="M 2275.14837 1700.1216 A 295.275 98.5739 81.75467 0 0 2232.80239 1681.58601 L 1421.23761 1799.18979 A 295.275 98.5739 261.75467 0 1 1463.58359 1817.72538 A 295.275 98.5739 261.75467 0 1 1569.30926 2164.60246" />
    <path d="M 2362.82543 1904.14692 A 295.275 98.5739 81.75467 0 0 2275.14837 1700.1216" />
    <path d="M 1382.98246 2191.60306 A 295.275 98.5739 261.75467 0 1 1421.23761 1799.18979" />
    <path d="M 2491.25036 1910.20882 A 295.275 98.5739 81.75467 0 0 2448.90438 1891.67323 L 1637.3396 2009.27701 A 295.275 98.5739 261.75467 0 1 1679.68558 2027.8126 A 295.275 98.5739 261.75467 0 1 1741.75822 2139.61289" />
    <path d="M 2533.59633 2476.11876 A 295.275 98.5739 81.75467 0 0 2587.96044 2391.76881" />
    <path d="M 2553.323 2022.00911 A 295.275 98.5739 81.75467 0 0 2491.25036 1910.20882" />
    <path d="M 1776.39566 2509.37259 A 295.275 98.5739 261.75467 0 1 1722.03155 2593.72254 A 295.275 98.5739 261.75467 0 1 1645.96016 2528.27399" />
    <path d="M 1574.21316 2163.89183 A 295.275 98.5739 261.75467 0 1 1637.3396 2009.27701" />
    <path d="M 1091.92032 2112.98562 A 295.275 98.5739 81.75467 0 0 1049.57434 2094.45003 L 238.00956 2212.05381 A 295.275 98.5739 261.75467 0 1 280.35554 2230.5894 A 295.275 98.5739 261.75467 0 1 325.18176 2299.66789" />
    <path d="M 1134.26629 2678.89556 A 295.275 98.5739 81.75467 0 0 1188.6304 2594.54561" />
    <path d="M 1153.99296 2224.78591 A 295.275 98.5739 81.75467 0 0 1091.92032 2112.98562" />
    <path d="M 377.06562 2712.14939 A 295.275 98.5739 261.75467 0 1 322.70151 2796.49934 A 295.275 98.5739 261.75467 0 1 187.40586 2546.9034" />
    <path d="M 235.52932 2212.51075 A 295.275 98.5739 261.75467 0 1 238.00956 2212.05381" />
    <path d="M 875.81833 1902.8984 A 295.275 98.5739 81.75467 0 0 833.47235 1884.36281 L 21.90757 2001.96659 A 295.275 98.5739 261.75467 0 1 64.25355 2020.50218 A 295.275 98.5739 261.75467 0 1 109.07977 2089.58067" />
    <path d="M 963.49538 2106.92372 A 295.275 98.5739 81.75467 0 0 875.81833 1902.8984" />
    <path d="M 157.20323 2517.5414 A 295.275 98.5739 261.75467 0 1 106.59952 2586.41212 A 295.275 98.5739 261.75467 0 1 -28.69613 2336.81618" />
    <path d="M 19.42733 2002.42352 A 295.275 98.5739 261.75467 0 1 21.90757 2001.96659" />
    <path d="M -1781.45368 648.76246 L -1872.8947 662.01317" />
    <path d="M -2002.91774 439.45226 L -2088.99669 451.92595" />
    <path d="M 1152.77064 -1181.93031 L -164.5871 -2462.62201" />
    <path d="M -1342.33444 1075.6597 L -1433.77546 1088.91041" />
    <path d="M -1563.7985 866.34949 L -1649.87745 878.82318" />
    <path d="M -903.2152 1502.55693 L -994.65622 1515.80764" />
    <path d="M -1124.67925 1293.24672 L -1210.75821 1305.72042" />
    <path d="M 496.11484 1299.78013 L 404.67382 1313.03084" />
    <path d="M 935.23409 1726.67736 L 843.79307 1739.92807" />
    <path d="M -464.09595 1929.45416 L -555.53697 1942.70487" />
    <path d="M -685.56001 1720.14396 L -771.63896 1732.61765" />
    <path d="M 1374.35333 2153.5746 L 1282.91231 2166.82531" />
    <path d="M -24.97671 2356.3514 L -116.41773 2369.60211" />
    <path d="M -246.44076 2147.04119 L -332.51972 2159.51488" />
    <path d="M 2533.59633 2476.11876 L 1722.03155 2593.72254" />
    <path d="M 1134.26629 2678.89556 L 322.70151 2796.49934" />
    <path d="M 192.67848 2573.93842 L 106.59952 2586.41212" />
</svg>