<svg version="1.1" xmlns="http://www.w3.org/2000/svg" viewBox="-2314.2945667989557 -589.5958043215944 4628.589133597911 1156.983463514119" fill="none" stroke="black" stroke-width="0.6%" vector-effect="non-scaling-stroke">
    <path d="M -0.03151 -588.5958 L 2313.29457 -58.57386 L 2313.29457 340.25782" />
    <path d="M -2313.29457 -529.70287 L -2313.29457 -130.87119" />
    <path d="M -0.03151 -588.5958 L -2313.29457 -529.70287 L 0.03151 0.31907 L 2313.29457 -58.57386" />
    <path d="M -2300.6454 -529.21985 L -1921.41577 -442.33195 L 372.87367 -500.74184 L -6.35597 -587.62973 L -2300.6454 -529.21985 Z" />
    <path d="M -1535.86142 -353.99496 L 758.42802 -412.40485 L 379.19838 -499.29274 L 379.19838 -476.40549" />
    <path d="M -1915.09106 -440.88286 L -1535.86142 -353.99496" />
    <path d="M 379.19838 -499.29274 L -1915.09106 -440.88286" />
    <path d="M -1150.30707 -265.65797 L 1143.98236 -324.06786 L 764.75273 -410.95575 L 764.75273 -388.0685" />
    <path d="M -1529.53671 -352.54587 L -1150.30707 -265.65797" />
    <path d="M 764.75273 -410.95575 L -1529.53671 -352.54587" />
    <path d="M -764.75273 -177.32098 L 1529.53671 -235.73087 L 1150.30707 -322.61876 L 1150.30707 -299.73151" />
    <path d="M -1143.98236 -264.20888 L -764.75273 -177.32098" />
    <path d="M 1150.30707 -322.61876 L -1143.98236 -264.20888" />
    <path d="M -379.19838 -88.98399 L 1915.09106 -147.39388 L 1535.86142 -234.28177 L 1535.86142 -211.39452" />
    <path d="M -758.42802 -175.87189 L -379.19838 -88.98399" />
    <path d="M 1535.86142 -234.28177 L -758.42802 -175.87189" />
    <path d="M 6.35597 -0.647 L 2300.6454 -59.05689 L 1921.41577 -145.94478 L 1921.41577 -123.05753" />
    <path d="M -372.87367 -87.5349 L 6.35597 -0.647" />
    <path d="M 1921.41577 -145.94478 L -372.87367 -87.5349" />
    <path d="M 0.03151 399.15075 L -2313.29457 -130.87119" />
    <path d="M 0.03151 399.15075 L 2313.29457 340.25782" />
    <path d="M 0.03151 0.31907 L 0.03151 399.15075" />
    <path d="M -6.35597 -587.62973 L -6.35597 -564.74248" />
    <path d="M -1167.87335 -485.91 A 295.275 93.10371 88.54163 0 0 -1175.38827 -486.67679 L -2000.69305 -465.66551 A 295.275 93.10371 268.54163 0 1 -1993.17814 -464.89872 A 295.275 93.10371 268.54163 0 1 -1974.23074 -454.43275" />
    <path d="M -1137.01752 -462.3018 A 295.275 93.10371 88.54163 0 0 -1167.87335 -485.91" />
    <path d="M -1906.948 -37.77035 A 295.275 93.10371 268.54163 0 1 -1985.66322 124.6932 A 295.275 93.10371 268.54163 0 1 -2079.40828 -77.2839" />
    <path d="M -2012.12554 -463.11509 A 295.275 93.10371 268.54163 0 1 -2000.69305 -465.66551" />
    <path d="M -1357.61466 -529.38293 A 295.275 93.10371 88.54163 0 0 -1365.12958 -530.14972 L -2190.43437 -509.13844 A 295.275 93.10371 268.54163 0 1 -2182.91945 -508.37165 A 295.275 93.10371 268.54163 0 1 -2163.97205 -497.90568" />
    <path d="M -1312.89439 -483.17605 A 295.275 93.10371 88.54163 0 0 -1357.61466 -529.38293" />
    <path d="M -2096.68931 -81.24328 A 295.275 93.10371 268.54163 0 1 -2175.40454 81.22027 A 295.275 93.10371 268.54163 0 1 -2269.14959 -120.75683" />
    <path d="M -2201.86685 -506.58802 A 295.275 93.10371 268.54163 0 1 -2190.43437 -509.13844" />
    <path d="M 255.14772 -522.13843 A 295.275 93.10371 88.54163 0 0 247.6328 -522.90522 L -577.67199 -501.89394 A 295.275 93.10371 268.54163 0 1 -570.15707 -501.12715 A 295.275 93.10371 268.54163 0 1 -539.30124 -477.51895" />
    <path d="M 286.00355 -498.53023 A 295.275 93.10371 88.54163 0 0 255.14772 -522.13843" />
    <path d="M -614.75271 -475.59804 A 295.275 93.10371 268.54163 0 1 -577.67199 -501.89394" />
    <path d="M 65.4064 -565.61136 A 295.275 93.10371 88.54163 0 0 57.89149 -566.37815 L -767.4133 -545.36687 A 295.275 93.10371 268.54163 0 1 -759.89838 -544.60008 A 295.275 93.10371 268.54163 0 1 -704.04395 -473.3248" />
    <path d="M 110.12668 -519.40448 A 295.275 93.10371 88.54163 0 0 65.4064 -565.61136" />
    <path d="M -827.03472 -470.1936 A 295.275 93.10371 268.54163 0 1 -767.4133 -545.36687" />
    <path d="M -782.31901 -397.57301 A 295.275 93.10371 88.54163 0 0 -789.83392 -398.3398 L -1615.13871 -377.32852 A 295.275 93.10371 268.54163 0 1 -1607.62379 -376.56173 A 295.275 93.10371 268.54163 0 1 -1588.67639 -366.09576" />
    <path d="M -751.46317 -373.96481 A 295.275 93.10371 88.54163 0 0 -782.31901 -397.57301" />
    <path d="M -1521.39366 50.56664 A 295.275 93.10371 268.54163 0 1 -1600.10888 213.03019 A 295.275 93.10371 268.54163 0 1 -1693.85393 11.05309" />
    <path d="M -1626.57119 -374.7781 A 295.275 93.10371 268.54163 0 1 -1615.13871 -377.32852" />
    <path d="M -972.06032 -441.04594 A 295.275 93.10371 88.54163 0 0 -979.57523 -441.81273 L -1804.88002 -420.80145 A 295.275 93.10371 268.54163 0 1 -1797.3651 -420.03466 A 295.275 93.10371 268.54163 0 1 -1778.41771 -409.56869" />
    <path d="M -927.34004 -394.83906 A 295.275 93.10371 88.54163 0 0 -972.06032 -441.04594" />
    <path d="M -1711.13497 7.09371 A 295.275 93.10371 268.54163 0 1 -1789.85019 169.55726 A 295.275 93.10371 268.54163 0 1 -1883.59524 -32.41984" />
    <path d="M -1816.3125 -418.25103 A 295.275 93.10371 268.54163 0 1 -1804.88002 -420.80145" />
    <path d="M 640.70206 -433.80144 A 295.275 93.10371 88.54163 0 0 633.18715 -434.56823 L -192.11764 -413.55695 A 295.275 93.10371 268.54163 0 1 -184.60272 -412.79016 A 295.275 93.10371 268.54163 0 1 -153.74689 -389.18196" />
    <path d="M 671.55789 -410.19324 A 295.275 93.10371 88.54163 0 0 640.70206 -433.80144" />
    <path d="M -229.19836 -387.26105 A 295.275 93.10371 268.54163 0 1 -192.11764 -413.55695" />
    <path d="M 450.96075 -477.27437 A 295.275 93.10371 88.54163 0 0 443.44584 -478.04116 L -381.85895 -457.02988 A 295.275 93.10371 268.54163 0 1 -374.34403 -456.26309 A 295.275 93.10371 268.54163 0 1 -318.4896 -384.98781" />
    <path d="M 495.68103 -431.06749 A 295.275 93.10371 88.54163 0 0 450.96075 -477.27437" />
    <path d="M -441.48037 -381.85661 A 295.275 93.10371 268.54163 0 1 -381.85895 -457.02988" />
    <path d="M -396.76466 -309.23602 A 295.275 93.10371 88.54163 0 0 -404.27957 -310.00281 L -1229.58436 -288.99153 A 295.275 93.10371 268.54163 0 1 -1222.06945 -288.22474 A 295.275 93.10371 268.54163 0 1 -1203.12205 -277.75877" />
    <path d="M -365.90883 -285.62782 A 295.275 93.10371 88.54163 0 0 -396.76466 -309.23602" />
    <path d="M -1135.83931 138.90363 A 295.275 93.10371 268.54163 0 1 -1214.55453 301.36718 A 295.275 93.10371 268.54163 0 1 -1308.29958 99.39008" />
    <path d="M -1241.01684 -286.44111 A 295.275 93.10371 268.54163 0 1 -1229.58436 -288.99153" />
    <path d="M -586.50597 -352.70895 A 295.275 93.10371 88.54163 0 0 -594.02089 -353.47574 L -1419.32567 -332.46446 A 295.275 93.10371 268.54163 0 1 -1411.81076 -331.69767 A 295.275 93.10371 268.54163 0 1 -1392.86336 -321.2317" />
    <path d="M -541.7857 -306.50207 A 295.275 93.10371 88.54163 0 0 -586.50597 -352.70895" />
    <path d="M -1325.58062 95.4307 A 295.275 93.10371 268.54163 0 1 -1404.29584 257.89425 A 295.275 93.10371 268.54163 0 1 -1498.04089 55.91715" />
    <path d="M -1430.75816 -329.91404 A 295.275 93.10371 268.54163 0 1 -1419.32567 -332.46446" />
    <path d="M 1026.25641 -345.46445 A 295.275 93.10371 88.54163 0 0 1018.74149 -346.23124 L 193.43671 -325.21996 A 295.275 93.10371 268.54163 0 1 200.95162 -324.45317 A 295.275 93.10371 268.54163 0 1 231.80746 -300.84497" />
    <path d="M 1057.11224 -321.85625 A 295.275 93.10371 88.54163 0 0 1026.25641 -345.46445" />
    <path d="M 156.35598 -298.92406 A 295.275 93.10371 268.54163 0 1 193.43671 -325.21996" />
    <path d="M 836.5151 -388.93738 A 295.275 93.10371 88.54163 0 0 829.00018 -389.70417 L 3.6954 -368.69289 A 295.275 93.10371 268.54163 0 1 11.21031 -367.9261 A 295.275 93.10371 268.54163 0 1 67.06475 -296.65082" />
    <path d="M 881.23537 -342.7305 A 295.275 93.10371 88.54163 0 0 836.5151 -388.93738" />
    <path d="M -55.92603 -293.51962 A 295.275 93.10371 268.54163 0 1 3.6954 -368.69289" />
    <path d="M -11.21031 -220.89903 A 295.275 93.10371 88.54163 0 0 -18.72523 -221.66582 L -844.03001 -200.65454 A 295.275 93.10371 268.54163 0 1 -836.5151 -199.88775 A 295.275 93.10371 268.54163 0 1 -817.5677 -189.42178" />
    <path d="M 19.64552 -197.29083 A 295.275 93.10371 88.54163 0 0 -11.21031 -220.89903" />
    <path d="M -750.28496 227.24062 A 295.275 93.10371 268.54163 0 1 -829.00018 389.70417 A 295.275 93.10371 268.54163 0 1 -922.74524 187.72707" />
    <path d="M -855.4625 -198.10412 A 295.275 93.10371 268.54163 0 1 -844.03001 -200.65454" />
    <path d="M -200.95162 -264.37196 A 295.275 93.10371 88.54163 0 0 -208.46654 -265.13875 L -1033.77133 -244.12747 A 295.275 93.10371 268.54163 0 1 -1026.25641 -243.36068 A 295.275 93.10371 268.54163 0 1 -1007.30901 -232.89471" />
    <path d="M -156.23135 -218.16508 A 295.275 93.10371 88.54163 0 0 -200.95162 -264.37196" />
    <path d="M -940.02627 183.76769 A 295.275 93.10371 268.54163 0 1 -1018.74149 346.23124 A 295.275 93.10371 268.54163 0 1 -1112.48655 144.25414" />
    <path d="M -1045.20381 -241.57705 A 295.275 93.10371 268.54163 0 1 -1033.77133 -244.12747" />
    <path d="M 1411.81076 -257.12746 A 295.275 93.10371 88.54163 0 0 1404.29584 -257.89425 L 578.99106 -236.88297 A 295.275 93.10371 268.54163 0 1 586.50597 -236.11618 A 295.275 93.10371 268.54163 0 1 617.3618 -212.50798" />
    <path d="M 1442.66659 -233.51926 A 295.275 93.10371 88.54163 0 0 1411.81076 -257.12746" />
    <path d="M 541.91033 -210.58707 A 295.275 93.10371 268.54163 0 1 578.99106 -236.88297" />
    <path d="M 1222.06945 -300.60039 A 295.275 93.10371 88.54163 0 0 1214.55453 -301.36718 L 389.24974 -280.3559 A 295.275 93.10371 268.54163 0 1 396.76466 -279.58911 A 295.275 93.10371 268.54163 0 1 452.61909 -208.31383" />
    <path d="M 1266.78972 -254.39351 A 295.275 93.10371 88.54163 0 0 1222.06945 -300.60039" />
    <path d="M 329.62832 -205.18263 A 295.275 93.10371 268.54163 0 1 389.24974 -280.3559" />
    <path d="M 374.34403 -132.56204 A 295.275 93.10371 88.54163 0 0 366.82912 -133.32883 L -458.47567 -112.31755 A 295.275 93.10371 268.54163 0 1 -450.96075 -111.55076 A 295.275 93.10371 268.54163 0 1 -432.01335 -101.08479" />
    <path d="M 405.19987 -108.95384 A 295.275 93.10371 88.54163 0 0 374.34403 -132.56204" />
    <path d="M -364.73062 315.57761 A 295.275 93.10371 268.54163 0 1 -443.44584 478.04116 A 295.275 93.10371 268.54163 0 1 -537.19089 276.06406" />
    <path d="M -469.90815 -109.76713 A 295.275 93.10371 268.54163 0 1 -458.47567 -112.31755" />
    <path d="M 184.60272 -176.03497 A 295.275 93.10371 88.54163 0 0 177.08781 -176.80176 L -648.21698 -155.79048 A 295.275 93.10371 268.54163 0 1 -640.70206 -155.02369 A 295.275 93.10371 268.54163 0 1 -621.75466 -144.55772" />
    <path d="M 229.323 -129.82809 A 295.275 93.10371 88.54163 0 0 184.60272 -176.03497" />
    <path d="M -554.47193 272.10468 A 295.275 93.10371 268.54163 0 1 -633.18715 434.56823 A 295.275 93.10371 268.54163 0 1 -726.9322 232.59113" />
    <path d="M -659.64946 -153.24006 A 295.275 93.10371 268.54163 0 1 -648.21698 -155.79048" />
    <path d="M 1797.3651 -168.79047 A 295.275 93.10371 88.54163 0 0 1789.85019 -169.55726 L 964.5454 -148.54598 A 295.275 93.10371 268.54163 0 1 972.06032 -147.77919 A 295.275 93.10371 268.54163 0 1 1002.91615 -124.17099" />
    <path d="M 1828.22094 -145.18227 A 295.275 93.10371 88.54163 0 0 1797.3651 -168.79047" />
    <path d="M 1037.11262 372.7479 A 295.275 93.10371 268.54163 0 1 979.57523 441.81273 A 295.275 93.10371 268.54163 0 1 918.59804 375.76514" />
    <path d="M 927.46468 -122.25008 A 295.275 93.10371 268.54163 0 1 964.5454 -148.54598" />
    <path d="M 1607.62379 -212.2634 A 295.275 93.10371 88.54163 0 0 1600.10888 -213.03019 L 774.80409 -192.01891 A 295.275 93.10371 268.54163 0 1 782.31901 -191.25212 A 295.275 93.10371 268.54163 0 1 838.17344 -119.97684" />
    <path d="M 1652.34407 -166.05652 A 295.275 93.10371 88.54163 0 0 1607.62379 -212.2634" />
    <path d="M 715.18267 -116.84564 A 295.275 93.10371 268.54163 0 1 774.80409 -192.01891" />
    <path d="M 1993.17814 -123.92641 A 295.275 93.10371 88.54163 0 0 1985.66322 -124.6932 L 1160.35844 -103.68192 A 295.275 93.10371 268.54163 0 1 1167.87335 -102.91513 A 295.275 93.10371 268.54163 0 1 1223.72779 -31.63985" />
    <path d="M 2037.89841 -77.71953 A 295.275 93.10371 88.54163 0 0 1993.17814 -123.92641" />
    <path d="M 1246.69321 367.41223 A 295.275 93.10371 268.54163 0 1 1175.38827 486.67679 A 295.275 93.10371 268.54163 0 1 1098.10696 371.19506" />
    <path d="M 1100.73701 -28.50865 A 295.275 93.10371 268.54163 0 1 1160.35844 -103.68192" />
    <path d="M 759.89838 -44.22505 A 295.275 93.10371 88.54163 0 0 752.38347 -44.99184 L -72.92132 -23.98056 A 295.275 93.10371 268.54163 0 1 -65.4064 -23.21377 A 295.275 93.10371 268.54163 0 1 -46.45901 -12.7478" />
    <path d="M 767.4133 545.36687 A 295.275 93.10371 88.54163 0 0 846.82921 377.59229" />
    <path d="M 790.75421 -20.61685 A 295.275 93.10371 88.54163 0 0 759.89838 -44.22505" />
    <path d="M 21.52442 398.60357 A 295.275 93.10371 268.54163 0 1 -57.89149 566.37815 A 295.275 93.10371 268.54163 0 1 -151.63654 364.40105" />
    <path d="M -84.3538 -21.43014 A 295.275 93.10371 268.54163 0 1 -72.92132 -23.98056" />
    <path d="M 570.15707 -87.69798 A 295.275 93.10371 88.54163 0 0 562.64215 -88.46477 L -262.66263 -67.45349 A 295.275 93.10371 268.54163 0 1 -255.14772 -66.6867 A 295.275 93.10371 268.54163 0 1 -236.20032 -56.22073" />
    <path d="M 614.87734 -41.4911 A 295.275 93.10371 88.54163 0 0 570.15707 -87.69798" />
    <path d="M -168.91758 360.44167 A 295.275 93.10371 268.54163 0 1 -247.6328 522.90522 A 295.275 93.10371 268.54163 0 1 -341.37785 320.92812" />
    <path d="M -274.09512 -64.90307 A 295.275 93.10371 268.54163 0 1 -262.66263 -67.45349" />
    <path d="M 2182.91945 -80.45348 A 295.275 93.10371 88.54163 0 0 2175.40454 -81.22027 L 1350.09975 -60.20899 A 295.275 93.10371 268.54163 0 1 1357.61466 -59.4422 A 295.275 93.10371 268.54163 0 1 1388.4705 -35.834" />
    <path d="M 2190.43437 509.13844 A 295.275 93.10371 88.54163 0 0 2269.85028 341.36386" />
    <path d="M 2213.77528 -56.84528 A 295.275 93.10371 88.54163 0 0 2182.91945 -80.45348" />
    <path d="M 1444.54549 362.37514 A 295.275 93.10371 268.54163 0 1 1365.12958 530.14972 A 295.275 93.10371 268.54163 0 1 1277.2794 366.63354" />
    <path d="M 1313.01902 -33.91309 A 295.275 93.10371 268.54163 0 1 1350.09975 -60.20899" />
    <path d="M -1842.8605 121.05761 L -1985.66322 124.6932" />
    <path d="M -2037.89841 77.71953 L -2175.40454 81.22027" />
    <path d="M -1457.30615 209.3946 L -1600.10888 213.03019" />
    <path d="M -1652.34407 166.05652 L -1789.85019 169.55726" />
    <path d="M -1071.75181 297.73159 L -1214.55453 301.36718" />
    <path d="M -1266.78972 254.39351 L -1404.29584 257.89425" />
    <path d="M -686.19746 386.06858 L -829.00018 389.70417" />
    <path d="M -881.23537 342.7305 L -1018.74149 346.23124" />
    <path d="M -300.64311 474.40557 L -443.44584 478.04116" />
    <path d="M -495.68103 431.06749 L -633.18715 434.56823" />
    <path d="M 1122.37796 438.17714 L 979.57523 441.81273" />
    <path d="M 927.34004 394.83906 L 844.06632 396.95911" />
    <path d="M 1312.89439 483.17605 L 1175.38827 486.67679" />
    <path d="M 767.4133 545.36687 L -57.89149 566.37815" />
    <path d="M -110.12668 519.40448 L -247.6328 522.90522" />
    <path d="M 2190.43437 509.13844 L 1365.12958 530.14972" />
</svg>