<svg version="1.1" xmlns="http://www.w3.org/2000/svg" viewBox="-2565.370349209197 -2873.5271280298994 4780.438071274502 5644.554145938311" fill="none" stroke="black" stroke-width="0.6%" vector-effect="non-scaling-stroke">
    <path d="M 988.30389 1984.03968 L 780.73733 2024.8576 L 780.73733 1289.37774 L 706.15687 1220.5013 L 706.15687 1955.98116 L 780.73733 2024.8576" />
    <path d="M 781.14113 1289.29833 L 780.73733 1289.37774" />
    <path d="M 988.30389 1984.03968 L 988.30389 1370.02258" />
    <path d="M 706.56067 1220.42189 L 706.15687 1220.5013" />
    <path d="M 706.15687 1932.51412 L 685.2073 1936.63384 L 685.2073 1201.15398 L 610.62684 1132.27755 L 610.62684 1867.75741 L 685.2073 1936.63384" />
    <path d="M 685.6111 1201.07458 L 685.2073 1201.15398" />
    <path d="M 611.03064 1132.19814 L 610.62684 1132.27755" />
    <path d="M 800.42992 1296.78639 L 791.21211 1298.59907 L 791.21211 724.14678 L 600.15205 547.69927 L 600.15205 1122.15156 L 791.21211 1298.59907" />
    <path d="M 998.77868 683.32887 L 791.21211 724.14678" />
    <path d="M 998.77868 696.82064 L 998.77868 683.32887 L 845.22992 541.52374" />
    <path d="M 700.69841 527.92686 L 600.15205 547.69927" />
    <path d="M 1049.89562 1357.91058 L 842.32906 1398.7285 L 842.32906 774.5205 L 800.42992 735.82587 L 800.42992 1360.03387 L 842.32906 1398.7285" />
    <path d="M 1049.89562 733.70258 L 842.32906 774.5205" />
    <path d="M 1049.89562 1357.91058 L 1049.89562 733.70258 L 1007.99649 695.00796 L 800.42992 735.82587" />
    <path d="M 610.62684 1162.68818 L 590.93424 1166.56073 L 590.93424 542.35273 L 549.03511 503.6581 L 549.03511 1127.8661 L 590.93424 1166.56073" />
    <path d="M 694.3072 522.02446 L 590.93424 542.35273" />
    <path d="M 653.15446 483.18306 L 549.03511 503.6581" />
    <path d="M 945.77627 521.75133 L 738.20971 562.56924 L 738.20971 332.78832 L 653.15446 254.23823 L 653.15446 484.01914 L 738.20971 562.56924" />
    <path d="M 945.77627 291.97041 L 738.20971 332.78832" />
    <path d="M 945.77627 521.75133 L 945.77627 291.97041 L 860.72102 213.42031 L 653.15446 254.23823" />
    <path d="M -1118.1577 78.71017 L -1164.09122 87.74298" />
    <path d="M -1360.31365 74.69684 L -1315.80578 115.80067" />
    <path d="M -1313.81567 -618.2936 L -1314.21947 -618.2142 L -1339.93517 -641.96313" />
    <path d="M -1106.6529 -325.88481 L -1106.6529 -537.56935" />
    <path d="M -1314.21947 60.01399 L -1314.21947 -618.2142" />
    <path d="M -1294.52687 -610.80554 L -1303.74468 -608.99286 L -1303.74468 -843.96306" />
    <path d="M -1339.92264 -642.40388 L -1303.74468 -608.99286" />
    <path d="M -1303.74468 -1095.87164 L -1303.74468 -1119.30086" />
    <path d="M -1209.40985 -1328.83467 L -1249.72688 -1366.06819" />
    <path d="M -1373.14052 -1247.5335 L -1454.96184 -1323.09699" />
    <path d="M -1494.80474 -1296.59169 L -1494.80474 -1131.64061" />
    <path d="M -1054.18639 -547.88688 L -1146.07151 -529.81769" />
    <path d="M -1045.06117 -566.08247 L -1045.06117 -768.61957" />
    <path d="M -1045.06117 -958.86109 L -1045.06117 -1067.16005" />
    <path d="M -1252.62774 -709.90971 L -1252.62774 -926.52857" />
    <path d="M -1254.90214 -1135.17189 L -1265.49445 -1144.95408" />
    <path d="M -1294.52687 -1126.06289 L -1294.52687 -1103.9495" />
    <path d="M -1294.52687 -862.50535 L -1294.52687 -561.55972" />
    <path d="M -1504.02255 -1119.7224 L -1504.02255 -1289.45062" />
    <path d="M -1545.92169 -1251.16898 L -1545.92169 -1056.09021" />
    <path d="M -1149.18053 -1385.84061 L -1356.74709 -1345.02269 L -1356.74709 -1364.63475" />
    <path d="M -1372.29183 -1359.37855 L -1356.74709 -1345.02269" />
    <path d="M -1149.18053 -1615.62152 L -1356.74709 -1574.80361 L -1381.17438 -1597.36266" />
    <path d="M -1149.18053 -1385.84061 L -1149.18053 -1434.81995" />
    <path d="M -1149.18053 -1590.72556 L -1149.18053 -1615.62152 L -1196.34693 -1659.18057" />
    <path d="M -1356.74709 -1520.67251 L -1356.74709 -1574.80361" />
    <path d="M -1441.80234 -1577.08486 L -1441.80234 -1491.40227" />
    <path d="M 873.54246 -1702.43114 L 882.48441 -1702.61867 L 938.29858 -1651.07325" />
    <path d="M 873.54246 -1702.43114 L 931.60113 -1648.81288" />
    <path d="M 1054.38148 -1535.42296 L 1123.16398 -1471.90104" />
    <path d="M 1061.07555 -1537.68645 L 1129.86143 -1474.16141" />
    <path d="M 489.07786 545.55799 L 686.34871 -607.8973" />
    <path d="M 714.56644 -772.88817 L 715.13585 -776.21758" />
    <path d="M 743.33573 -941.10407 L 758.13605 -1027.64252" />
    <path d="M 816.40974 -1368.37246 L 832.12681 -1460.27122" />
    <path d="M 860.25414 -1624.7335 L 873.54246 -1702.43114" />
    <path d="M 549.03511 600.92961 L 489.07786 545.55799" />
    <path d="M 241.69741 1001.01296 A 295.275 111.9211 258.87476 0 1 314.24299 1118.75337" />
    <path d="M 117.99011 1157.34645 A 295.275 111.9211 258.87476 0 1 184.72284 978.40715 A 295.275 111.9211 258.87476 0 1 241.69741 1001.01296" />
    <path d="M -9.69741 768.84519 A 295.275 111.9211 258.87476 0 1 113.96522 1158.13795" />
    <path d="M -77.8904 1195.86631 A 295.275 111.9211 258.87476 0 1 -66.67198 746.23938 A 295.275 111.9211 258.87476 0 1 -9.69741 768.84519" />
    <path d="M 362.70819 -2174.19605 L 371.65015 -2174.38358 L 427.46432 -2122.83816" />
    <path d="M 362.70819 -2174.19605 L 420.76687 -2120.57779" />
    <path d="M 543.54721 -2007.18787 L 612.32971 -1943.66595" />
    <path d="M 550.24128 -2009.45136 L 619.02717 -1945.92632" />
    <path d="M 409.49031 472.05741 L 352.1093 419.06498" />
    <path d="M -21.7564 73.79308 L 58.52349 -395.60857" />
    <path d="M 86.81376 -561.02365 L 87.31063 -563.92886" />
    <path d="M 115.58306 -729.23955 L 130.72888 -817.79814" />
    <path d="M 188.65706 -1156.50794 L 204.30159 -1247.98249" />
    <path d="M 232.50147 -1412.86898 L 247.30179 -1499.40743" />
    <path d="M 305.57547 -1840.13737 L 321.29255 -1932.03612" />
    <path d="M 349.41987 -2096.49841 L 362.70819 -2174.19605" />
    <path d="M 80.85487 168.55649 L -21.7564 73.79308" />
    <path d="M 80.85487 168.55649 L 81.58377 169.08746 L 82.31143 169.62779 L 83.03781 170.17747 L 83.7629 170.73647 L 84.48666 171.30478 L 85.20908 171.88237 L 85.93013 172.46923 L 86.64979 173.06533 L 87.36804 173.67067 L 88.08484 174.28522 L 88.80018 174.90895 L 89.51404 175.54185 L 90.22638 176.1839 L 90.93719 176.83508 L 91.64645 177.49536 L 92.35412 178.16472 L 93.06019 178.84315 L 93.76463 179.53061 L 94.46742 180.22709 L 95.16854 180.93256 L 95.86796 181.647 L 96.56566 182.37038 L 97.26162 183.10269 L 97.95582 183.8439 L 98.64823 184.59398 L 99.33882 185.35291 L 100.02758 186.12066 L 100.71449 186.89722" />
    <path d="M 332.24968 400.72426 L 100.71449 186.89722" />
    <path d="M 332.24968 400.72426 L 332.97859 401.25523 L 333.70624 401.79556 L 334.43262 402.34524 L 335.15771 402.90424 L 335.88148 403.47254 L 336.6039 404.05014 L 337.32495 404.637 L 338.04461 405.2331 L 338.76285 405.83844 L 339.47966 406.45299 L 340.195 407.07672 L 340.90885 407.70962 L 341.6212 408.35167 L 342.33201 409.00285 L 343.04126 409.66313 L 343.74893 410.33249 L 344.455 411.01091 L 345.15945 411.69838 L 345.86224 412.39485 L 346.56336 413.10033 L 347.26278 413.81477 L 347.96048 414.53815 L 348.65644 415.27046 L 349.35064 416.01167 L 350.04304 416.76175 L 350.73364 417.52068 L 351.4224 418.28843 L 352.1093 419.06498" />
    <path d="M -269.13686 529.24805 A 295.275 111.9211 258.87476 0 1 -193.35597 655.20905" />
    <path d="M -158.98065 1019.69567 A 295.275 111.9211 258.87476 0 1 -212.16229 1086.09448 A 295.275 111.9211 258.87476 0 1 -286.52621 1044.77748" />
    <path d="M -392.72578 694.41507 A 295.275 111.9211 258.87476 0 1 -326.11143 506.64224 A 295.275 111.9211 258.87476 0 1 -269.13686 529.24805" />
    <path d="M -516.89522 300.55403 A 295.275 111.9211 258.87476 0 1 -397.06614 695.2686" />
    <path d="M -148.12607 -2645.96096 L -139.18412 -2646.14849 L -83.36995 -2594.60307" />
    <path d="M -148.12607 -2645.96096 L -90.0674 -2592.3427" />
    <path d="M 32.71295 -2478.95277 L 101.49545 -2415.43086" />
    <path d="M 39.40702 -2481.21626 L 108.1929 -2417.69123" />
    <path d="M -101.34396 0.2925 L -158.72496 -52.69992" />
    <path d="M -515.20095 -499.65061 L -496.6783 -607.95376" />
    <path d="M -439.09561 -944.64342 L -423.52363 -1035.69377" />
    <path d="M -395.25121 -1201.00446 L -380.10539 -1289.56305" />
    <path d="M -322.1772 -1628.27285 L -306.53268 -1719.7474" />
    <path d="M -278.3328 -1884.63389 L -263.53248 -1971.17233" />
    <path d="M -205.25879 -2311.90228 L -189.54172 -2403.80103" />
    <path d="M -161.41439 -2568.26332 L -148.12607 -2645.96096" />
    <path d="M -460.18804 -331.10666 L -479.0511 -348.52705" />
    <path d="M -178.58458 -71.04065 L -353.35369 -232.44316" />
    <path d="M -178.58458 -71.04065 L -177.85568 -70.50968 L -177.12802 -69.96934 L -176.40164 -69.41967 L -175.67655 -68.86067 L -174.95279 -68.29236 L -174.23037 -67.71477 L -173.50932 -67.12791 L -172.78966 -66.5318 L -172.07141 -65.92647 L -171.35461 -65.31192 L -170.63927 -64.68819 L -169.92541 -64.05528 L -169.21307 -63.41323 L -168.50226 -62.76206 L -167.793 -62.10178 L -167.08533 -61.43242 L -166.37926 -60.75399 L -165.67482 -60.06653 L -164.97203 -59.37005 L -164.27091 -58.66458 L -163.57149 -57.95014 L -162.87378 -57.22676 L -162.17782 -56.49445 L -161.48363 -55.75324 L -160.79122 -55.00316 L -160.10063 -54.24423 L -159.41187 -53.47648 L -158.72496 -52.69992" />
    <path d="M -834.92243 34.53006 A 295.275 111.9211 258.87476 0 1 -789.66718 49.35028" />
    <path d="M -1121.39374 192.51353 A 295.275 111.9211 258.87476 0 1 -1146.43735 84.27135" />
    <path d="M -1383.47563 889.24578 L -1337.54211 880.21297" />
    <path d="M -1185.77673 850.36834 L -1139.84322 841.33553" />
    <path d="M -856.27858 785.57261 L -810.34506 776.5398" />
    <path d="M -528.85601 721.18505 L 405.7428 537.39642" />
    <path d="M -1638.70495 814.96738 L -1542.54533 903.77257" />
    <path d="M -1830.2678 638.05554 L -1662.71205 792.79637" />
    <path d="M -2021.83065 461.1437 L -1854.2749 615.88453" />
    <path d="M 749.2471 -1604.03571 L 749.2471 -1667.28947" />
    <path d="M 398.94447 536.49805 L 580.36216 -572.0597" />
    <path d="M 607.30381 -736.68737 L 607.83541 -739.93571" />
    <path d="M 634.76016 -904.46016 L 648.94243 -991.12131" />
    <path d="M 704.4993 -1330.60305 L 719.48667 -1422.18381" />
    <path d="M 746.34278 -1586.28878 L 749.2471 -1604.03571" />
    <path d="M 1012.56426 -1927.21175 L 1021.64416 -1928.99731 L 1044.2697 -1908.10221 L 1044.2697 -1817.63729 L 1023.47336 -1679.81947" />
    <path d="M -1100.20787 -1214.15791 L 1012.56426 -1927.21175 L 1035.18979 -1906.31665 L 1044.2697 -1908.10221" />
    <path d="M -1493.72242 -744.70676 A 500 410.70635 132.72305 0 1 -1100.20787 -1214.15791 L -1077.58234 -1193.26281 L 1035.18979 -1906.31665" />
    <path d="M -1497.30231 -687.31146 L -1493.72242 -744.70676 L -1471.09689 -723.81166 A 500 410.70635 132.72305 0 1 -1077.58234 -1193.26281" />
    <path d="M -1542.70182 909.27582 L -1497.30231 -687.31146 L -1474.67677 -666.41636 L -1471.09689 -723.81166" />
    <path d="M -1542.70182 913.79906 L -1542.70182 909.27582 L -1520.07628 930.17092 L -1474.67677 -666.41636" />
    <path d="M -1383.87775 903.38751 L -1383.87775 912.434 L -1506.95838 936.63778" />
    <path d="M 414.12263 545.13535 L -529.12442 730.62465" />
    <path d="M -810.61348 785.9794 L -856.547 795.01221" />
    <path d="M -1140.11164 850.77513 L -1186.04515 859.80794" />
    <path d="M -1337.81053 889.65257 L -1383.74404 898.68538" />
    <path d="M 414.12263 545.13535 L 405.7428 537.39642" />
    <path d="M 400.93994 538.3409 L 398.94447 536.49805" />
    <path d="M 762.54332 -1591.75641 L 749.2471 -1604.03571" />
    <path d="M 421.57 557.39315 L 607.93288 -581.38228" />
    <path d="M 634.87149 -745.99138 L 635.40612 -749.25829" />
    <path d="M 662.32784 -913.76417 L 676.49563 -1000.33683" />
    <path d="M 732.06697 -1339.90705 L 747.05739 -1431.5064" />
    <path d="M 413.35777 549.809 L 421.57 557.39315" />
    <path d="M 414.12263 545.13535 L 413.35777 549.809" />
    <path d="M -2554.14696 341.57045 L 0.02437 2700.39499 L 2214.06772 2265.00391" />
    <path d="M -1327.46144 105.03646 L -1361.36595 111.70377" />
    <path d="M -804.59817 574.43586 L -850.53169 583.46868" />
    <path d="M -126.88403 1013.38388 L -481.86673 1083.19114" />
    <path d="M -1894.71202 431.6226 L -1894.71202 440.6691 L -2017.79264 464.87287" />
    <path d="M -1849.31251 -1164.96468 L -1894.71202 431.6226" />
    <path d="M -1846.80658 -1205.14138 L -1849.31251 -1164.96468" />
    <path d="M -1571.3464 -1533.75719 A 350 287.49444 312.72305 0 0 -1846.80658 -1205.14138" />
    <path d="M 251.95846 -2143.58489 L -1571.3464 -1533.75719" />
    <path d="M 261.03837 -2145.37045 L 251.95846 -2143.58489" />
    <path d="M 261.03837 -2066.66993 L 261.03837 -2145.37045" />
    <path d="M -89.26426 85.62824 L -14.55265 -370.89909" />
    <path d="M 12.4546 -535.92767 L 12.92059 -538.7751" />
    <path d="M 39.91096 -703.70046 L 54.40568 -792.27087" />
    <path d="M 109.65009 -1129.84334 L 124.57186 -1221.0232" />
    <path d="M 151.49357 -1385.52907 L 165.66136 -1472.10174" />
    <path d="M 221.23271 -1811.67196 L 236.22312 -1903.2713" />
    <path d="M -21.50151 72.30271 L -89.26426 85.62824" />
    <path d="M 533.43543 -2289.40219 L 512.63909 -2151.58437" />
    <path d="M 533.43543 -2379.86712 L 533.43543 -2289.40219" />
    <path d="M 524.35553 -2378.08156 L 533.43543 -2379.86712" />
    <path d="M -1588.4166 -1665.02771 L 524.35553 -2378.08156" />
    <path d="M -1981.93115 -1195.57656 A 500 410.70635 132.72305 0 1 -1588.4166 -1665.02771" />
    <path d="M -1985.51104 -1138.18127 L -1981.93115 -1195.57656" />
    <path d="M -2030.91055 458.40601 L -1985.51104 -1138.18127" />
    <path d="M -2030.91055 462.92926 L -2030.91055 458.40601" />
    <path d="M -2021.83065 461.1437 L -2030.91055 462.92926 L -1854.43139 625.91103 L -1854.43139 621.38778 L -1809.03188 -975.1995 L -1805.45199 -1032.59479 L -1790.3683 -1018.66472 A 500 410.70635 132.72305 0 1 -1396.85375 -1488.11587 L 715.91838 -2201.16972 L 724.99828 -2202.95528 L 724.99828 -2112.49035 L 717.96409 -2065.87462 L 715.91838 -2065.47233 L -1379.78355 -1356.84535 A 350 287.49444 312.72305 0 0 -1655.24374 -1028.22954 L -1657.74966 -988.05284 L -1703.14917 608.53444 L -1703.14917 617.58094 L -1826.22979 641.78471" />
    <path d="M -96.71164 73.37044 L -97.47649 78.0441 L -89.26426 85.62824" />
    <path d="M -96.71164 73.37044 L -512.76164 155.18657" />
    <path d="M -794.2507 210.54132 L -840.18422 219.57414" />
    <path d="M -1123.74885 275.33705 L -1169.68237 284.36987" />
    <path d="M -1321.44775 314.21449 L -1367.38126 323.24731" />
    <path d="M -1650.9459 379.01022 L -1696.87942 388.04304" />
    <path d="M -1848.64479 417.88766 L -1894.57831 426.92048" />
    <path d="M -1647.78485 816.75294 L -1542.70182 913.79906" />
    <path d="M -1638.70495 814.96738 L -1647.78485 816.75294 L -1647.78485 812.22969 L -1662.86854 798.29962 L -1617.46903 -798.28766 L -1613.88914 -855.68295 L -1598.80545 -841.75288 A 500 410.70635 132.72305 0 1 -1205.2909 -1311.20403 L 907.48123 -2024.25788 L 916.56113 -2026.04344 L 916.56113 -1935.57851 L 910.07932 -1892.62341" />
    <path d="M -1616.70889 812.21203 L -1616.70889 815.1651 L -1634.66694 818.69655" />
    <path d="M -1539.5101 797.03091 L -1616.70889 812.21203 A 295.275 111.9211 258.87476 0 1 -1578.97514 870.12896" />
    <path d="M -1188.2207 -1179.93351 A 350 287.49444 312.72305 0 0 -1460.12165 -873.8978" />
    <path d="M -1169.56623 -1186.24121 L -1188.2207 -1179.93351" />
    <path d="M -1602.38534 -784.35759 L -1598.80545 -841.75288" />
    <path d="M -1647.78485 812.22969 L -1602.38534 -784.35759 L -1617.46903 -798.28766" />
    <path d="M 892.39754 -2038.18795 L 901.47744 -2039.97351 L 916.56113 -2026.04344" />
    <path d="M -1220.37459 -1325.1341 L 892.39754 -2038.18795 L 907.48123 -2024.25788" />
    <path d="M -1613.88914 -855.68295 A 500 410.70635 132.72305 0 1 -1220.37459 -1325.1341 L -1205.2909 -1311.20403" />
    <path d="M -1662.86854 802.82287 L -1662.86854 798.29962" />
    <path d="M -1839.3477 639.8411 L -1662.86854 802.82287" />
    <path d="M -1830.2678 638.05554 L -1839.3477 639.8411 L -1839.3477 635.31785 L -1854.43139 621.38778" />
    <path d="M -1793.94819 -961.26943 L -1790.3683 -1018.66472" />
    <path d="M -1839.3477 635.31785 L -1793.94819 -961.26943 L -1809.03188 -975.1995" />
    <path d="M 700.83469 -2215.09979 L 709.91459 -2216.88535 L 724.99828 -2202.95528" />
    <path d="M -1411.93744 -1502.04594 L 700.83469 -2215.09979 L 715.91838 -2201.16972" />
    <path d="M -1805.45199 -1032.59479 A 500 410.70635 132.72305 0 1 -1411.93744 -1502.04594 L -1396.85375 -1488.11587" />
    <path d="M -1338.47824 -693.19977 L -1383.87775 903.38751" />
    <path d="M -1335.97232 -733.37648 L -1338.47824 -693.19977" />
    <path d="M -1060.51214 -1061.99228 A 350 287.49444 312.72305 0 0 -1335.97232 -733.37648" />
    <path d="M 762.79273 -1671.81998 L -1060.51214 -1061.99228" />
    <path d="M 771.87263 -1673.60554 L 762.79273 -1671.81998" />
    <path d="M 771.87263 -1594.90502 L 771.87263 -1673.60554" />
    <path d="M 1258.11799 998.7075 L 1204.80133 949.46859" />
    <path d="M 1258.11799 1004.4804 L 1258.11799 998.7075 L 1049.89562 1039.65438" />
    <path d="M 1321.80467 1057.52334 L 1263.27158 1003.46694 L 1049.89562 1045.42727" />
    <path d="M 1321.80467 1063.29623 L 1321.80467 1057.52334 L 1049.89562 1110.99419" />
    <path d="M 1385.49136 1116.33917 L 1326.95827 1062.28278 L 1049.89562 1116.76708" />
    <path d="M 1385.49136 1122.11207 L 1385.49136 1116.33917 L 1049.89562 1182.33399" />
    <path d="M 1449.17805 1175.15501 L 1390.64495 1121.09861 L 1049.89562 1188.10688" />
    <path d="M 1449.17805 1180.9279 L 1449.17805 1175.15501 L 1049.89562 1253.6738" />
    <path d="M 1512.86473 1233.97084 L 1454.33164 1179.91445 L 1049.89562 1259.44669" />
    <path d="M 1512.86473 1239.74374 L 1512.86473 1233.97084 L 1049.89562 1325.0136" />
    <path d="M 1576.55142 1292.78668 L 1518.01833 1238.73028 L 1049.89562 1330.7865" />
    <path d="M 1576.55142 1298.55957 L 1576.55142 1292.78668 L 988.30389 1408.46541" />
    <path d="M 1640.23811 1351.60251 L 1581.70501 1297.54612 L 988.30389 1414.2383" />
    <path d="M 1640.23811 1357.37541 L 1640.23811 1351.60251 L 988.30389 1479.80521" />
    <path d="M 1703.92479 1410.41835 L 1645.3917 1356.36195 L 988.30389 1485.57811" />
    <path d="M 1703.92479 1416.19124 L 1703.92479 1410.41835 L 988.30389 1551.14502" />
    <path d="M 1767.61148 1469.23418 L 1709.07839 1415.17779 L 988.30389 1556.91791" />
    <path d="M 1767.61148 1475.00707 L 1767.61148 1469.23418 L 988.30389 1622.48483" />
    <path d="M 1831.29816 1528.05002 L 1772.76507 1473.99362 L 988.30389 1628.25772" />
    <path d="M 1831.29816 1533.82291 L 1831.29816 1528.05002 L 988.30389 1693.82463" />
    <path d="M 1894.98485 1586.86585 L 1836.45176 1532.80946 L 988.30389 1699.59752" />
    <path d="M 1894.98485 1592.63874 L 1894.98485 1586.86585 L 988.30389 1765.16444" />
    <path d="M 1958.67154 1645.68169 L 1900.13845 1591.62529 L 988.30389 1770.93733" />
    <path d="M 1958.67154 1651.45458 L 1958.67154 1645.68169 L 988.30389 1836.50424" />
    <path d="M 2022.35822 1704.49752 L 1963.82513 1650.44113 L 988.30389 1842.27714" />
    <path d="M 2022.35822 1710.27041 L 2022.35822 1704.49752 L 988.30389 1907.84405" />
    <path d="M 2086.04491 1763.31336 L 2027.51182 1709.25696 L 988.30389 1913.61694" />
    <path d="M 2086.04491 1769.08625 L 2086.04491 1763.31336 L 988.30389 1979.18386" />
    <path d="M 2149.7316 1822.12919 L 2091.1985 1768.0728 L -122.84485 2203.46387 L -122.84485 2225.06328" />
    <path d="M 2149.7316 1827.90208 L 2149.7316 1822.12919 L -64.31176 2257.52027 L -122.84485 2203.46387" />
    <path d="M 2213.41828 1880.94503 L 2154.88519 1826.88863 L -59.15816 2262.27971 L -59.15816 2283.87911" />
    <path d="M 2213.41828 1902.54443 L 2213.41828 1880.94503 L -0.62507 2316.3361 L -59.15816 2262.27971" />
    <path d="M 2214.06772 1903.1442 L 2213.41828 1902.54443 L -0.62507 2337.93551 L -0.62507 2316.3361" />
    <path d="M 2214.06772 1903.1442 L 2214.06772 2265.00391" />
    <path d="M -1520.07628 934.69416 L -1520.07628 930.17092" />
    <path d="M -1520.07628 934.69416 L -1343.59712 1097.67594 L -1343.59712 1093.15269 L -1298.19761 -503.43459 L -1294.61773 -560.82988 A 500 410.70635 132.72305 0 1 -901.10318 -1030.28103 L -886.01949 -1016.35097 L 1226.75264 -1729.40481 L 1235.83255 -1731.19037 L 1235.83255 -1640.72545 L 1228.79836 -1594.10971 L 1226.75264 -1593.70742 L -868.94929 -885.08044 A 350 287.49444 312.72305 0 0 -1144.40947 -556.46464 L -1146.91539 -516.28793 L -1192.3149 1080.29935 L -1192.3149 1089.34584 L -1315.39553 1113.54962" />
    <path d="M -1328.51343 1107.08276 L -1343.59712 1093.15269" />
    <path d="M -1328.51343 1111.606 L -1328.51343 1107.08276 L -1283.11392 -489.50452 L -1279.53404 -546.89982 L -1294.61773 -560.82988" />
    <path d="M -1328.51343 1111.606 L -1152.03427 1274.58778 L -1152.03427 1270.06453 L -1106.63476 -326.52275 L -1103.05488 -383.91804 A 500 410.70635 132.72305 0 1 -709.54033 -853.36919 L -694.45664 -839.43913 L 1418.31549 -1552.49297 L 1427.3954 -1554.27853 L 1427.3954 -1463.81361 L 1420.91359 -1420.8585" />
    <path d="M -1136.95059 1283.9946 L -1152.03427 1270.06453" />
    <path d="M -1136.95059 1288.51784 L -1136.95059 1283.9946 L -1091.55107 -312.59268 L -1087.97119 -369.98798 L -1103.05488 -383.91804" />
    <path d="M -1136.95059 1288.51784 L -1031.86755 1385.56397 L -1031.86755 1381.04073 L -986.46804 -215.54655 L -963.84251 -194.65146 L -960.26262 -252.04675 A 500 410.70635 132.72305 0 1 -566.74807 -721.4979 L 1546.02406 -1434.55175 L 1555.10396 -1436.33731 L 1555.10396 -1345.87238 L 1534.30762 -1208.05456" />
    <path d="M -1031.86755 1381.04073 L -1014.45846 1397.11834" />
    <path d="M -1014.45846 1380.04218 L -1014.45846 1397.11834" />
    <path d="M -955.92537 1434.09858 L -1014.45846 1380.04218" />
    <path d="M -955.92537 1455.69799 L -955.92537 1434.09858" />
    <path d="M -955.92537 1455.69799 L -950.77178 1460.45743" />
    <path d="M -950.77178 1438.85802 L -950.77178 1460.45743" />
    <path d="M -892.23868 1492.91441 L -950.77178 1438.85802" />
    <path d="M -892.23868 1514.51382 L -892.23868 1492.91441" />
    <path d="M -892.23868 1514.51382 L -887.08509 1519.27326" />
    <path d="M -887.08509 1497.67385 L -887.08509 1519.27326" />
    <path d="M -828.552 1551.73025 L -887.08509 1497.67385" />
    <path d="M -828.552 1568.80641 L -828.552 1551.73025" />
    <path d="M -823.3984 1573.56585 L -828.552 1568.80641" />
    <path d="M -823.3984 1556.48969 L -823.3984 1573.56585" />
    <path d="M -764.86531 1610.54608 L -823.3984 1556.48969" />
    <path d="M -764.86531 1632.14549 L -764.86531 1610.54608" />
    <path d="M -764.86531 1632.14549 L -759.71172 1636.90493" />
    <path d="M -759.71172 1615.30552 L -759.71172 1636.90493" />
    <path d="M -701.17862 1669.36192 L -759.71172 1615.30552" />
    <path d="M -701.17862 1686.43808 L -701.17862 1669.36192" />
    <path d="M -696.02503 1691.19752 L -701.17862 1686.43808" />
    <path d="M -696.02503 1674.12136 L -696.02503 1691.19752" />
    <path d="M -637.49194 1728.17775 L -696.02503 1674.12136" />
    <path d="M -637.49194 1749.77716 L -637.49194 1728.17775" />
    <path d="M -637.49194 1749.77716 L -632.33834 1754.5366" />
    <path d="M -632.33834 1732.93719 L -632.33834 1754.5366" />
    <path d="M -573.80525 1786.99359 L -632.33834 1732.93719" />
    <path d="M -573.80525 1808.593 L -573.80525 1786.99359" />
    <path d="M -573.80525 1808.593 L -568.65166 1813.35243" />
    <path d="M -568.65166 1791.75303 L -568.65166 1813.35243" />
    <path d="M -510.11856 1845.80942 L -568.65166 1791.75303" />
    <path d="M -510.11856 1867.40883 L -510.11856 1845.80942" />
    <path d="M -510.11856 1867.40883 L -504.96497 1872.16827" />
    <path d="M -504.96497 1850.56886 L -504.96497 1872.16827" />
    <path d="M -446.43188 1904.62526 L -504.96497 1850.56886" />
    <path d="M -446.43188 1926.22467 L -446.43188 1904.62526" />
    <path d="M -446.43188 1926.22467 L -441.27828 1930.9841" />
    <path d="M -441.27828 1909.3847 L -441.27828 1930.9841" />
    <path d="M -382.74519 1963.44109 L -441.27828 1909.3847" />
    <path d="M -382.74519 1985.0405 L -382.74519 1963.44109" />
    <path d="M -382.74519 1985.0405 L -377.5916 1989.79994" />
    <path d="M -377.5916 1968.20053 L -377.5916 1989.79994" />
    <path d="M -319.0585 2022.25693 L -377.5916 1968.20053" />
    <path d="M -319.0585 2043.85633 L -319.0585 2022.25693" />
    <path d="M -319.0585 2043.85633 L -313.90491 2048.61577" />
    <path d="M -313.90491 2027.01637 L -313.90491 2048.61577" />
    <path d="M -255.37182 2081.07276 L -313.90491 2027.01637" />
    <path d="M -255.37182 2102.67217 L -255.37182 2081.07276" />
    <path d="M -255.37182 2102.67217 L -250.21822 2107.43161" />
    <path d="M -250.21822 2085.8322 L -250.21822 2107.43161" />
    <path d="M -191.68513 2139.8886 L -250.21822 2085.8322" />
    <path d="M -191.68513 2161.488 L -191.68513 2139.8886" />
    <path d="M -191.68513 2161.488 L -186.53154 2166.24744" />
    <path d="M -186.53154 2144.64804 L -186.53154 2166.24744" />
    <path d="M -127.99844 2198.70443 L -186.53154 2144.64804" />
    <path d="M -127.99844 2220.30384 L -127.99844 2198.70443" />
    <path d="M -127.99844 2220.30384 L -122.84485 2225.06328" />
    <path d="M -64.31176 2279.11967 L -64.31176 2257.52027" />
    <path d="M -64.31176 2279.11967 L -59.15816 2283.87911" />
    <path d="M -0.62507 2337.93551 L 0.02437 2338.53528 L 2214.06772 1903.1442" />
    <path d="M 0.02437 2338.53528 L 0.02437 2700.39499" />
    <path d="M -2554.14696 -15.76601 L -2554.14696 341.57045" />
    <path d="M -2554.14696 -15.76601 L -2564.37035 -25.2075 L -2564.37035 -34.254 L -2518.97084 -1630.84128 L -2515.39095 -1688.23657 A 500 410.70635 132.72305 0 1 -2121.8764 -2157.68772 L -9.10427 -2870.74157 L -0.02437 -2872.52713" />
    <path d="M -2541.74481 -13.3589 L -2564.37035 -34.254" />
    <path d="M -2541.74481 -8.83565 L -2541.74481 -13.3589 L -2496.3453 -1609.94618 L -2518.97084 -1630.84128" />
    <path d="M -2541.74481 -8.83565 L -2365.26565 154.14612 L -2365.26565 149.62288 L -2319.86614 -1446.9644 L -2316.28626 -1504.3597 A 500 410.70635 132.72305 0 1 -1922.77171 -1973.81085 L -1907.68802 -1959.88078 L 205.08411 -2672.93463 L 214.16402 -2674.72019 L 214.16402 -2584.25526 L 207.12983 -2537.63952 L 205.08411 -2537.23724 L -1890.61782 -1828.61026 A 350 287.49444 312.72305 0 0 -2166.078 -1499.99445 L -2168.58392 -1459.81774 L -2213.98343 136.76954 L -2213.98343 145.81603 L -2337.06406 170.0198" />
    <path d="M -2350.18197 163.55294 L -2365.26565 149.62288" />
    <path d="M -2350.18197 168.07619 L -2350.18197 163.55294 L -2304.78245 -1433.03434 L -2301.20257 -1490.42963 L -2316.28626 -1504.3597" />
    <path d="M -2350.18197 168.07619 L -2173.7028 331.05796 L -2173.7028 326.53472 L -2128.30329 -1270.05256 L -2124.72341 -1327.44786 A 500 410.70635 132.72305 0 1 -1731.20886 -1796.89901 L -1716.12517 -1782.96894 L 396.64696 -2496.02279 L 405.72687 -2497.80835 L 405.72687 -2407.34342 L 399.24506 -2364.38832" />
    <path d="M -2158.61912 340.46478 L -2173.7028 326.53472" />
    <path d="M -2158.61912 344.98803 L -2158.61912 340.46478 L -2113.2196 -1256.1225 L -2109.63972 -1313.51779 L -2124.72341 -1327.44786" />
    <path d="M -2158.61912 344.98803 L -2053.53608 442.03416 L -2053.53608 437.51091 L -2008.13657 -1159.07637 L -1985.51104 -1138.18127" />
    <path d="M -2053.53608 437.51091 L -2030.91055 458.40601" />
    <path d="M -637.24563 -397.24743 L -795.69091 -366.08921" />
    <path d="M -1634.44891 -201.14765 L -1680.38243 -192.11484" />
    <path d="M -1832.1478 -162.27022 L -1878.08132 -153.2374" />
    <path d="M -2161.64596 -97.47449 L -2207.57947 -88.44167" />
    <path d="M -2359.34485 -58.59705 L -2405.27837 -49.56423" />
    <path d="M -2149.53921 343.20247 L -2053.3796 432.00766" />
    <path d="M -2341.10206 166.29063 L -2173.54632 321.03146" />
    <path d="M -2532.66491 -10.62121 L -2365.10917 144.11962" />
    <path d="M -642.39433 -391.54153 L -797.9321 -360.95507" />
    <path d="M -1634.58312 -196.42785 L -1680.51664 -187.39504" />
    <path d="M -1832.28201 -157.55041 L -1878.21553 -148.5176" />
    <path d="M -2161.78017 -92.75468 L -2207.71368 -83.72187" />
    <path d="M -2359.47906 -53.87725 L -2405.41258 -44.84443" />
    <path d="M -1894.30989 417.48087 L -1848.37637 408.44806" />
    <path d="M -1696.611 378.60344 L -1650.67748 369.57062" />
    <path d="M -1367.11285 313.80771 L -1321.17933 304.77489" />
    <path d="M -1169.41395 274.93027 L -1123.48044 265.89745" />
    <path d="M -839.9158 210.13454 L -793.98228 201.10172" />
    <path d="M -512.49323 145.74697 L -105.09147 65.63152" />
    <path d="M -1127.87068 1286.73228 L -1031.71107 1375.53747" />
    <path d="M -1319.43353 1109.82044 L -1151.87779 1264.56128" />
    <path d="M -1510.99638 932.9086 L -1343.44064 1087.64944" />
    <path d="M 238.41283 -2075.80062 L 238.41283 -2139.05438" />
    <path d="M 251.70905 -2063.52132 L 238.41283 -2075.80062" />
    <path d="M -109.89433 66.576 L -111.8898 64.73314 L -42.12337 -361.5765" />
    <path d="M -15.11307 -526.62367 L -14.65013 -529.45251" />
    <path d="M 12.34328 -694.39646 L 26.85249 -783.05535" />
    <path d="M 82.08241 -1120.53934 L 97.00114 -1211.70062" />
    <path d="M 123.9259 -1376.22507 L 138.10817 -1462.88622" />
    <path d="M 193.66503 -1802.36796 L 208.65241 -1893.94872" />
    <path d="M 235.50851 -2058.05369 L 238.41283 -2075.80062" />
    <path d="M -96.71164 73.37044 L -105.09147 65.63152" />
    <path d="M 510.8099 -2400.76222 L 533.43543 -2379.86712" />
    <path d="M 501.73 -2398.97666 L 524.35553 -2378.08156" />
    <path d="M 501.73 -2398.97666 L 510.8099 -2400.76222" />
    <path d="M -1611.04214 -1685.92281 L -1588.4166 -1665.02771" />
    <path d="M -1611.04214 -1685.92281 L 501.73 -2398.97666" />
    <path d="M -2004.55668 -1216.47166 L -1981.93115 -1195.57656" />
    <path d="M -2004.55668 -1216.47166 A 500 410.70635 132.72305 0 1 -1611.04214 -1685.92281" />
    <path d="M -2008.13657 -1159.07637 L -2004.55668 -1216.47166" />
    <path d="M -1522.99237 1293.86081 A 295.275 111.9211 258.87476 0 1 -1574.14762 1353.92856 A 295.275 111.9211 258.87476 0 1 -1739.252 1094.14104" />
    <path d="M -1683.26923 773.81144 A 295.275 111.9211 258.87476 0 1 -1662.26072 776.92429" />
    <path d="M -841.2161 641.74729 A 295.275 111.9211 78.87476 0 0 -851.93592 632.85197" />
    <path d="M -807.67737 682.72358 A 295.275 111.9211 78.87476 0 0 -841.2161 641.74729" />
    <path d="M 489.33275 544.06762 L 421.57 557.39315" />
    <path d="M -1510.99638 932.9086 L -1520.07628 934.69416" />
    <path d="M 1260.08136 -1132.27081 L 1260.08136 -1195.52456" />
    <path d="M 967.65825 654.58858 L 1202.84769 -782.5429" />
    <path d="M 1229.72069 -946.75108 L 1230.32094 -950.41891" />
    <path d="M 1257.17704 -1114.52387 L 1260.08136 -1132.27081" />
    <path d="M 1523.39853 -1455.44684 L 1532.47843 -1457.23241 L 1555.10396 -1436.33731" />
    <path d="M -589.37361 -742.393 L 1523.39853 -1455.44684 L 1546.02406 -1434.55175" />
    <path d="M -982.88815 -272.94185 A 500 410.70635 132.72305 0 1 -589.37361 -742.393 L -566.74807 -721.4979" />
    <path d="M -986.46804 -215.54655 L -982.88815 -272.94185 L -960.26262 -252.04675" />
    <path d="M 1509.68522 -1044.88132 L 1509.10599 -1041.04273" />
    <path d="M 1484.46831 -877.76825 L 1208.26104 952.66369" />
    <path d="M -827.64398 -221.43486 L -872.55519 1357.98023" />
    <path d="M -825.13805 -261.61157 L -827.64398 -221.43486" />
    <path d="M -549.67787 -590.22737 A 350 287.49444 312.72305 0 0 -825.13805 -261.61157" />
    <path d="M 1273.62699 -1200.05507 L -549.67787 -590.22737" />
    <path d="M 1282.7069 -1201.84064 L 1273.62699 -1200.05507" />
    <path d="M 1282.7069 -1123.14012 L 1282.7069 -1201.84064" />
    <path d="M 990.28379 675.48368 L 1230.41841 -791.86548" />
    <path d="M 1257.28837 -956.05509 L 1257.89165 -959.74149" />
    <path d="M 1049.89562 979.93076 L 1204.80133 949.46859" />
    <path d="M -1008.75372 1384.76364 L -963.84251 -194.65146" />
    <path d="M -1008.75372 1384.76364 L -872.55519 1357.98023" />
    <path d="M 549.03511 1072.58156 L -544.96552 1287.71651" />
    <path d="M -826.45458 1343.07127 L -872.3881 1352.10408" />
    <path d="M -1013.97016 1379.94616 L -1008.75372 1384.76364" />
    <path d="M -1013.97016 1379.94616 L -1014.45846 1380.04218" />
    <path d="M 558.21442 1136.34337 L -546.84043 1353.65213" />
    <path d="M -828.32948 1409.00688 L -955.92537 1434.09858" />
    <path d="M -955.92537 1455.69799 L -950.77178 1454.68453" />
    <path d="M 563.36801 1141.10281 L -547.0055 1359.45748" />
    <path d="M -828.49456 1414.81224 L -950.77178 1438.85802" />
    <path d="M 610.62684 1197.37628 L -548.88041 1425.39309" />
    <path d="M -830.36946 1480.74785 L -892.23868 1492.91441" />
    <path d="M -892.23868 1514.51382 L -887.08509 1513.50037" />
    <path d="M 610.62684 1203.14918 L -549.04548 1431.19845" />
    <path d="M -830.53454 1486.5532 L -887.08509 1497.67385" />
    <path d="M -828.0637 1551.63423 L -828.552 1551.73025" />
    <path d="M -832.27456 1547.74542 L -828.0637 1551.63423 L -828.552 1568.80641" />
    <path d="M 610.62684 1268.71609 L -550.92038 1497.13406" />
    <path d="M 610.62684 1274.48898 L -551.08546 1502.93942" />
    <path d="M -817.19087 1561.67548 L -703.03403 1539.22657" />
    <path d="M -822.9101 1556.39367 L -817.19087 1561.67548 L -772.27966 -17.73962 L -768.69977 -75.13491 A 500 410.70635 132.72305 0 1 -375.18522 -544.58606 L 1737.58691 -1257.63991 L 1746.66681 -1259.42547 L 1746.66681 -1168.96054 L 1739.63262 -1122.3448 L 1737.58691 -1121.94251 L -358.11502 -413.31553 A 350 287.49444 312.72305 0 0 -633.5752 -84.69973 L -634.10496 -76.20634" />
    <path d="M -822.9101 1556.39367 L -823.3984 1556.48969" />
    <path d="M 610.62684 1340.0559 L -552.96036 1568.87503" />
    <path d="M -704.72574 1598.71965 L -764.86531 1610.54608" />
    <path d="M -764.86531 1632.14549 L -759.71172 1631.13204" />
    <path d="M 610.62684 1345.82879 L -553.12544 1574.68038" />
    <path d="M -704.89082 1604.52501 L -759.71172 1615.30552" />
    <path d="M -700.69033 1669.2659 L -701.17862 1669.36192" />
    <path d="M -706.57715 1663.8293 L -700.69033 1669.2659 L -701.17862 1686.43808" />
    <path d="M 610.62684 1411.3957 L -555.00034 1640.616" />
    <path d="M 610.62684 1417.16859 L -555.16542 1646.42135" />
    <path d="M -691.49347 1677.75937 L -555.29493 1650.97596" />
    <path d="M -695.53673 1674.02534 L -691.49347 1677.75937 L -646.58225 98.34427 L -643.00236 40.94898 A 500 410.70635 132.72305 0 1 -249.48782 -428.50218 L 1863.28432 -1141.55602 L 1872.36422 -1143.34158 L 1872.36422 -1052.87665 L 1865.33003 -1006.26092 L 1863.28432 -1005.85863 L -232.41761 -297.23165 A 350 287.49444 312.72305 0 0 -507.8778 31.38416 L -510.38372 71.56086 L -555.29493 1650.97596" />
    <path d="M -695.53673 1674.02534 L -696.02503 1674.12136" />
    <path d="M 610.62684 1482.73551 L -637.49194 1728.17775" />
    <path d="M -637.49194 1749.77716 L -632.33834 1748.76371" />
    <path d="M 610.62684 1488.5084 L -632.33834 1732.93719" />
    <path d="M 610.62684 1554.07531 L -573.80525 1786.99359" />
    <path d="M -573.80525 1808.593 L -568.65166 1807.57954" />
    <path d="M 610.62684 1559.84821 L -568.65166 1791.75303" />
    <path d="M 610.62684 1625.41512 L -510.11856 1845.80942" />
    <path d="M -504.96497 1866.39538 L -510.11856 1867.40883" />
    <path d="M 610.62684 1631.18801 L -504.96497 1850.56886" />
    <path d="M 610.62684 1696.75493 L -446.43188 1904.62526" />
    <path d="M -446.43188 1926.22467 L -441.27828 1925.21121" />
    <path d="M 610.62684 1702.52782 L -441.27828 1909.3847" />
    <path d="M 610.62684 1768.09473 L -382.74519 1963.44109" />
    <path d="M -382.74519 1985.0405 L -377.5916 1984.02705" />
    <path d="M 610.62684 1773.86762 L -377.5916 1968.20053" />
    <path d="M 610.62684 1839.43454 L -319.0585 2022.25693" />
    <path d="M -319.0585 2043.85633 L -313.90491 2042.84288" />
    <path d="M 610.62684 1845.20743 L -313.90491 2027.01637" />
    <path d="M 649.02905 1903.22256 L -255.37182 2081.07276" />
    <path d="M -255.37182 2102.67217 L -250.21822 2101.65872" />
    <path d="M 654.18264 1907.982 L -250.21822 2085.8322" />
    <path d="M 712.71573 1962.03839 L -191.68513 2139.8886" />
    <path d="M -191.68513 2161.488 L -186.53154 2160.47455" />
    <path d="M 717.86933 1966.79783 L -186.53154 2144.64804" />
    <path d="M 776.40242 2020.85423 L -127.99844 2198.70443" />
    <path d="M -127.99844 2220.30384 L -122.84485 2219.29039" />
    <path d="M -64.31176 2279.11967 L -59.15816 2278.10622" />
    <path d="M 22.60117 -2761.1671 L 1.80483 -2623.34928" />
    <path d="M -2405.54628 -40.1423 L -2405.54628 -31.09581 L -2528.62691 -6.89204" />
    <path d="M -2360.14677 -1636.72959 L -2405.54628 -40.1423" />
    <path d="M -2357.64085 -1676.90629 L -2360.14677 -1636.72959" />
    <path d="M -2082.18067 -2005.5221 A 350 287.49444 312.72305 0 0 -2357.64085 -1676.90629" />
    <path d="M -258.8758 -2615.3498 L -2082.18067 -2005.5221" />
    <path d="M -249.7959 -2617.13536 L -258.8758 -2615.3498" />
    <path d="M -249.7959 -2538.43484 L -249.7959 -2617.13536" />
    <path d="M -590.81057 -442.891 L -567.73829 -583.87478" />
    <path d="M -512.76679 -919.77963 L -497.91367 -1010.54" />
    <path d="M -470.92331 -1175.46537 L -456.42858 -1264.03577" />
    <path d="M -401.18417 -1601.60825 L -386.26241 -1692.78811" />
    <path d="M -359.34069 -1857.29398 L -345.1729 -1943.86664" />
    <path d="M -289.60156 -2283.43687 L -274.61114 -2375.03621" />
    <path d="M 22.60117 -2851.63203 L 22.60117 -2761.1671" />
    <path d="M 13.52126 -2849.84647 L 22.60117 -2851.63203 L -0.02437 -2872.52713" />
    <path d="M -2099.25087 -2136.79262 L 13.52126 -2849.84647 L -9.10427 -2870.74157" />
    <path d="M -2492.76542 -1667.34147 A 500 410.70635 132.72305 0 1 -2099.25087 -2136.79262 L -2121.8764 -2157.68772" />
    <path d="M -2496.3453 -1609.94618 L -2492.76542 -1667.34147 L -2515.39095 -1688.23657" />
    <path d="M -2532.66491 -10.62121 L -2541.74481 -8.83565" />
    <path d="M -621.63178 -413.70614 L -595.74648 -571.87898" />
    <path d="M -540.33447 -910.47563 L -525.48439 -1001.21742" />
    <path d="M -498.49098 -1166.16136 L -483.98178 -1254.82025" />
    <path d="M -428.75185 -1592.30425 L -413.83313 -1683.46552" />
    <path d="M -386.90837 -1847.98998 L -372.7261 -1934.65112" />
    <path d="M -317.16924 -2274.13286 L -302.18186 -2365.71363" />
    <path d="M -275.32575 -2529.81859 L -272.42143 -2547.56553 L -272.42143 -2610.81929" />
    <path d="M -259.12521 -2535.28622 L -272.42143 -2547.56553" />
    <path d="M 190.00042 -2686.86469 L 199.08033 -2688.65025 L 214.16402 -2674.72019" />
    <path d="M -1922.77171 -1973.81085 L 190.00042 -2686.86469 L 205.08411 -2672.93463" />
    <path d="M -2304.78245 -1433.03434 L -2319.86614 -1446.9644" />
    <path d="M -2301.20257 -1490.42963 A 500 410.70635 132.72305 0 1 -1907.68802 -1959.88078" />
    <path d="M -2341.10206 166.29063 L -2350.18197 168.07619" />
    <path d="M 381.56327 -2509.95285 L 390.64318 -2511.73841 L 405.72687 -2497.80835" />
    <path d="M -1731.20886 -1796.89901 L 381.56327 -2509.95285 L 396.64696 -2496.02279" />
    <path d="M -2113.2196 -1256.1225 L -2128.30329 -1270.05256" />
    <path d="M -2127.54315 340.44712 L -2127.54315 343.4002 L -2145.50121 346.93164" />
    <path d="M -2050.34436 325.266 L -2127.54315 340.44712 A 295.275 111.9211 258.87476 0 1 -2089.80941 398.36405" />
    <path d="M -1699.05497 -1651.69842 A 350 287.49444 312.72305 0 0 -1970.95592 -1345.6627" />
    <path d="M -1680.40049 -1658.00612 L -1699.05497 -1651.69842" />
    <path d="M -2109.63972 -1313.51779 A 500 410.70635 132.72305 0 1 -1716.12517 -1782.96894" />
    <path d="M -2149.53921 343.20247 L -2158.61912 344.98803" />
    <path d="M 1211.66896 -1743.33488 L 1220.74886 -1745.12044 L 1235.83255 -1731.19037" />
    <path d="M -901.10318 -1030.28103 L 1211.66896 -1743.33488 L 1226.75264 -1729.40481" />
    <path d="M -1283.11392 -489.50452 L -1298.19761 -503.43459" />
    <path d="M -1279.53404 -546.89982 A 500 410.70635 132.72305 0 1 -886.01949 -1016.35097" />
    <path d="M -1319.43353 1109.82044 L -1328.51343 1111.606" />
    <path d="M 1403.2318 -1566.42304 L 1412.31171 -1568.2086 L 1427.3954 -1554.27853" />
    <path d="M -709.54033 -853.36919 L 1403.2318 -1566.42304 L 1418.31549 -1552.49297" />
    <path d="M -1091.55107 -312.59268 L -1106.63476 -326.52275" />
    <path d="M -1105.87462 1283.97694 L -1105.87462 1286.93001 L -1123.83268 1290.46146" />
    <path d="M -1028.67583 1268.79582 L -1105.87462 1283.97694 A 295.275 111.9211 258.87476 0 1 -1068.14088 1341.89386" />
    <path d="M -677.38644 -708.1686 A 350 287.49444 312.72305 0 0 -949.28739 -402.13289" />
    <path d="M -658.73196 -714.4763 L -677.38644 -708.1686" />
    <path d="M -1087.97119 -369.98798 A 500 410.70635 132.72305 0 1 -694.45664 -839.43913" />
    <path d="M -1127.87068 1286.73228 L -1136.95059 1288.51784" />
    <path d="M -832.27456 1547.74542 L -787.36335 -31.66968 L -783.78346 -89.06497 L -768.69977 -75.13491" />
    <path d="M -772.27966 -17.73962 L -787.36335 -31.66968" />
    <path d="M -706.57715 1663.8293 L -661.66594 84.4142 L -658.08605 27.01891 L -643.00236 40.94898" />
    <path d="M -646.58225 98.34427 L -661.66594 84.4142" />
    <path d="M 1273.37758 -1119.9915 L 1260.08136 -1132.27081" />
    <path d="M -752.71866 2005.22286 A 295.275 111.9211 258.87476 0 1 -803.8739 2065.2906 A 295.275 111.9211 258.87476 0 1 -968.97829 1805.50308" />
    <path d="M 1722.50322 -1271.56997 L 1731.58312 -1273.35553 L 1746.66681 -1259.42547" />
    <path d="M -390.26891 -558.51613 L 1722.50322 -1271.56997 L 1737.58691 -1257.63991" />
    <path d="M -783.78346 -89.06497 A 500 410.70635 132.72305 0 1 -390.26891 -558.51613 L -375.18522 -544.58606" />
    <path d="M 1848.20063 -1155.48609 L 1857.28053 -1157.27165 L 1872.36422 -1143.34158" />
    <path d="M -264.5715 -442.43224 L 1848.20063 -1155.48609 L 1863.28432 -1141.55602" />
    <path d="M -658.08605 27.01891 A 500 410.70635 132.72305 0 1 -264.5715 -442.43224 L -249.48782 -428.50218" />
    <path d="M -501.32384 2237.39063 A 295.275 111.9211 258.87476 0 1 -552.47909 2297.45837 A 295.275 111.9211 258.87476 0 1 -717.58347 2037.67085" />
    <path d="M -458.14402 2277.26799 A 295.275 111.9211 78.87476 0 0 -350.01421 2514.44971 A 295.275 111.9211 78.87476 0 0 -293.03964 2537.05551 A 295.275 111.9211 78.87476 0 0 -241.88439 2476.98776" />
    <path d="M 12.98359 2697.84656 A 295.275 111.9211 258.87476 0 1 -41.64482 2769.22328 A 295.275 111.9211 258.87476 0 1 -206.74921 2509.43576" />
    <path d="M 748.26127 2613.88844 A 295.275 111.9211 78.87476 0 0 802.88968 2542.51172" />
    <path d="M 1374.96892 2430.01248 A 295.275 111.9211 258.87476 0 1 1320.34051 2501.3892 A 295.275 111.9211 258.87476 0 1 1242.75262 2456.01278" />
    <path d="M 2110.2466 2346.05437 A 295.275 111.9211 78.87476 0 0 2164.87501 2274.67764" />
    <path d="M -2033.82664 822.0959 A 295.275 111.9211 258.87476 0 1 -2084.98188 882.16365 A 295.275 111.9211 258.87476 0 1 -2250.08627 622.37613" />
    <path d="M -2194.1035 302.04653 A 295.275 111.9211 258.87476 0 1 -2173.09499 305.15939" />
    <path d="M -1352.05036 169.98238 A 295.275 111.9211 78.87476 0 0 -1362.77018 161.08706" />
    <path d="M -1318.51163 210.95867 A 295.275 111.9211 78.87476 0 0 -1352.05036 169.98238" />
    <path d="M -1012.15811 1765.62572 A 295.275 111.9211 258.87476 0 1 -1063.31335 1825.69347 A 295.275 111.9211 258.87476 0 1 -1228.41774 1565.90595" />
    <path d="M -1172.43497 1245.57634 A 295.275 111.9211 258.87476 0 1 -1151.42646 1248.6892" />
    <path d="M -330.38183 1113.5122 A 295.275 111.9211 78.87476 0 0 -387.3564 1090.90639 L -540.22397 1120.96776" />
    <path d="M -257.83625 1231.25261 A 295.275 111.9211 78.87476 0 0 -330.38183 1113.5122" />
    <path d="M -1637.79693 -83.40635 A 295.275 111.9211 78.87476 0 0 -1660.41975 -84.79119 L -1683.56363 -80.23995" />
    <path d="M -2393.35127 93.14945 A 295.275 111.9211 258.87476 0 1 -2364.6219 126.98357" />
    <path d="M -2285.22146 589.92813 A 295.275 111.9211 258.87476 0 1 -2336.3767 649.99588 A 295.275 111.9211 258.87476 0 1 -2501.48108 390.20836" />
    <path d="M -2445.49831 69.87876 A 295.275 111.9211 258.87476 0 1 -2393.35127 93.14945" />
    <path d="M -1126.96266 388.35856 A 295.275 111.9211 78.87476 0 0 -1149.58548 386.97372 L -1172.72936 391.52495" />
    <path d="M -1882.517 564.91436 A 295.275 111.9211 258.87476 0 1 -1853.78763 598.74848" />
    <path d="M -1774.38719 1061.69304 A 295.275 111.9211 258.87476 0 1 -1825.54243 1121.76079 A 295.275 111.9211 258.87476 0 1 -1990.64682 861.97327" />
    <path d="M -1934.66405 541.64367 A 295.275 111.9211 258.87476 0 1 -1882.517 564.91436" />
    <path d="M -475.84437 1108.30753 A 295.275 111.9211 78.87476 0 0 -535.19254 944.02519" />
    <path d="M -1371.68274 1036.67926 A 295.275 111.9211 258.87476 0 1 -1342.95337 1070.51338" />
    <path d="M -1263.55293 1533.45795 A 295.275 111.9211 258.87476 0 1 -1314.70817 1593.5257 A 295.275 111.9211 258.87476 0 1 -1479.81255 1333.73818" />
    <path d="M -1423.82978 1013.40857 A 295.275 111.9211 258.87476 0 1 -1371.68274 1036.67926" />
    <path d="M 549.03511 906.76523 L 184.72284 978.40715" />
    <path d="M 549.03511 625.16074 L -66.67198 746.23938" />
    <path d="M 311.22734 381.30973 L -326.11143 506.64224" />
    <path d="M -117.49795 1067.47876 L -212.16229 1086.09448" />
    <path d="M 59.83252 149.14196 L -515.80864 262.34166" />
    <path d="M -199.60693 -90.45517 L -493.81486 -32.59926" />
    <path d="M -788.98746 25.44636 L -834.92098 34.47918" />
    <path d="M -474.97532 -317.90854 L -523.56847 -308.35271" />
    <path d="M -727.32131 -268.28477 L -825.93133 -248.89313" />
    <path d="M -1134.8484 665.68017 L -1180.78191 674.71298" />
    <path d="M -1332.54729 704.55761 L -1378.48081 713.59042" />
    <path d="M -1662.04544 769.35334 L -1683.52316 773.57693" />
    <path d="M -1479.48328 1335.31284 L -1574.14762 1353.92856" />
    <path d="M -457.81475 2278.84266 L -552.47909 2297.45837" />
    <path d="M 748.26127 2613.88844 L -41.64482 2769.22328" />
    <path d="M 2110.2466 2346.05437 L 1320.34051 2501.3892" />
    <path d="M -1645.68266 193.91526 L -1691.61618 202.94808" />
    <path d="M -1843.38155 232.7927 L -1889.31507 241.82551" />
    <path d="M -2172.87971 297.58843 L -2194.35743 301.81202" />
    <path d="M -1990.31754 863.54793 L -2084.98188 882.16365" />
    <path d="M -821.71302 1176.32251 L -867.64654 1185.35533" />
    <path d="M -1151.21118 1241.11824 L -1172.6889 1245.34183" />
    <path d="M -968.64901 1807.07775 L -1063.31335 1825.69347" />
    <path d="M -715.38593 2047.88947 L -803.8739 2065.2906" />
    <path d="M -204.55167 2519.65437 L -293.03964 2537.05551" />
    <path d="M -1835.329 -50.39533 L -1881.26252 -41.36252" />
    <path d="M -2164.82716 14.4004 L -2210.76067 23.43321" />
    <path d="M -2362.52605 53.27784 L -2445.75224 69.64425" />
    <path d="M -2247.88873 632.59475 L -2336.3767 649.99588" />
    <path d="M -1324.49474 421.36958 L -1370.42826 430.40239" />
    <path d="M -1653.99289 486.16531 L -1699.92641 495.19812" />
    <path d="M -1851.69178 525.04275 L -1934.91798 541.40916" />
    <path d="M -1737.05446 1104.35965 L -1825.54243 1121.76079" />
    <path d="M -813.66047 893.13448 L -859.59399 902.1673" />
    <path d="M -1143.15863 957.93021 L -1189.09214 966.96303" />
    <path d="M -1340.85752 996.80765 L -1424.08371 1013.17406" />
    <path d="M -1226.2202 1576.12456 L -1314.70817 1593.5257" />
</svg>