<svg version="1.1" xmlns="http://www.w3.org/2000/svg" viewBox="-2564.3135875989174 -2872.518245433152 4747.405739295302 5379.208434372117" fill="none" stroke="black" stroke-width="0.6%" vector-effect="non-scaling-stroke">
    <path d="M 993.63179 1987.88358 L 786.15076 2028.84505 L 786.15076 1293.62349 L 711.42614 1224.66658 L 711.42614 1959.88814 L 786.15076 2028.84505" />
    <path d="M 786.55439 1293.5438 L 786.15076 1293.62349" />
    <path d="M 993.63179 1987.88358 L 993.63179 1374.24392" />
    <path d="M 711.82977 1224.58689 L 711.42614 1224.66658" />
    <path d="M 711.42614 1936.37431 L 690.43607 1940.51822 L 690.43607 1205.29666 L 615.71145 1136.33975 L 615.71145 1871.56131 L 690.43607 1940.51822" />
    <path d="M 690.83971 1205.21697 L 690.43607 1205.29666" />
    <path d="M 616.11509 1136.26006 L 615.71145 1136.33975" />
    <path d="M 805.88142 1301.03296 L 796.64579 1302.85628 L 796.64579 728.60574 L 605.21642 551.95208 L 605.21642 1126.20262 L 796.64579 1302.85628" />
    <path d="M 1004.12682 687.64426 L 796.64579 728.60574" />
    <path d="M 1004.12682 701.15551 L 1004.12682 687.64426 L 850.51704 545.89105" />
    <path d="M 705.72134 532.11012 L 605.21642 551.95208" />
    <path d="M 1055.34257 1362.06081 L 847.86154 1403.02228 L 847.86154 779.0335 L 805.88142 740.29366 L 805.88142 1364.28244 L 847.86154 1403.02228" />
    <path d="M 1055.34257 738.07202 L 847.86154 779.0335" />
    <path d="M 1055.34257 1362.06081 L 1055.34257 738.07202 L 1013.36245 699.33219 L 805.88142 740.29366" />
    <path d="M 615.71145 1166.68798 L 595.98079 1170.58326 L 595.98079 546.59448 L 554.00067 507.85464 L 554.00067 1131.84342 L 595.98079 1170.58326" />
    <path d="M 699.31115 526.19471 L 595.98079 546.59448" />
    <path d="M 658.32128 487.25938 L 554.00067 507.85464" />
    <path d="M 951.02196 526.04909 L 743.54093 567.01056 L 743.54093 337.31034 L 658.32128 258.66848 L 658.32128 488.36869 L 743.54093 567.01056" />
    <path d="M 951.02196 296.34887 L 743.54093 337.31034" />
    <path d="M 951.02196 526.04909 L 951.02196 296.34887 L 865.80231 217.707 L 658.32128 258.66848" />
    <path d="M -1180.3322 92.82005 L -1226.67389 101.96895" />
    <path d="M -1387.5801 50.02625 L -1376.3785 60.36324" />
    <path d="M -1387.17646 -685.275 L -1387.5801 -685.19532 L -1387.5801 50.02625" />
    <path d="M -1349.73446 -650.27085 L -1387.5801 -685.19532" />
    <path d="M -1387.5801 26.51241 L -1408.57016 30.65633 L -1408.57016 -428.15009" />
    <path d="M -1421.28187 18.92579 L -1408.57016 30.65633" />
    <path d="M -1400.89926 -697.93859 L -1349.65942 -650.65377" />
    <path d="M -1302.36044 -788.15265 L -1302.36044 -995.66382" />
    <path d="M -1142.81968 -1266.45757 L -1210.76977 -1329.16285" />
    <path d="M -1306.48289 -1185.06041 L -1388.68433 -1260.91703" />
    <path d="M -1493.78981 -1173.36504 L -1493.78981 -966.27839" />
    <path d="M -1143.90782 -528.01061 L -1209.12778 -515.13471" />
    <path d="M -1043.66366 -715.59261 L -1043.66366 -880.8904" />
    <path d="M -1043.66366 -1051.40945 L -1043.66366 -1144.00731" />
    <path d="M -1251.14469 -872.29092 L -1251.14469 -1045.78219" />
    <path d="M -1293.12482 -1006.02023 L -1293.12482 -805.88955" />
    <path d="M -1503.02544 -946.9673 L -1503.02544 -1162.3306" />
    <path d="M -1440.68495 -1422.60252 L -1545.00556 -1402.00726 L -1545.00556 -1338.66311" />
    <path d="M -1507.89998 -1367.76572 L -1545.00556 -1402.00726" />
    <path d="M -1545.00556 -1099.67439 L -1545.00556 -808.38562" />
    <path d="M -1440.68495 -1421.4932 L -1432.50624 -1413.94577" />
    <path d="M -1147.98427 -1516.28521 L -1147.98427 -1592.98661" />
    <path d="M -1355.4653 -1446.12634 L -1355.4653 -1522.66816" />
    <path d="M -1430.69954 -1653.16477 L -1440.68495 -1651.19342 L -1440.68495 -1649.78692" />
    <path d="M -1439.56965 -1650.1642 L -1440.68495 -1651.19342" />
    <path d="M -1440.68495 -1493.78594 L -1440.68495 -1421.4932" />
    <path d="M -2540.64432 -2.32839 L -2563.31359 -23.24791 L -2563.31359 -32.29122 L -2517.93278 -1628.35232 L -2514.35437 -1685.73018 A 500 410.39293 132.70125 0 1 -2121.00198 -2155.31581 L -9.10047 -2869.7264 L -0.02431 -2871.51824" />
    <path d="M -2404.50191 -29.206 L -2540.64432 -2.32839 L -2540.64432 -11.37171 L -2495.26352 -1607.43281 L -2517.93278 -1628.35232" />
    <path d="M -2404.50191 -38.24932 L -2404.50191 -29.206" />
    <path d="M -2540.64432 -11.37171 L -2563.31359 -32.29122" />
    <path d="M -622.4674 -406.41507 L -596.41355 -565.64737" />
    <path d="M -567.1342 -744.59278 L -553.868 -825.67131" />
    <path d="M -526.86041 -990.73255 L -511.91785 -1082.05642" />
    <path d="M -484.93605 -1246.96002 L -469.96769 -1338.44152" />
    <path d="M -443.01168 -1503.18748 L -428.58028 -1591.38734" />
    <path d="M -399.43676 -1769.50264 L -386.06738 -1851.21173" />
    <path d="M -359.16296 -2015.64241 L -344.11723 -2107.59684" />
    <path d="M -317.2386 -2271.86988 L -302.16707 -2363.98195" />
    <path d="M -275.31424 -2528.09734 L -272.30913 -2546.46356 L -272.30913 -2609.62835" />
    <path d="M -2359.12111 -1634.31042 L -2404.50191 -38.24932" />
    <path d="M -2495.26352 -1607.43281 L -2491.6851 -1664.81067 L -2514.35437 -1685.73018" />
    <path d="M -2491.6851 -1664.81067 A 500 410.39293 132.70125 0 1 -2098.33271 -2134.3963 L -2121.00198 -2155.31581" />
    <path d="M -2098.33271 -2134.3963 L 13.5688 -2848.80689 L -9.10047 -2869.7264" />
    <path d="M 13.5688 -2848.80689 L 22.64496 -2850.59873 L -0.02431 -2871.51824" />
    <path d="M 22.64496 -2850.59873 L 22.64496 -2760.16558 L 1.77422 -2621.83037" />
    <path d="M -22.84519 -2458.64834 L -36.70732 -2366.76754" />
    <path d="M -61.35005 -2203.4309 L -75.18885 -2111.70471" />
    <path d="M -99.85491 -1948.21346 L -112.15536 -1866.68372" />
    <path d="M -139.04529 -1688.45227 L -152.15192 -1601.57905" />
    <path d="M -176.86463 -1437.77857 L -190.63345 -1346.51622" />
    <path d="M -215.36949 -1182.56113 L -229.11499 -1091.45339" />
    <path d="M -253.87435 -927.34368 L -266.0815 -846.4324" />
    <path d="M -292.52704 -671.14639 L -306.07805 -581.32773" />
    <path d="M -591.90957 -433.70778 L -568.27528 -578.15253" />
    <path d="M -539.51324 -753.93636 L -526.24399 -835.0335" />
    <path d="M -499.23944 -1000.07613 L -484.29384 -1091.41861" />
    <path d="M -457.31508 -1256.30359 L -442.34368 -1347.80372" />
    <path d="M -415.39072 -1512.53106 L -400.97382 -1600.64225" />
    <path d="M -371.81579 -1778.84622 L -358.44337 -1860.57393" />
    <path d="M -331.542 -2024.98599 L -316.49322 -2116.95903" />
    <path d="M -289.61764 -2281.21345 L -274.54306 -2373.34414" />
    <path d="M -249.63986 -2536.78243 L -249.63986 -2615.97721 L -258.71602 -2614.18537 L -2081.26955 -2003.18486 A 350 287.27505 312.70125 0 0 -2356.61622 -1674.47492 L -2359.12111 -1634.31042" />
    <path d="M -621.2564 -405.29754 L -622.4674 -406.41507" />
    <path d="M -258.55148 -2533.76782 L -272.30913 -2546.46356" />
    <path d="M -1964.84493 529.02721 L -1979.95777 515.08087 L -1979.95777 506.03755 L -1934.57697 -1090.02355 L -1930.99856 -1147.40141 A 500 410.39293 132.70125 0 1 -1537.64617 -1616.98704 L 574.25534 -2331.39763 L 583.3315 -2333.18947" />
    <path d="M -1828.70252 502.1496 L -1964.84493 529.02721 L -1964.84493 519.98389 L -1919.46413 -1076.07721 L -1915.88572 -1133.45507 L -1930.99856 -1147.40141" />
    <path d="M -1828.70252 493.10629 L -1828.70252 502.1496" />
    <path d="M -1964.84493 519.98389 L -1979.95777 506.03755" />
    <path d="M -1783.32172 -1102.95482 L -1828.70252 493.10629" />
    <path d="M -1919.46413 -1076.07721 L -1934.57697 -1090.02355" />
    <path d="M -1915.88572 -1133.45507 A 500 410.39293 132.70125 0 1 -1522.53332 -1603.04069 L -1537.64617 -1616.98704" />
    <path d="M -1522.53332 -1603.04069 L 589.36819 -2317.45129 L 574.25534 -2331.39763" />
    <path d="M 589.36819 -2317.45129 L 598.44435 -2319.24313 L 583.3315 -2333.18947" />
    <path d="M 598.44435 -2319.24313 L 598.44435 -2228.80997 L 591.41306 -2182.20526 L 589.36819 -2181.80156 L -1505.47016 -1471.82926 A 350 287.27505 312.70125 0 0 -1780.81683 -1143.11932 L -1783.32172 -1102.95482" />
    <path d="M -1379.00338 152.68147 A 295.275 112.09806 78.83212 0 0 -1407.76561 149.14095 L -1425.08147 152.55949" />
    <path d="M -2020.63565 322.07903 L -2125.7149 342.82407 L -2125.7149 345.7761 L -2156.77806 351.90867 L -2156.77806 342.86536 L -2111.39726 -1253.19574 L -2107.81884 -1310.5736 A 500 410.39293 132.70125 0 1 -1714.46645 -1780.15923 L 397.43506 -2494.56982 L 406.51122 -2496.36166 L 406.51122 -2405.92851 L 399.47993 -2359.32379 L 397.43506 -2358.92009 L -1697.40329 -1648.94779 A 350 287.27505 312.70125 0 0 -1972.74996 -1320.23785 L -1975.25485 -1280.07335 L -2020.63565 315.98775 L -2020.63565 322.07903 Z" />
    <path d="M -2125.7149 342.82407 A 295.275 112.09806 258.83212 0 1 -2082.96593 884.3894 A 295.275 112.09806 258.83212 0 1 -2197.3462 305.02211 A 295.275 112.09806 258.83212 0 1 -2171.28222 307.51116" />
    <path d="M 382.32221 -2508.51617 L 391.39837 -2510.30801 L 406.51122 -2496.36166" />
    <path d="M -1729.5793 -1794.10557 L 382.32221 -2508.51617 L 397.43506 -2494.56982" />
    <path d="M -2122.93169 -1324.51994 A 500 410.39293 132.70125 0 1 -1729.5793 -1794.10557 L -1714.46645 -1780.15923" />
    <path d="M -2126.5101 -1267.14208 L -2122.93169 -1324.51994 L -2107.81884 -1310.5736" />
    <path d="M -2171.8909 328.91902 L -2126.5101 -1267.14208 L -2111.39726 -1253.19574" />
    <path d="M -2171.8909 337.96233 L -2171.8909 328.91902 L -2156.77806 342.86536" />
    <path d="M -2171.8909 337.96233 L -2156.77806 351.90867" />
    <path d="M -2348.71119 174.79014 L -2363.82403 160.8438 L -2363.82403 151.80048 L -2318.44323 -1444.26062 L -2314.86482 -1501.63848 A 500 410.39293 132.70125 0 1 -1921.51243 -1971.2241 L 190.38908 -2685.6347 L 199.46524 -2687.42654" />
    <path d="M -2212.56878 147.91253 L -2348.71119 174.79014 L -2348.71119 165.74682 L -2303.33039 -1430.31428 L -2318.44323 -1444.26062" />
    <path d="M -2212.56878 138.86922 L -2212.56878 147.91253" />
    <path d="M -2348.71119 165.74682 L -2363.82403 151.80048" />
    <path d="M -2303.33039 -1430.31428 L -2299.75197 -1487.69214 L -2314.86482 -1501.63848" />
    <path d="M -2299.75197 -1487.69214 A 500 410.39293 132.70125 0 1 -1906.39958 -1957.27776 L -1921.51243 -1971.2241" />
    <path d="M -1906.39958 -1957.27776 L 205.50193 -2671.68836 L 190.38908 -2685.6347" />
    <path d="M 205.50193 -2671.68836 L 214.57809 -2673.4802 L 199.46524 -2687.42654" />
    <path d="M 214.57809 -2673.4802 L 214.57809 -2583.04704 L 207.5468 -2536.44233 L 205.50193 -2536.03862 L -1889.33642 -1826.06632 A 350 287.27505 312.70125 0 0 -2164.68309 -1497.35638 L -2167.18798 -1457.19188 L -2212.56878 138.86922" />
    <path d="M -1005.17928 1414.61988 L -1027.84855 1393.70037 L -1027.84855 1384.65705 L -982.46775 -211.40405 L -978.88933 -268.78191 A 500 410.39293 132.70125 0 1 -585.53694 -738.36754 L 1526.36457 -1452.77813 L 1535.44073 -1454.56997" />
    <path d="M -869.03687 1387.74227 L -1005.17928 1414.61988 L -1005.17928 1405.57656 L -959.79848 -190.48454 L -982.46775 -211.40405" />
    <path d="M -869.03687 1378.69896 L -869.03687 1387.74227" />
    <path d="M -1005.17928 1405.57656 L -1027.84855 1384.65705" />
    <path d="M 970.8533 656.939 L 1205.77162 -778.80198" />
    <path d="M 1232.64138 -943.02081 L 1233.29797 -947.03367" />
    <path d="M 1260.1508 -1111.14907 L 1263.15591 -1129.51529 L 1263.15591 -1192.68008" />
    <path d="M -823.65607 -217.36214 L -869.03687 1378.69896" />
    <path d="M -959.79848 -190.48454 L -956.22007 -247.8624 L -978.88933 -268.78191" />
    <path d="M -956.22007 -247.8624 A 500 410.39293 132.70125 0 1 -562.86768 -717.44802 L -585.53694 -738.36754" />
    <path d="M -562.86768 -717.44802 L 1549.03384 -1431.85862 L 1526.36457 -1452.77813" />
    <path d="M 1549.03384 -1431.85862 L 1558.11 -1433.65046 L 1535.44073 -1454.56997" />
    <path d="M 1558.11 -1433.65046 L 1558.11 -1343.2173 L 1537.23925 -1204.8821" />
    <path d="M 1512.61985 -1041.70007 L 1511.9889 -1037.51804" />
    <path d="M 1487.35419 -874.23456 L 1207.95172 977.6975 L 1055.34257 1007.82602" />
    <path d="M 993.52257 677.85852 L 1233.39563 -788.16417" />
    <path d="M 1260.26234 -952.36438 L 1260.92198 -956.39587" />
    <path d="M 1285.82518 -1119.83415 L 1285.82518 -1199.02893 L 1276.74902 -1197.23709 L -545.80451 -586.23659 A 350 287.27505 312.70125 0 0 -821.15118 -257.52665 L -823.65607 -217.36214" />
    <path d="M 1276.91356 -1116.81955 L 1263.15591 -1129.51529" />
    <path d="M -687.30578 1707.95792 L -702.41862 1694.01158 L -702.41862 1684.96827 L -657.03782 88.90717 L -653.45941 31.52931 A 500 410.39293 132.70125 0 1 -260.10702 -438.05632 L 1851.7945 -1152.46692 L 1860.87066 -1154.25876" />
    <path d="M -551.16337 1681.08032 L -687.30578 1707.95792 L -687.30578 1698.91461 L -641.92497 102.85351 L -657.03782 88.90717" />
    <path d="M -551.16337 1672.037 L -551.16337 1681.08032" />
    <path d="M -687.30578 1698.91461 L -702.41862 1684.96827" />
    <path d="M -505.78257 75.9759 L -551.16337 1672.037" />
    <path d="M -641.92497 102.85351 L -638.34656 45.47565 L -653.45941 31.52931" />
    <path d="M -638.34656 45.47565 A 500 410.39293 132.70125 0 1 -244.99417 -424.10998 L -260.10702 -438.05632" />
    <path d="M -244.99417 -424.10998 L 1866.90734 -1138.52058 L 1851.7945 -1152.46692" />
    <path d="M 1866.90734 -1138.52058 L 1875.9835 -1140.31242 L 1860.87066 -1154.25876" />
    <path d="M 1875.9835 -1140.31242 L 1875.9835 -1049.87926 L 1868.95221 -1003.27454 L 1866.90734 -1002.87084 L -227.931 -292.89854 A 350 287.27505 312.70125 0 0 -503.27768 35.8114 L -505.78257 75.9759" />
    <path d="M -813.24615 1591.73841 L -828.359 1577.79207 L -828.359 1568.74876 L -782.97819 -27.31235 L -779.39978 -84.6902 A 500 410.39293 132.70125 0 1 -386.04739 -554.27583 L 1725.85412 -1268.68643 L 1734.93028 -1270.47827" />
    <path d="M -699.12723 1569.20874 L -813.24615 1591.73841 L -813.24615 1582.6951 L -767.86535 -13.366 L -782.97819 -27.31235" />
    <path d="M -813.24615 1582.6951 L -828.359 1568.74876" />
    <path d="M -767.86535 -13.366 L -764.28694 -70.74386 L -779.39978 -84.6902" />
    <path d="M -764.28694 -70.74386 A 500 410.39293 132.70125 0 1 -370.93455 -540.32949 L -386.04739 -554.27583" />
    <path d="M -370.93455 -540.32949 L 1740.96697 -1254.74009 L 1725.85412 -1268.68643" />
    <path d="M 1740.96697 -1254.74009 L 1750.04313 -1256.53193 L 1734.93028 -1270.47827" />
    <path d="M 1750.04313 -1256.53193 L 1750.04313 -1166.09877 L 1743.01184 -1119.49405 L 1740.96697 -1119.09035 L -353.87138 -409.11805 A 350 287.27505 312.70125 0 0 -629.21805 -80.40811 L -629.82396 -70.69274" />
    <path d="M -1772.9118 706.14574 L -1795.58107 685.22623 L -1795.58107 676.18292 L -1750.20026 -919.87819 L -1746.62185 -977.25605 A 500 410.39293 132.70125 0 1 -1353.26946 -1446.84167 L 758.63205 -2161.25227 L 767.70821 -2163.04411" />
    <path d="M -1636.76939 679.26814 L -1772.9118 706.14574 L -1772.9118 697.10243 L -1727.531 -898.95867 L -1750.20026 -919.87819" />
    <path d="M -1636.76939 670.22482 L -1636.76939 679.26814" />
    <path d="M -1772.9118 697.10243 L -1795.58107 676.18292" />
    <path d="M 145.26512 302.05907 L 270.23848 -461.73569" />
    <path d="M 297.21141 -626.58509 L 297.76483 -629.96739" />
    <path d="M 324.72083 -794.71335 L 339.15224 -882.91321" />
    <path d="M 368.29576 -1061.02851 L 381.66514 -1142.7376" />
    <path d="M 408.56956 -1307.16827 L 423.61529 -1399.1227" />
    <path d="M 450.49392 -1563.39574 L 465.56545 -1655.50781" />
    <path d="M 492.41828 -1819.6232 L 495.42339 -1837.98942 L 495.42339 -1901.15422" />
    <path d="M -1591.38859 -925.83628 L -1636.76939 670.22482" />
    <path d="M -1727.531 -898.95867 L -1723.95259 -956.33653 L -1746.62185 -977.25605" />
    <path d="M -1723.95259 -956.33653 A 500 410.39293 132.70125 0 1 -1330.60019 -1425.92216 L -1353.26946 -1446.84167" />
    <path d="M -1330.60019 -1425.92216 L 781.30132 -2140.33276 L 758.63205 -2161.25227" />
    <path d="M 781.30132 -2140.33276 L 790.37748 -2142.1246 L 767.70821 -2163.04411" />
    <path d="M 790.37748 -2142.1246 L 790.37748 -2051.69144 L 769.50674 -1913.35623" />
    <path d="M 744.88733 -1750.17421 L 731.0252 -1658.2934" />
    <path d="M 706.38247 -1494.95676 L 692.54367 -1403.23057" />
    <path d="M 667.87761 -1239.73932 L 655.57716 -1158.20959" />
    <path d="M 628.68723 -979.97813 L 615.5806 -893.10491" />
    <path d="M 590.86789 -729.30443 L 590.33025 -725.74085" />
    <path d="M 565.60224 -561.83892 L 440.2192 269.22337 L 167.93438 322.97858 L 145.26512 302.05907" />
    <path d="M 167.93438 322.97858 L 297.86249 -471.09788" />
    <path d="M 324.83237 -635.92866 L 325.38884 -639.32958" />
    <path d="M 352.3418 -804.05692 L 366.7587 -892.16811" />
    <path d="M 395.91673 -1070.37208 L 409.28915 -1152.09979" />
    <path d="M 436.19052 -1316.51185 L 451.2393 -1408.4849" />
    <path d="M 478.11488 -1572.73931 L 493.18946 -1664.87" />
    <path d="M 518.09266 -1828.30829 L 518.09266 -1907.50307 L 509.0165 -1905.71123 L -1313.53703 -1294.71072 A 350 287.27505 312.70125 0 0 -1588.8837 -966.00078 L -1591.38859 -925.83628" />
    <path d="M 509.18104 -1825.29368 L 495.42339 -1837.98942" />
    <path d="M -1197.11241 1237.50134 L -1212.22526 1223.555 L -1212.22526 1214.51169 L -1166.84445 -381.54941 L -1163.26604 -438.92727 A 500 410.39293 132.70125 0 1 -769.91365 -908.5129 L 1341.98786 -1622.9235 L 1351.06402 -1624.71534" />
    <path d="M -1060.97 1210.62374 L -1197.11241 1237.50134 L -1197.11241 1228.45803 L -1151.73161 -367.60307 L -1166.84445 -381.54941" />
    <path d="M -1060.97 1201.58042 L -1060.97 1210.62374" />
    <path d="M -1197.11241 1228.45803 L -1212.22526 1214.51169" />
    <path d="M -1015.5892 -394.48068 L -1060.97 1201.58042" />
    <path d="M -1151.73161 -367.60307 L -1148.1532 -424.98093 L -1163.26604 -438.92727" />
    <path d="M -1148.1532 -424.98093 A 500 410.39293 132.70125 0 1 -754.80081 -894.56656 L -769.91365 -908.5129" />
    <path d="M -754.80081 -894.56656 L 1357.10071 -1608.97715 L 1341.98786 -1622.9235" />
    <path d="M 1357.10071 -1608.97715 L 1366.17687 -1610.76899 L 1351.06402 -1624.71534" />
    <path d="M 1366.17687 -1610.76899 L 1366.17687 -1520.33584 L 1359.14558 -1473.73112 L 1357.10071 -1473.32742 L -737.73764 -763.35512 A 350 287.27505 312.70125 0 0 -1013.08431 -434.64518 L -1015.5892 -394.48068" />
    <path d="M -1389.04554 1060.38281 L -1404.15839 1046.43647 L -1404.15839 1037.39315 L -1358.77758 -558.66795 L -1355.19917 -616.04581 L -1340.08633 -602.09947 A 500 410.39293 132.70125 0 1 -946.73394 -1071.68509 L 1165.16758 -1786.09569 L 1174.24374 -1787.88753 L 1174.24374 -1697.45437 L 1167.21245 -1650.84966 L 1165.16758 -1650.44595 L -929.67077 -940.47365 A 350 287.27505 312.70125 0 0 -1205.01744 -611.76371 L -1207.52233 -571.59921 L -1252.90313 1024.46189 L -1252.90313 1029.67836 L -1357.98238 1050.42339 A 295.275 112.09806 258.83212 0 1 -1311.20331 1596.58256 A 295.275 112.09806 258.83212 0 1 -1425.58359 1017.21527 A 295.275 112.09806 258.83212 0 1 -1403.61765 1018.3751" />
    <path d="M -1357.98238 1054.25024 L -1389.04554 1060.38281 L -1389.04554 1051.3395 L -1343.66474 -544.72161 L -1340.08633 -602.09947" />
    <path d="M -1357.98238 1050.42339 L -1357.98238 1054.25024" />
    <path d="M -1389.04554 1051.3395 L -1404.15839 1037.39315" />
    <path d="M 1150.05473 -1800.04203 L 1159.13089 -1801.83387 L 1174.24374 -1787.88753" />
    <path d="M -961.84678 -1085.63143 L 1150.05473 -1800.04203 L 1165.16758 -1786.09569" />
    <path d="M -1355.19917 -616.04581 A 500 410.39293 132.70125 0 1 -961.84678 -1085.63143 L -946.73394 -1071.68509" />
    <path d="M -472.62633 1111.24585 A 295.275 112.09806 78.83212 0 0 -530.61874 949.47424" />
    <path d="M -1343.66474 -544.72161 L -1358.77758 -558.66795" />
    <path d="M -1580.97867 883.26428 L -1596.09152 869.31794 L -1596.09152 860.27462 L -1550.71071 -735.78648 L -1547.1323 -793.16434 A 500 410.39293 132.70125 0 1 -1153.77991 -1262.74997 L 958.1216 -1977.16056 L 967.19776 -1978.9524" />
    <path d="M -1444.83626 856.38667 L -1580.97867 883.26428 L -1580.97867 874.22096 L -1535.59787 -721.84014 L -1550.71071 -735.78648" />
    <path d="M -1444.83626 847.34335 L -1444.83626 856.38667" />
    <path d="M -1580.97867 874.22096 L -1596.09152 860.27462" />
    <path d="M -1399.45546 -748.71775 L -1444.83626 847.34335" />
    <path d="M -1535.59787 -721.84014 L -1532.01946 -779.218 L -1547.1323 -793.16434" />
    <path d="M -1532.01946 -779.218 A 500 410.39293 132.70125 0 1 -1138.66706 -1248.80363 L -1153.77991 -1262.74997" />
    <path d="M -1138.66706 -1248.80363 L 973.23445 -1963.21422 L 958.1216 -1977.16056" />
    <path d="M 973.23445 -1963.21422 L 982.31061 -1965.00606 L 967.19776 -1978.9524" />
    <path d="M 982.31061 -1965.00606 L 982.31061 -1874.57291 L 975.27932 -1827.96819 L 973.23445 -1827.56449 L -1121.6039 -1117.59219 A 350 287.27505 312.70125 0 0 -1396.95057 -788.88225 L -1399.45546 -748.71775" />
    <path d="M 1806.25459 1559.84736 A 295.275 112.09806 78.83212 0 0 1749.06445 1537.19022 L 993.63179 1686.3298" />
    <path d="M 1912.44112 1787.10196 A 295.275 112.09806 78.83212 0 0 1806.25459 1559.84736" />
    <path d="M 1016.674 1715.72852 A 295.275 112.09806 258.83212 0 1 1073.86414 2272.43867 A 295.275 112.09806 258.83212 0 1 906.80896 2005.02438" />
    <path d="M 993.63179 1699.11893 A 295.275 112.09806 258.83212 0 1 1016.674 1715.72852" />
    <path d="M 2058.13534 1792.28638 A 295.275 112.09806 78.83212 0 0 2000.9452 1769.62924 L 1211.36461 1925.5104 A 295.275 112.09806 258.83212 0 1 1268.55475 1948.16754 A 295.275 112.09806 258.83212 0 1 1325.74488 2504.87769 A 295.275 112.09806 258.83212 0 1 1211.36461 1925.5104" />
    <path d="M 2115.32548 2348.99653 A 295.275 112.09806 78.83212 0 0 2058.13534 1792.28638" />
    <path d="M -1602.45622 -60.64093 A 295.275 112.09806 78.83212 0 0 -1615.68495 -71.32361" />
    <path d="M -1570.98179 -22.84455 A 295.275 112.09806 78.83212 0 0 -1602.45622 -60.64093" />
    <path d="M -2392.03681 95.24023 A 295.275 112.09806 258.83212 0 1 -2363.18155 129.20394" />
    <path d="M -2337.60285 172.5971 A 295.275 112.09806 258.83212 0 1 -2334.84667 651.95037 A 295.275 112.09806 258.83212 0 1 -2449.22695 72.58309 A 295.275 112.09806 258.83212 0 1 -2392.03681 95.24023" />
    <path d="M 10.84862 -96.97798 A 295.275 112.09806 78.83212 0 0 -46.34152 -119.63512 L -487.82663 -32.47592" />
    <path d="M 118.90775 138.93623 A 295.275 112.09806 78.83212 0 0 10.84862 -96.97798" />
    <path d="M -799.94567 569.44048 A 295.275 112.09806 258.83212 0 1 -843.85492 493.03953" />
    <path d="M -830.84733 35.55729 A 295.275 112.09806 258.83212 0 1 -785.26861 53.24261" />
    <path d="M -134.8456 -102.1624 A 295.275 112.09806 78.83212 0 0 -213.75678 -297.7024" />
    <path d="M -1022.11224 -165.06287 A 295.275 112.09806 258.83212 0 1 -985.26082 -113.17061" />
    <path d="M -999.30449 380.7512 A 295.275 112.09806 258.83212 0 1 -1036.88184 354.39021" />
    <path d="M -838.75379 644.11418 A 295.275 112.09806 78.83212 0 0 -847.93048 636.37855" />
    <path d="M -803.31559 687.96219 A 295.275 112.09806 78.83212 0 0 -838.75379 644.11418" />
    <path d="M -1628.33438 799.99534 A 295.275 112.09806 258.83212 0 1 -1595.50989 839.81862" />
    <path d="M -1571.84645 881.46137 A 295.275 112.09806 258.83212 0 1 -1571.14425 1356.70549 A 295.275 112.09806 258.83212 0 1 -1685.52452 777.3382 A 295.275 112.09806 258.83212 0 1 -1628.33438 799.99534" />
    <path d="M -1004.57025 565.95004 A 295.275 112.09806 78.83212 0 0 -1040.47605 480.79984" />
    <path d="M -1880.21513 567.55632 A 295.275 112.09806 258.83212 0 1 -1823.02499 1124.26647 A 295.275 112.09806 258.83212 0 1 -1937.40527 544.89918 A 295.275 112.09806 258.83212 0 1 -1880.21513 567.55632 Z" />
    <path d="M 522.6703 375.33811 A 295.275 112.09806 78.83212 0 0 465.48016 352.68097 L -324.10043 508.56213 A 295.275 112.09806 258.83212 0 1 -266.91029 531.21927 A 295.275 112.09806 258.83212 0 1 -209.72015 1087.92942 A 295.275 112.09806 258.83212 0 1 -324.10043 508.56213" />
    <path d="M 597.76486 499.21459 A 295.275 112.09806 78.83212 0 0 522.6703 375.33811" />
    <path d="M 376.97608 370.15369 A 295.275 112.09806 78.83212 0 0 353.16535 286.40978" />
    <path d="M -512.29834 305.13835 A 295.275 112.09806 258.83212 0 1 -461.6009 855.4904 A 295.275 112.09806 258.83212 0 1 -527.06817 824.59904" />
    <path d="M -326.93211 1116.43027 A 295.275 112.09806 78.83212 0 0 -384.12225 1093.77313 L -535.57173 1123.6727" />
    <path d="M -269.74197 1673.14042 A 295.275 112.09806 78.83212 0 0 -326.93211 1116.43027" />
    <path d="M -1116.5127 1272.31143 A 295.275 112.09806 258.83212 0 1 -1059.32257 1829.02158 A 295.275 112.09806 258.83212 0 1 -1173.70284 1249.65429 A 295.275 112.09806 258.83212 0 1 -1116.5127 1272.31143 Z" />
    <path d="M 1091.68212 1404.36435 A 295.275 112.09806 78.83212 0 0 1118.33972 995.38895" />
    <path d="M 244.91139 1003.53536 A 295.275 112.09806 258.83212 0 1 302.10152 1560.24551 A 295.275 112.09806 258.83212 0 1 187.72125 980.87822 A 295.275 112.09806 258.83212 0 1 244.91139 1003.53536 Z" />
    <path d="M -6.96936 771.09634 A 295.275 112.09806 258.83212 0 1 50.22078 1327.80649 A 295.275 112.09806 258.83212 0 1 -64.1595 748.4392 A 295.275 112.09806 258.83212 0 1 -6.96936 771.09634 Z" />
    <path d="M -1576.82081 182.51629 L -1623.16251 191.66519" />
    <path d="M -1782.70031 223.16158 L -1821.24354 230.77089" />
    <path d="M -1972.98288 260.72769 L -2019.32457 269.87659" />
    <path d="M -2171.06391 299.83339 L -2197.3462 305.02211" />
    <path d="M -1988.27426 865.69511 L -2082.96593 884.3894" />
    <path d="M -809.21738 895.53056 L -855.55908 904.67947" />
    <path d="M -1015.09688 936.17586 L -1053.64011 943.78517" />
    <path d="M -1205.37945 973.74196 L -1251.72114 982.89087" />
    <path d="M -1403.46048 1012.84766 L -1425.58359 1017.21527" />
    <path d="M -1222.69923 1579.10984 L -1311.20331 1596.58256" />
    <path d="M 1162.36822 2254.96595 L 1073.86414 2272.43867" />
    <path d="M 2115.32548 2348.99653 L 1325.74488 2504.87769" />
    <path d="M -1774.6322 -60.59726 L -1813.17542 -52.98795" />
    <path d="M -1964.91477 -23.03115 L -2011.25646 -13.88225" />
    <path d="M -2162.9958 16.07455 L -2209.33749 25.22345" />
    <path d="M -2361.07683 55.18025 L -2449.22695 72.58309" />
    <path d="M -2246.34259 634.47766 L -2334.84667 651.95037" />
    <path d="M -784.49668 26.09349 L -830.83837 35.24239" />
    <path d="M -463.88073 -319.3694 L -513.95745 -309.48311" />
    <path d="M -720.43918 -268.71892 L -821.69993 -248.72775" />
    <path d="M -982.11512 -217.05814 L -1020.85129 -209.41074" />
    <path d="M -1006.77059 643.33674 L -1045.31382 650.94605" />
    <path d="M -1197.05316 680.90284 L -1243.39485 690.05175" />
    <path d="M -1395.13419 720.00854 L -1441.47588 729.15745" />
    <path d="M -1593.21522 759.11424 L -1685.52452 777.3382" />
    <path d="M -1476.45258 1338.0112 L -1571.14425 1356.70549" />
    <path d="M -1188.98504 397.14401 L -1235.32673 406.29291" />
    <path d="M -1387.06607 436.24971 L -1433.40777 445.39861" />
    <path d="M -1585.14711 475.35541 L -1631.4888 484.50431" />
    <path d="M -1791.02661 516.0007 L -1937.40527 544.89918" />
    <path d="M -1734.52091 1106.79375 L -1823.02499 1124.26647" />
    <path d="M -115.02849 1069.23513 L -209.72015 1087.92942" />
    <path d="M 173.72633 128.1138 L -511.1092 263.3159" />
    <path d="M -373.09682 838.01768 L -461.6009 855.4904" />
    <path d="M -817.2855 1179.2894 L -863.62719 1188.4383" />
    <path d="M -1023.165 1219.9347 L -1173.70284 1249.65429" />
    <path d="M -269.74197 1673.14042 L -1059.32257 1829.02158" />
    <path d="M 554.00067 908.56633 L 187.72125 980.87822" />
    <path d="M 1091.68212 1404.36435 L 993.63179 1423.72171" />
    <path d="M 615.71145 1498.33178 L 302.10152 1560.24551" />
    <path d="M 554.00067 626.40033 L -64.1595 748.4392" />
    <path d="M 138.72486 1310.33377 L 50.22078 1327.80649" />
</svg>