<svg version="1.1" xmlns="http://www.w3.org/2000/svg" viewBox="-2307.1812833809377 -589.5008159821217 4614.362566761876 1156.2487090154868" fill="none" stroke="black" stroke-width="0.6%" vector-effect="non-scaling-stroke">
    <path d="M 0.03094 0.31886 L 0.03094 399.08629 L 2306.18128 336.9491" />
    <path d="M 2306.18128 -61.81833 L 2306.18128 336.9491" />
    <path d="M 0.03094 0.31886 L 2306.18128 -61.81833" />
    <path d="M 0.03094 0.31886 L -2306.18128 -526.36363 L -2306.18128 -127.5962 L 0.03094 399.08629" />
    <path d="M -0.03094 -588.50081 L 2306.18128 -61.81833" />
    <path d="M -0.03094 -588.50081 L -2306.18128 -526.36363" />
    <path d="M 1900.66015 -152.01472 L -386.57491 -90.38718" />
    <path d="M -754.57091 -174.42847 L -386.57491 -90.38718" />
    <path d="M -754.57091 -174.42847 L 1532.66415 -236.05601" />
    <path d="M 1900.66015 -152.01472 L 1532.66415 -236.05601" />
    <path d="M -383.32636 -89.64529 L -375.78972 -87.92411 L 1911.44535 -149.55164 L 1903.90871 -151.27283 L -383.32636 -89.64529 Z" />
    <path d="M -372.54117 -87.18222 L 6.24003 -0.67786 L 2293.47509 -62.30539 L 1914.6939 -148.80975" />
    <path d="M -372.54117 -87.18222 L 1914.6939 -148.80975" />
    <path d="M -1529.4156 -351.38406 L -1521.87896 -349.66287 L 765.35611 -411.2904 L 757.81947 -413.01159 L -1529.4156 -351.38406 Z" />
    <path d="M 1518.63041 -239.26097 L -768.60466 -177.63344" />
    <path d="M -1136.60066 -261.67473 L -768.60466 -177.63344" />
    <path d="M -1136.60066 -261.67473 L 1150.63441 -323.30226" />
    <path d="M 1518.63041 -239.26097 L 1150.63441 -323.30226" />
    <path d="M 1529.4156 -236.7979 L 1521.87896 -238.51908 L 1521.87896 -236.59483" />
    <path d="M -757.81947 -175.17036 L 1529.4156 -236.7979" />
    <path d="M -765.35611 -176.89155 L -757.81947 -175.17036" />
    <path d="M 1521.87896 -238.51908 L -765.35611 -176.89155" />
    <path d="M 383.32636 -498.53666 L 375.78972 -500.25784 L 375.78972 -498.33359" />
    <path d="M -1903.90871 -436.90912 L 383.32636 -498.53666" />
    <path d="M -1911.44535 -438.63031 L -1903.90871 -436.90912" />
    <path d="M 375.78972 -500.25784 L -1911.44535 -438.63031" />
    <path d="M 1136.60066 -326.50723 L -1150.63441 -264.87969" />
    <path d="M -1518.63041 -348.92098 L -1150.63441 -264.87969" />
    <path d="M -1518.63041 -348.92098 L 768.60466 -410.54852" />
    <path d="M 1136.60066 -326.50723 L 768.60466 -410.54852" />
    <path d="M 1147.38585 -324.04415 L 1139.84921 -325.76534 L 1139.84921 -323.84108" />
    <path d="M -1139.84921 -262.41662 L 1147.38585 -324.04415" />
    <path d="M -1147.38585 -264.1378 L -1139.84921 -262.41662" />
    <path d="M 1139.84921 -325.76534 L -1147.38585 -264.1378" />
    <path d="M -6.24003 -587.5041 L -2293.47509 -525.87656 L -1914.6939 -439.3722" />
    <path d="M 372.54117 -500.99973 L -6.24003 -587.5041 L -6.24003 -563.94588" />
    <path d="M 372.54117 -500.99973 L -1914.6939 -439.3722" />
    <path d="M 754.57091 -413.75348 L -1532.66415 -352.12595" />
    <path d="M -1900.66015 -436.16723 L -1532.66415 -352.12595" />
    <path d="M -1900.66015 -436.16723 L 386.57491 -497.79477" />
    <path d="M 754.57091 -413.75348 L 386.57491 -497.79477" />
    <path d="M 1903.90871 -151.27283 L 1903.90871 -149.34858" />
    <path d="M 1914.6939 -128.00521 L 1914.6939 -148.80975" />
    <path d="M -361.62469 316.49298 A 295.275 95.62605 268.45659 0 1 -442.25218 478.4904 A 295.275 95.62605 268.45659 0 1 -538.78575 276.03373" />
    <path d="M -469.66907 -109.36386 A 295.275 95.62605 268.45659 0 1 -458.15826 -111.84535 A 295.275 95.62605 268.45659 0 1 -430.74137 -100.47372" />
    <path d="M 402.51697 -111.64857 A 295.275 95.62605 88.45659 0 0 364.60892 -134.01409 L -458.15826 -111.84535" />
    <path d="M 1035.39142 371.18941 A 295.275 95.62605 268.45659 0 1 976.39345 440.26624 A 295.275 95.62605 268.45659 0 1 913.76136 374.46663" />
    <path d="M 923.83869 -125.69512 A 295.275 95.62605 268.45659 0 1 960.48738 -150.06951 A 295.275 95.62605 268.45659 0 1 998.39542 -127.70399" />
    <path d="M 1821.1626 -149.87273 A 295.275 95.62605 88.45659 0 0 1783.25456 -172.23824 L 960.48738 -150.06951" />
    <path d="M 1532.66415 -215.25146 L 1532.66415 -236.05601" />
    <path d="M 1150.63441 -302.49772 L 1150.63441 -323.30226" />
    <path d="M 768.60466 -389.74397 L 768.60466 -410.54852" />
    <path d="M 386.57491 -476.99023 L 386.57491 -497.79477" />
    <path d="M 757.81947 -413.01159 L 757.81947 -411.08734" />
    <path d="M -1046.61195 -241.12351 A 295.275 95.62605 268.45659 0 1 -1035.10114 -243.605 A 295.275 95.62605 268.45659 0 1 -1007.68425 -232.23337" />
    <path d="M -938.56757 184.73334 A 295.275 95.62605 268.45659 0 1 -1019.19506 346.73075 A 295.275 95.62605 268.45659 0 1 -1115.72863 144.27408" />
    <path d="M -212.33396 -265.77374 A 295.275 95.62605 268.45659 0 1 -157.89395 -217.47542" />
    <path d="M 322.54172 -207.03342 A 295.275 95.62605 268.45659 0 1 383.54449 -281.82916 A 295.275 95.62605 268.45659 0 1 448.48644 -210.42689" />
    <path d="M 1206.31167 -303.99789 A 295.275 95.62605 268.45659 0 1 1260.75168 -255.69957" />
    <path d="M 1439.13286 -237.11898 A 295.275 95.62605 88.45659 0 0 1401.22481 -259.4845 L 578.45763 -237.31576 A 295.275 95.62605 268.45659 0 1 616.36568 -214.95024" />
    <path d="M 541.80895 -212.94138 A 295.275 95.62605 268.45659 0 1 578.45763 -237.31576" />
    <path d="M 20.48722 -198.89482 A 295.275 95.62605 88.45659 0 0 -17.42082 -221.26034 L -840.188 -199.0916 A 295.275 95.62605 268.45659 0 1 -812.77111 -187.71998" />
    <path d="M -743.65443 229.24673 A 295.275 95.62605 268.45659 0 1 -824.28193 391.24415 A 295.275 95.62605 268.45659 0 1 -920.8155 188.78748" />
    <path d="M -851.69882 -196.61011 A 295.275 95.62605 268.45659 0 1 -840.188 -199.0916" />
    <path d="M -664.58221 -153.87725 A 295.275 95.62605 268.45659 0 1 -653.07139 -156.35875 A 295.275 95.62605 268.45659 0 1 -625.6545 -144.98712" />
    <path d="M -556.53782 271.97959 A 295.275 95.62605 268.45659 0 1 -637.16532 433.97701 A 295.275 95.62605 268.45659 0 1 -733.69889 231.52033" />
    <path d="M 169.69579 -178.52748 A 295.275 95.62605 268.45659 0 1 224.13579 -130.22916" />
    <path d="M 704.57147 -119.78716 A 295.275 95.62605 268.45659 0 1 765.57424 -194.5829 A 295.275 95.62605 268.45659 0 1 830.51619 -123.18063" />
    <path d="M 1588.34142 -216.75164 A 295.275 95.62605 268.45659 0 1 1642.78143 -168.45332" />
    <path d="M -1428.6417 -328.36976 A 295.275 95.62605 268.45659 0 1 -1417.13089 -330.85125 A 295.275 95.62605 268.45659 0 1 -1389.71399 -319.47962" />
    <path d="M -1320.59732 97.48708 A 295.275 95.62605 268.45659 0 1 -1401.22481 259.4845 A 295.275 95.62605 268.45659 0 1 -1497.75838 57.02783" />
    <path d="M -594.36371 -353.01999 A 295.275 95.62605 268.45659 0 1 -539.9237 -304.72167" />
    <path d="M -59.48802 -294.27967 A 295.275 95.62605 268.45659 0 1 1.51475 -369.07541 A 295.275 95.62605 268.45659 0 1 66.45669 -297.67314" />
    <path d="M 824.28193 -391.24415 A 295.275 95.62605 268.45659 0 1 878.72193 -342.94583" />
    <path d="M 1057.10311 -324.36523 A 295.275 95.62605 88.45659 0 0 1019.19506 -346.73075 L 196.42788 -324.56202 A 295.275 95.62605 268.45659 0 1 234.33593 -302.1965" />
    <path d="M 159.7792 -300.18763 A 295.275 95.62605 268.45659 0 1 196.42788 -324.56202" />
    <path d="M -361.54252 -286.14108 A 295.275 95.62605 88.45659 0 0 -399.45057 -308.5066 L -1222.21775 -286.33786 A 295.275 95.62605 268.45659 0 1 -1194.80086 -274.96623" />
    <path d="M -1125.68418 142.00048 A 295.275 95.62605 268.45659 0 1 -1206.31167 303.99789 A 295.275 95.62605 268.45659 0 1 -1302.84524 101.54122" />
    <path d="M -1233.72856 -283.85637 A 295.275 95.62605 268.45659 0 1 -1222.21775 -286.33786" />
    <path d="M -1889.74367 -32.49203 A 295.275 95.62605 268.45659 0 1 -1970.37117 129.50539 A 295.275 95.62605 268.45659 0 1 -2066.90474 -72.95129" />
    <path d="M -1997.78806 -458.34887 A 295.275 95.62605 268.45659 0 1 -1986.27724 -460.83037 A 295.275 95.62605 268.45659 0 1 -1958.86035 -449.45874" />
    <path d="M 293.04362 -498.85774 A 295.275 95.62605 88.45659 0 0 255.13557 -521.22326 L -567.63161 -499.05452 A 295.275 95.62605 268.45659 0 1 -529.72356 -476.689" />
    <path d="M -604.28029 -474.68014 A 295.275 95.62605 268.45659 0 1 -567.63161 -499.05452" />
    <path d="M -1125.60201 -460.63358 A 295.275 95.62605 88.45659 0 0 -1163.51006 -482.9991 L -1986.27724 -460.83037" />
    <path d="M -1810.67145 -415.61601 A 295.275 95.62605 268.45659 0 1 -1799.16063 -418.09751 A 295.275 95.62605 268.45659 0 1 -1771.74374 -406.72588" />
    <path d="M -1702.62706 10.24083 A 295.275 95.62605 268.45659 0 1 -1783.25456 172.23824 A 295.275 95.62605 268.45659 0 1 -1879.78813 -30.21843" />
    <path d="M -976.39345 -440.26624 A 295.275 95.62605 268.45659 0 1 -921.95345 -391.96792" />
    <path d="M -441.51777 -381.52592 A 295.275 95.62605 268.45659 0 1 -380.515 -456.32166 A 295.275 95.62605 268.45659 0 1 -315.57305 -384.91939" />
    <path d="M 442.25218 -478.4904 A 295.275 95.62605 268.45659 0 1 496.69219 -430.19208" />
    <path d="M 675.07337 -411.61149 A 295.275 95.62605 88.45659 0 0 637.16532 -433.97701 L -185.60186 -411.80827 A 295.275 95.62605 268.45659 0 1 -147.69381 -389.44275" />
    <path d="M -222.25055 -387.43389 A 295.275 95.62605 268.45659 0 1 -185.60186 -411.80827" />
    <path d="M -743.57227 -373.38733 A 295.275 95.62605 88.45659 0 0 -781.48032 -395.75285 L -1604.2475 -373.58411 A 295.275 95.62605 268.45659 0 1 -1576.83061 -362.21248" />
    <path d="M -1507.71393 54.75422 A 295.275 95.62605 268.45659 0 1 -1588.34142 216.75164 A 295.275 95.62605 268.45659 0 1 -1684.87499 14.29497" />
    <path d="M -1615.75831 -371.10262 A 295.275 95.62605 268.45659 0 1 -1604.2475 -373.58411" />
    <path d="M 1970.37117 -129.50539 A 295.275 95.62605 268.45659 0 1 2024.81117 -81.20707" />
    <path d="M 1085.67192 -29.7622 A 295.275 95.62605 268.45659 0 1 1147.60399 -107.33665 A 295.275 95.62605 268.45659 0 1 1213.62351 -33.20974" />
    <path d="M 1236.16903 365.77964 A 295.275 95.62605 268.45659 0 1 1163.51006 482.9991 A 295.275 95.62605 268.45659 0 1 1084.64435 369.86233" />
    <path d="M 551.72553 -91.28123 A 295.275 95.62605 268.45659 0 1 606.16554 -42.98291" />
    <path d="M -282.55246 -66.631 A 295.275 95.62605 268.45659 0 1 -271.04165 -69.11249 A 295.275 95.62605 268.45659 0 1 -243.62476 -57.74086" />
    <path d="M -174.50808 359.22584 A 295.275 95.62605 268.45659 0 1 -255.13557 521.22326 A 295.275 95.62605 268.45659 0 1 -351.66914 318.76659" />
    <path d="M -1350.47016 -526.70975 A 295.275 95.62605 88.45659 0 0 -1358.4232 -527.5125 L -2181.19038 -505.34376 A 295.275 95.62605 268.45659 0 1 -2173.23734 -504.54101 A 295.275 95.62605 268.45659 0 1 -2153.77349 -493.97213" />
    <path d="M -1303.98319 -479.21418 A 295.275 95.62605 88.45659 0 0 -1350.47016 -526.70975" />
    <path d="M -2084.65681 -77.00543 A 295.275 95.62605 268.45659 0 1 -2165.2843 84.99199 A 295.275 95.62605 268.45659 0 1 -2261.81787 -117.46468" />
    <path d="M -2192.70119 -502.86227 A 295.275 95.62605 268.45659 0 1 -2181.19038 -505.34376" />
    <path d="M 68.17547 -564.93391 A 295.275 95.62605 88.45659 0 0 60.22244 -565.73665 L -762.54474 -543.56792 A 295.275 95.62605 268.45659 0 1 -754.59171 -542.76517 A 295.275 95.62605 268.45659 0 1 -697.6028 -472.16565" />
    <path d="M 114.66244 -517.43834 A 295.275 95.62605 88.45659 0 0 68.17547 -564.93391" />
    <path d="M -823.54751 -468.77218 A 295.275 95.62605 268.45659 0 1 -762.54474 -543.56792" />
    <path d="M 754.59171 -45.96509 A 295.275 95.62605 88.45659 0 0 746.63867 -46.76783 L -76.12851 -24.5991 A 295.275 95.62605 268.45659 0 1 -68.17547 -23.79635 A 295.275 95.62605 268.45659 0 1 -48.71162 -13.22747" />
    <path d="M 762.54474 543.56792 A 295.275 95.62605 88.45659 0 0 843.88079 376.3495" />
    <path d="M 786.6587 -21.70555 A 295.275 95.62605 88.45659 0 0 754.59171 -45.96509" />
    <path d="M 21.11362 398.51823 A 295.275 95.62605 268.45659 0 1 -60.22244 565.73665 A 295.275 95.62605 268.45659 0 1 -156.75601 363.27998" />
    <path d="M -87.63933 -22.1176 A 295.275 95.62605 268.45659 0 1 -76.12851 -24.5991" />
    <path d="M 2173.23734 -84.18924 A 295.275 95.62605 88.45659 0 0 2165.2843 -84.99199 L 1342.51712 -62.82325 A 295.275 95.62605 268.45659 0 1 1350.47016 -62.02051 A 295.275 95.62605 268.45659 0 1 1382.53715 -37.76097" />
    <path d="M 2181.19038 505.34376 A 295.275 95.62605 88.45659 0 0 2262.52643 338.12534" />
    <path d="M 2205.30433 -59.92971 A 295.275 95.62605 88.45659 0 0 2173.23734 -84.18924" />
    <path d="M 1439.75925 360.29408 A 295.275 95.62605 268.45659 0 1 1358.4232 527.5125 A 295.275 95.62605 268.45659 0 1 1268.20059 364.91657" />
    <path d="M 1303.90474 -35.64229 A 295.275 95.62605 268.45659 0 1 1342.51712 -62.82325" />
    <path d="M -308.54477 474.88777 L -442.25218 478.4904" />
    <path d="M 1110.10086 436.66362 L 976.39345 440.26624" />
    <path d="M -212.33396 -265.77374 L -1035.10114 -243.605" />
    <path d="M -878.72193 342.94583 L -1019.19506 346.73075" />
    <path d="M 1206.31167 -303.99789 L 383.54449 -281.82916" />
    <path d="M -690.57452 387.64152 L -824.28193 391.24415" />
    <path d="M 169.69579 -178.52748 L -653.07139 -156.35875" />
    <path d="M -496.69219 430.19208 L -637.16532 433.97701" />
    <path d="M 1588.34142 -216.75164 L 765.57424 -194.5829" />
    <path d="M 921.95345 391.96792 L 841.29088 394.14131" />
    <path d="M -594.36371 -353.01999 L -1417.13089 -330.85125" />
    <path d="M -1260.75168 255.69957 L -1401.22481 259.4845" />
    <path d="M 824.28193 -391.24415 L 1.51475 -369.07541" />
    <path d="M -1072.60426 300.39526 L -1206.31167 303.99789" />
    <path d="M -1836.66376 125.90276 L -1970.37117 129.50539" />
    <path d="M -976.39345 -440.26624 L -1799.16063 -418.09751" />
    <path d="M -1642.78143 168.45332 L -1783.25456 172.23824" />
    <path d="M 442.25218 -478.4904 L -380.515 -456.32166" />
    <path d="M -1454.63401 213.14901 L -1588.34142 216.75164" />
    <path d="M 1970.37117 -129.50539 L 1147.60399 -107.33665" />
    <path d="M 1303.98319 479.21418 L 1163.51006 482.9991" />
    <path d="M 551.72553 -91.28123 L -271.04165 -69.11249" />
    <path d="M -114.66244 517.43834 L -255.13557 521.22326" />
    <path d="M -2024.81117 81.20707 L -2165.2843 84.99199" />
    <path d="M 762.54474 543.56792 L -60.22244 565.73665" />
    <path d="M 2181.19038 505.34376 L 1358.4232 527.5125" />
</svg>