<svg version="1.1" xmlns="http://www.w3.org/2000/svg" viewBox="-2635.6870320198846 -2944.1496382687005 4911.466377644003 5794.144912368005" fill="none" stroke="black" stroke-width="0.6%" vector-effect="non-scaling-stroke">
    <path d="M -2398.30068 435.20943 A 295.275 98.5739 261.75467 0 1 -2448.90438 504.08014 A 295.275 98.5739 261.75467 0 1 -2584.20004 254.48421" />
    <path d="M -2182.19869 645.29665 A 295.275 98.5739 261.75467 0 1 -2232.80239 714.16737 A 295.275 98.5739 261.75467 0 1 -2368.09805 464.57143" />
    <path d="M -2634.68703 205.40242 L 0.02843 2766.78582 L 2274.77934 2437.15185" />
    <path d="M 124.88309 1281.12662 L -138.71959 1319.32526" />
    <path d="M 564.00234 1708.02385 L 300.39965 1746.22249" />
    <path d="M 1003.12158 2134.92108 L 739.5189 2173.11973" />
    <path d="M -2634.68703 205.40242 L -2634.68703 -169.98766 L -2588.0427 -1803.43722 L -2584.36465 -1862.05521 A 500 432.34124 134.19144 0 1 -2180.0602 -2322.34807 L -9.3573 -2941.79779 L -0.02843 -2943.14964" />
    <path d="M 0.02843 2396.03019 L 0.02843 2766.78582" />
    <path d="M 0.02843 2396.03019 L -1317.3293 1115.33849 L -1317.3293 1110.70404 L -1270.68497 -522.74552 L -2588.0427 -1803.43722" />
    <path d="M -1317.3293 1110.70404 L -2634.68703 -169.98766" />
    <path d="M 2274.77934 2066.39622 L 2274.77934 2437.15185" />
    <path d="M 0.02843 2396.03019 L 2274.77934 2066.39622" />
    <path d="M 957.42161 785.70452 L 2274.77934 2066.39622" />
    <path d="M -872.48289 1537.38242 L 1383.61029 1210.45215 L 951.69445 790.55782 L 951.69445 886.17132" />
    <path d="M -1304.39873 1117.48809 L -872.48289 1537.38242" />
    <path d="M 951.69445 790.55782 L -1304.39873 1117.48809" />
    <path d="M -433.36365 1964.27965 L 1822.72953 1637.34938 L 1390.81369 1217.45505 L 1390.81369 1313.06855" />
    <path d="M -865.27949 1544.38533 L -433.36365 1964.27965" />
    <path d="M 1390.81369 1217.45505 L -865.27949 1544.38533" />
    <path d="M 5.7556 2391.17689 L 2261.84878 2064.24661 L 1829.93293 1644.35229 L 1829.93293 1739.96579" />
    <path d="M -426.16025 1971.28256 L 5.7556 2391.17689" />
    <path d="M 1829.93293 1644.35229 L -426.16025 1971.28256" />
    <path d="M 957.42161 785.70452 L -1317.3293 1115.33849" />
    <path d="M 1317.3293 -1569.76903 L 958.0371 786.30288" />
    <path d="M 1317.3293 -1662.45794 L 1317.3293 -1569.76903" />
    <path d="M 1308.00043 -1661.10609 L 1317.3293 -1662.45794 L -0.02843 -2943.14964" />
    <path d="M -862.70247 -1041.65637 L 1308.00043 -1661.10609 L -9.3573 -2941.79779" />
    <path d="M -1267.00692 -581.36351 A 500 432.34124 134.19144 0 1 -862.70247 -1041.65637 L -2180.0602 -2322.34807" />
    <path d="M -1270.68497 -522.74552 L -1267.00692 -581.36351 L -2584.36465 -1862.05521" />
    <path d="M -1256.69166 1060.20704 L -1256.69166 1069.47593 L 896.78398 757.41595 L 857.16528 718.89996 L -1255.662 1025.06959" />
    <path d="M -1210.04733 -531.53251 L -1256.69166 1060.20704" />
    <path d="M -1206.84743 -582.53016 L -1210.04733 -531.53251" />
    <path d="M 896.78398 757.41595 L 1256.69166 -1500.73424 L 1217.07297 -1539.25024 L 857.16528 718.89996" />
    <path d="M -855.10256 -982.98495 A 435 376.13688 314.19144 0 0 -1206.84743 -582.53016" />
    <path d="M 1256.69166 -1500.73424 L 1256.69166 -1593.42315 L 1247.3628 -1592.07131 L -855.10256 -982.98495" />
    <path d="M 1217.07297 -1583.29631 L 1217.07297 -1539.25024" />
    <path d="M -1959.18143 862.10666 A 295.275 98.5739 261.75467 0 1 -2009.78514 930.97738 A 295.275 98.5739 261.75467 0 1 -2145.08079 681.38144" />
    <path d="M -1743.07944 1072.19388 A 295.275 98.5739 261.75467 0 1 -1793.68315 1141.0646 A 295.275 98.5739 261.75467 0 1 -1928.9788 891.46866" />
    <path d="M 98.20746 1284.99218 A 295.275 98.5739 261.75467 0 1 44.76614 1365.18503 A 295.275 98.5739 261.75467 0 1 -29.2404 1303.46064" />
    <path d="M -1520.06219 1289.0039 A 295.275 98.5739 261.75467 0 1 -1570.66589 1357.87461 A 295.275 98.5739 261.75467 0 1 -1705.96155 1108.27867" />
    <path d="M -1303.9602 1499.09112 A 295.275 98.5739 261.75467 0 1 -1354.5639 1567.96183 A 295.275 98.5739 261.75467 0 1 -1489.85956 1318.36589" />
    <path d="M 1037.00219 898.48132 A 295.275 98.5739 81.75467 0 0 994.65622 879.94573 L 183.09144 997.54952 A 295.275 98.5739 261.75467 0 1 225.43741 1016.08511 A 295.275 98.5739 261.75467 0 1 331.16308 1362.96218" />
    <path d="M 1124.67925 1102.50665 A 295.275 98.5739 81.75467 0 0 1037.00219 898.48132" />
    <path d="M 144.83628 1389.96278 A 295.275 98.5739 261.75467 0 1 183.09144 997.54952" />
    <path d="M 1253.10418 1108.56855 A 295.275 98.5739 81.75467 0 0 1210.75821 1090.03295 L 399.19343 1207.63674 A 295.275 98.5739 261.75467 0 1 441.5394 1226.17233 A 295.275 98.5739 261.75467 0 1 503.61205 1337.97262" />
    <path d="M 1315.17683 1220.36883 A 295.275 98.5739 81.75467 0 0 1253.10418 1108.56855" />
    <path d="M 537.3267 1711.88941 A 295.275 98.5739 261.75467 0 1 483.88538 1792.08227 A 295.275 98.5739 261.75467 0 1 409.87884 1730.35787" />
    <path d="M 336.06699 1362.25156 A 295.275 98.5739 261.75467 0 1 399.19343 1207.63674" />
    <path d="M -146.22586 1311.34534 A 295.275 98.5739 81.75467 0 0 -188.57183 1292.80975 L -1000.13661 1410.41354 A 295.275 98.5739 261.75467 0 1 -957.79064 1428.94913 A 295.275 98.5739 261.75467 0 1 -912.96441 1498.02762" />
    <path d="M -84.15321 1423.14563 A 295.275 98.5739 81.75467 0 0 -146.22586 1311.34534" />
    <path d="M -864.84096 1925.98835 A 295.275 98.5739 261.75467 0 1 -915.44466 1994.85907 A 295.275 98.5739 261.75467 0 1 -1050.74032 1745.26313" />
    <path d="M -1002.61686 1410.87047 A 295.275 98.5739 261.75467 0 1 -1000.13661 1410.41354" />
    <path d="M -362.32785 1101.25812 A 295.275 98.5739 81.75467 0 0 -404.67382 1082.72253 L -1216.2386 1200.32632 A 295.275 98.5739 261.75467 0 1 -1173.89263 1218.86191 A 295.275 98.5739 261.75467 0 1 -1129.0664 1287.9404" />
    <path d="M -274.65079 1305.28345 A 295.275 98.5739 81.75467 0 0 -362.32785 1101.25812" />
    <path d="M -1080.94295 1715.90113 A 295.275 98.5739 261.75467 0 1 -1131.54665 1784.77184 A 295.275 98.5739 261.75467 0 1 -1266.84231 1535.17591" />
    <path d="M -1218.71885 1200.78325 A 295.275 98.5739 261.75467 0 1 -1216.2386 1200.32632" />
    <path d="M 1476.12144 1325.37856 A 295.275 98.5739 81.75467 0 0 1433.77546 1306.84297 L 622.21068 1424.44675 A 295.275 98.5739 261.75467 0 1 664.55666 1442.98234 A 295.275 98.5739 261.75467 0 1 770.28233 1789.85942" />
    <path d="M 1563.7985 1529.40388 A 295.275 98.5739 81.75467 0 0 1476.12144 1325.37856" />
    <path d="M 583.95553 1816.86002 A 295.275 98.5739 261.75467 0 1 622.21068 1424.44675" />
    <path d="M 1692.22343 1535.46578 A 295.275 98.5739 81.75467 0 0 1649.87745 1516.93019 L 838.31267 1634.53397 A 295.275 98.5739 261.75467 0 1 880.65865 1653.06956 A 295.275 98.5739 261.75467 0 1 942.73129 1764.86985" />
    <path d="M 1754.29607 1647.26607 A 295.275 98.5739 81.75467 0 0 1692.22343 1535.46578" />
    <path d="M 976.44595 2138.78665 A 295.275 98.5739 261.75467 0 1 923.00462 2218.9795 A 295.275 98.5739 261.75467 0 1 848.99809 2157.25511" />
    <path d="M 775.18623 1789.14879 A 295.275 98.5739 261.75467 0 1 838.31267 1634.53397" />
    <path d="M 292.89339 1738.24258 A 295.275 98.5739 81.75467 0 0 250.54741 1719.70699 L -561.01737 1837.31077 A 295.275 98.5739 261.75467 0 1 -518.67139 1855.84636 A 295.275 98.5739 261.75467 0 1 -473.84517 1924.92485" />
    <path d="M 354.96603 1850.04287 A 295.275 98.5739 81.75467 0 0 292.89339 1738.24258" />
    <path d="M -425.72171 2352.88558 A 295.275 98.5739 261.75467 0 1 -476.32542 2421.7563 A 295.275 98.5739 261.75467 0 1 -611.62107 2172.16036" />
    <path d="M -563.49761 1837.76771 A 295.275 98.5739 261.75467 0 1 -561.01737 1837.31077" />
    <path d="M 76.7914 1528.15536 A 295.275 98.5739 81.75467 0 0 34.44542 1509.61977 L -777.11936 1627.22355 A 295.275 98.5739 261.75467 0 1 -734.77338 1645.75914 A 295.275 98.5739 261.75467 0 1 -689.94716 1714.83763" />
    <path d="M 164.46845 1732.18068 A 295.275 98.5739 81.75467 0 0 76.7914 1528.15536" />
    <path d="M -641.8237 2142.79836 A 295.275 98.5739 261.75467 0 1 -692.42741 2211.66908 A 295.275 98.5739 261.75467 0 1 -827.72306 1962.07314" />
    <path d="M -779.5996 1627.68048 A 295.275 98.5739 261.75467 0 1 -777.11936 1627.22355" />
    <path d="M 1915.24068 1752.27579 A 295.275 98.5739 81.75467 0 0 1872.8947 1733.7402 L 1061.32993 1851.34398 A 295.275 98.5739 261.75467 0 1 1103.6759 1869.87958 A 295.275 98.5739 261.75467 0 1 1209.40157 2216.75665" />
    <path d="M 2002.91774 1956.30112 A 295.275 98.5739 81.75467 0 0 1915.24068 1752.27579" />
    <path d="M 1023.07477 2243.75725 A 295.275 98.5739 261.75467 0 1 1061.32993 1851.34398" />
    <path d="M 2131.34267 1962.36301 A 295.275 98.5739 81.75467 0 0 2088.99669 1943.82742 L 1277.43192 2061.43121 A 295.275 98.5739 261.75467 0 1 1319.77789 2079.9668 A 295.275 98.5739 261.75467 0 1 1381.85054 2191.76709" />
    <path d="M 2173.68865 2528.27295 A 295.275 98.5739 81.75467 0 0 2228.05276 2443.923" />
    <path d="M 2193.41532 2074.1633 A 295.275 98.5739 81.75467 0 0 2131.34267 1962.36301" />
    <path d="M 1416.48798 2561.52678 A 295.275 98.5739 261.75467 0 1 1362.12387 2645.87673 A 295.275 98.5739 261.75467 0 1 1286.05247 2580.42818" />
    <path d="M 1214.30548 2216.04603 A 295.275 98.5739 261.75467 0 1 1277.43192 2061.43121" />
    <path d="M 732.01263 2165.13981 A 295.275 98.5739 81.75467 0 0 689.66665 2146.60422 L -121.89813 2264.208 A 295.275 98.5739 261.75467 0 1 -79.55215 2282.7436 A 295.275 98.5739 261.75467 0 1 -34.72593 2351.82209" />
    <path d="M 774.35861 2731.04975 A 295.275 98.5739 81.75467 0 0 828.72272 2646.6998" />
    <path d="M 794.08528 2276.9401 A 295.275 98.5739 81.75467 0 0 732.01263 2165.13981" />
    <path d="M 17.15794 2764.30358 A 295.275 98.5739 261.75467 0 1 -37.20617 2848.65353 A 295.275 98.5739 261.75467 0 1 -172.50183 2599.05759" />
    <path d="M -124.37837 2264.66494 A 295.275 98.5739 261.75467 0 1 -121.89813 2264.208" />
    <path d="M 515.91064 1955.05259 A 295.275 98.5739 81.75467 0 0 473.56466 1936.517 L -338.00012 2054.12078 A 295.275 98.5739 261.75467 0 1 -295.65414 2072.65637 A 295.275 98.5739 261.75467 0 1 -250.82792 2141.73486" />
    <path d="M 603.5877 2159.07791 A 295.275 98.5739 81.75467 0 0 515.91064 1955.05259" />
    <path d="M -202.70446 2569.6956 A 295.275 98.5739 261.75467 0 1 -253.30816 2638.56631 A 295.275 98.5739 261.75467 0 1 -388.60382 2388.97037" />
    <path d="M -340.48036 2054.57772 A 295.275 98.5739 261.75467 0 1 -338.00012 2054.12078" />
    <path d="M -2362.82543 491.60645 L -2448.90438 504.08014" />
    <path d="M -2141.36137 700.91665 L -2232.80239 714.16737" />
    <path d="M -1923.70618 918.50368 L -2009.78514 930.97738" />
    <path d="M -1702.24213 1127.81389 L -1793.68315 1141.0646" />
    <path d="M 136.20716 1351.93432 L 44.76614 1365.18503" />
    <path d="M -1484.58694 1345.40092 L -1570.66589 1357.87461" />
    <path d="M -1263.12288 1554.71112 L -1354.5639 1567.96183" />
    <path d="M 575.3264 1778.83156 L 483.88538 1792.08227" />
    <path d="M -824.00364 1981.60835 L -915.44466 1994.85907" />
    <path d="M -1045.46769 1772.29815 L -1131.54665 1784.77184" />
    <path d="M 1014.44564 2205.72879 L 923.00462 2218.9795" />
    <path d="M -384.8844 2408.50559 L -476.32542 2421.7563" />
    <path d="M -606.34845 2199.19538 L -692.42741 2211.66908" />
    <path d="M 2173.68865 2528.27295 L 1362.12387 2645.87673" />
    <path d="M 774.35861 2731.04975 L -37.20617 2848.65353" />
    <path d="M -167.22921 2626.09262 L -253.30816 2638.56631" />
</svg>