<svg version="1.1" xmlns="http://www.w3.org/2000/svg" viewBox="-2636.8009874853997 -2945.3332072972867 4913.538232830428 5796.678632414418" fill="none" stroke="black" stroke-width="0.6%" vector-effect="non-scaling-stroke">
    <path d="M -1655.46529 634.49316 L -1781.97554 652.71871" />
    <path d="M -1655.46529 625.22048 L -1655.46529 634.49316" />
    <path d="M -1608.80073 -1008.85881 L -1655.46529 625.22048" />
    <path d="M -1606.22498 -1049.90604 L -1608.80073 -1008.85881" />
    <path d="M -1323.08915 -1372.00443 A 350 302.89411 314.2157 0 0 -1606.22498 -1049.90604" />
    <path d="M 831.00911 -1986.25342 L -1323.08915 -1372.00443" />
    <path d="M 833.11183 -1986.55634 L 831.00911 -1986.25342" />
    <path d="M 840.34202 -2033.96139 L 833.11183 -1986.55634" />
    <path d="M 840.34202 -2126.68826 L 840.34202 -2033.96139" />
    <path d="M 831.00911 -2125.34372 L 840.34202 -2126.68826 L 827.41368 -2139.26741" />
    <path d="M -1340.63501 -1507.47024 L 831.00911 -2125.34372 L 818.08077 -2137.92288 L 827.41368 -2139.26741" />
    <path d="M -1745.11476 -1047.32969 A 500 432.70587 134.2157 0 1 -1340.63501 -1507.47024 L -1353.56335 -1520.0494 L 818.08077 -2137.92288" />
    <path d="M -1748.7944 -988.69079 L -1745.11476 -1047.32969 L -1758.0431 -1059.90884 A 500 432.70587 134.2157 0 1 -1353.56335 -1520.0494" />
    <path d="M -1795.45896 645.38849 L -1748.7944 -988.69079 L -1761.72274 -1001.26995 L -1758.0431 -1059.90884" />
    <path d="M -1795.45896 650.02484 L -1795.45896 645.38849 L -1808.3873 632.80934 L -1761.72274 -1001.26995" />
    <path d="M -1786.12605 648.6803 L -1795.45896 650.02484" />
    <path d="M -2176.27459 269.06942 L -2136.60626 307.66633" />
    <path d="M -1786.12605 648.6803 L -1745.61726 688.09498 L -1640.78276 672.99213" />
    <path d="M -1950.31595 488.92506 L -1808.22645 627.17682" />
    <path d="M -2114.50586 329.16982 L -1978.88053 461.132" />
    <path d="M -1808.3873 637.44569 L -1808.3873 632.80934" />
    <path d="M -1644.1974 797.20093 L -1795.45896 650.02484" />
    <path d="M -1644.1974 797.20093 L -1644.1974 792.56459 L -1597.53284 -841.5147 L -1593.8532 -900.1536 A 500 432.70587 134.2157 0 1 -1189.37345 -1360.29415 L 982.27067 -1978.16763 L 991.60359 -1979.51217" />
    <path d="M -1631.26906 805.14374 L -1644.1974 792.56459" />
    <path d="M -1631.26906 809.78008 L -1631.26906 805.14374 L -1584.6045 -828.93555 L -1580.92486 -887.57445 A 500 432.70587 134.2157 0 1 -1176.44511 -1347.715 L 995.19901 -1965.58848 L 1004.53193 -1966.93302 L 1004.53193 -1874.20614 L 997.30173 -1826.8011 L 995.19901 -1826.49817 L -1158.89925 -1212.24918 A 350 302.89411 314.2157 0 0 -1442.03507 -890.15079 L -1444.61082 -849.10357 L -1491.27538 784.97572 L -1491.27538 790.3245 L -1599.32717 805.89085 A 295.275 98.32694 261.80216 0 1 -1563.53767 865.25672" />
    <path d="M -1631.26906 809.78008 L -1480.0075 956.95617 L -1480.0075 952.31983 L -1433.34294 -681.75946 L -1429.6633 -740.39836 A 500 432.70587 134.2157 0 1 -1025.18354 -1200.53891 L 1146.46058 -1818.41239 L 1155.79349 -1819.75692" />
    <path d="M -1467.07916 964.89898 L -1480.0075 952.31983" />
    <path d="M -1467.07916 969.53533 L -1467.07916 964.89898 L -1420.4146 -669.18031 L -1433.34294 -681.75946" />
    <path d="M -1467.07916 969.53533 L -1322.28176 1110.42184 L -1322.28176 1105.7855 L -1275.6172 -528.29379 L -1271.93756 -586.93269 A 500 432.70587 134.2157 0 1 -867.45781 -1047.07324 L 1304.18631 -1664.94672 L 1313.51922 -1666.29126" />
    <path d="M -1302.88926 1124.65423 L -1322.28176 1105.7855" />
    <path d="M -1302.88926 1129.29057 L -1302.88926 1124.65423 L -1256.2247 -509.42506 L -1275.6172 -528.29379" />
    <path d="M -1302.88926 1129.29057 L -1298.38229 1133.6758" />
    <path d="M -1298.38229 1111.53633 L -1298.38229 1133.6758" />
    <path d="M -1248.21316 1160.35044 L -1298.38229 1111.53633" />
    <path d="M -1248.21316 1182.4899 L -1248.21316 1160.35044" />
    <path d="M -1248.21316 1182.4899 L -1244.15509 1186.43836" />
    <path d="M -1244.15509 1164.29889 L -1244.15509 1186.43836" />
    <path d="M -1193.98596 1213.11299 L -1244.15509 1164.29889" />
    <path d="M -1193.98596 1235.25246 L -1193.98596 1213.11299" />
    <path d="M -1193.98596 1235.25246 L -1189.9279 1239.20092" />
    <path d="M -1189.9279 1217.06145 L -1189.9279 1239.20092" />
    <path d="M -1139.75876 1265.87555 L -1189.9279 1217.06145" />
    <path d="M -1139.75876 1283.37868 L -1139.75876 1265.87555" />
    <path d="M -1138.69935 1284.40947 L -1139.75876 1283.37868" />
    <path d="M -1138.69935 1289.04581 L -1138.69935 1284.40947 L -1092.03479 -349.66982 L -1104.96313 -362.24897 L -1101.28349 -420.88787 A 500 432.70587 134.2157 0 1 -696.80374 -881.02842 L 1474.84038 -1498.9019 L 1484.1733 -1500.24644" />
    <path d="M -1138.69935 1289.04581 L -1135.7007 1291.96348" />
    <path d="M -1135.7007 1269.82401 L -1135.7007 1291.96348" />
    <path d="M -1085.53156 1318.63811 L -1135.7007 1269.82401" />
    <path d="M -1085.53156 1340.77758 L -1085.53156 1318.63811" />
    <path d="M -1085.53156 1340.77758 L -1081.4735 1344.72604" />
    <path d="M -1081.4735 1322.58657 L -1081.4735 1344.72604" />
    <path d="M -1031.30436 1371.40067 L -1081.4735 1322.58657" />
    <path d="M -1031.30436 1388.90379 L -1031.30436 1371.40067" />
    <path d="M -1030.9632 1389.23574 L -1031.30436 1388.90379" />
    <path d="M -1030.9632 1393.87209 L -1030.9632 1389.23574 L -984.29864 -244.84354 L -997.22697 -257.4227 L -993.54734 -316.06159 A 500 432.70587 134.2157 0 1 -589.06758 -776.20215 L 1582.57654 -1394.07563 L 1591.90945 -1395.42016" />
    <path d="M -1027.2463 1397.48859 L -1030.9632 1393.87209" />
    <path d="M -1027.2463 1375.34913 L -1027.2463 1397.48859" />
    <path d="M -977.07716 1424.16323 L -1027.2463 1375.34913" />
    <path d="M -977.07716 1446.3027 L -977.07716 1424.16323" />
    <path d="M -973.0191 1450.25115 L -977.07716 1446.3027 L -973.0191 1445.71808" />
    <path d="M -973.0191 1428.11169 L -973.0191 1450.25115" />
    <path d="M -922.84996 1476.92579 L -973.0191 1428.11169" />
    <path d="M -922.84996 1499.06526 L -922.84996 1476.92579" />
    <path d="M -918.7919 1503.01371 L -922.84996 1499.06526 L -918.7919 1498.48064" />
    <path d="M -918.7919 1480.87424 L -918.7919 1503.01371" />
    <path d="M -868.62276 1529.68835 L -918.7919 1480.87424" />
    <path d="M -868.62276 1551.82781 L -868.62276 1529.68835" />
    <path d="M -864.5647 1555.77627 L -868.62276 1551.82781 L -864.5647 1551.24319" />
    <path d="M -864.5647 1533.6368 L -864.5647 1555.77627" />
    <path d="M -814.39556 1582.4509 L -864.5647 1533.6368" />
    <path d="M -814.39556 1604.59037 L -814.39556 1582.4509" />
    <path d="M -810.3375 1608.53883 L -814.39556 1604.59037 L -810.3375 1604.00575" />
    <path d="M -810.3375 1586.39936 L -810.3375 1608.53883" />
    <path d="M -760.16837 1635.21346 L -810.3375 1586.39936" />
    <path d="M -760.16837 1657.35293 L -760.16837 1635.21346" />
    <path d="M -756.1103 1661.30139 L -760.16837 1657.35293 L -756.1103 1656.76831" />
    <path d="M -756.1103 1639.16192 L -756.1103 1661.30139" />
    <path d="M -705.94117 1687.97602 L -756.1103 1639.16192" />
    <path d="M -705.94117 1710.11549 L -705.94117 1687.97602" />
    <path d="M -701.88311 1714.06395 L -705.94117 1710.11549 L -701.88311 1709.53087" />
    <path d="M -701.88311 1691.92448 L -701.88311 1714.06395" />
    <path d="M -651.71397 1740.73858 L -701.88311 1691.92448" />
    <path d="M -651.71397 1762.87805 L -651.71397 1740.73858" />
    <path d="M -647.65591 1766.8265 L -651.71397 1762.87805 L -647.65591 1762.29343" />
    <path d="M -647.65591 1744.68704 L -647.65591 1766.8265" />
    <path d="M -597.48677 1793.50114 L -647.65591 1744.68704" />
    <path d="M -597.48677 1815.64061 L -597.48677 1793.50114" />
    <path d="M -593.42871 1819.58906 L -597.48677 1815.64061 L -593.42871 1815.05599" />
    <path d="M -593.42871 1797.4496 L -593.42871 1819.58906" />
    <path d="M -543.25957 1846.2637 L -593.42871 1797.4496" />
    <path d="M -543.25957 1868.40317 L -543.25957 1846.2637" />
    <path d="M -539.20151 1872.35162 L -543.25957 1868.40317 L -539.20151 1867.81855" />
    <path d="M -539.20151 1850.21215 L -539.20151 1872.35162" />
    <path d="M -489.03237 1899.02626 L -539.20151 1850.21215" />
    <path d="M -489.03237 1921.16572 L -489.03237 1899.02626" />
    <path d="M -484.97431 1925.11418 L -489.03237 1921.16572 L -484.97431 1920.5811" />
    <path d="M -484.97431 1902.97471 L -484.97431 1925.11418" />
    <path d="M -434.80517 1951.78881 L -484.97431 1902.97471" />
    <path d="M -434.80517 1973.92828 L -434.80517 1951.78881" />
    <path d="M -430.74711 1977.87674 L -434.80517 1973.92828" />
    <path d="M -430.74711 1955.73727 L -430.74711 1977.87674" />
    <path d="M -380.57797 2004.55137 L -430.74711 1955.73727" />
    <path d="M -380.57797 2026.69084 L -380.57797 2004.55137" />
    <path d="M -376.51991 2030.6393 L -380.57797 2026.69084 L -376.51991 2026.10622" />
    <path d="M -376.51991 2008.49983 L -376.51991 2030.6393" />
    <path d="M -326.35077 2057.31393 L -376.51991 2008.49983" />
    <path d="M -326.35077 2079.4534 L -326.35077 2057.31393" />
    <path d="M -322.29271 2083.40186 L -326.35077 2079.4534 L -322.29271 2078.86878" />
    <path d="M -322.29271 2061.26239 L -322.29271 2083.40186" />
    <path d="M -272.12358 2110.07649 L -322.29271 2061.26239" />
    <path d="M -272.12358 2132.21596 L -272.12358 2110.07649" />
    <path d="M -268.06551 2136.16441 L -272.12358 2132.21596 L -268.06551 2131.63134" />
    <path d="M -268.06551 2114.02495 L -268.06551 2136.16441" />
    <path d="M -217.89638 2162.83905 L -268.06551 2114.02495" />
    <path d="M -217.89638 2184.97852 L -217.89638 2162.83905" />
    <path d="M -213.83832 2188.92697 L -217.89638 2184.97852 L -213.83832 2184.3939" />
    <path d="M -213.83832 2166.78751 L -213.83832 2188.92697" />
    <path d="M -163.66918 2215.60161 L -213.83832 2166.78751" />
    <path d="M -163.66918 2237.74108 L -163.66918 2215.60161" />
    <path d="M -159.61112 2241.68953 L -163.66918 2237.74108 L -159.61112 2237.15646" />
    <path d="M -159.61112 2219.55006 L -159.61112 2241.68953" />
    <path d="M -109.44198 2268.36417 L -159.61112 2219.55006" />
    <path d="M -109.44198 2290.50363 L -109.44198 2268.36417" />
    <path d="M -105.38392 2294.45209 L -109.44198 2290.50363 L -105.38392 2289.91901" />
    <path d="M -105.38392 2272.31262 L -105.38392 2294.45209" />
    <path d="M -55.21478 2321.12672 L -105.38392 2272.31262" />
    <path d="M -55.21478 2343.26619 L -55.21478 2321.12672" />
    <path d="M -51.15672 2347.21465 L -55.21478 2343.26619 L -51.15672 2342.68157" />
    <path d="M -51.15672 2325.07518 L -51.15672 2347.21465" />
    <path d="M -0.98758 2373.88928 L -51.15672 2325.07518" />
    <path d="M -0.98758 2396.02875 L -0.98758 2373.88928" />
    <path d="M 0 2396.98966 L -0.98758 2396.02875" />
    <path d="M 0 2396.98966 L 0 2767.89715 L 2275.73724 2440.04585" />
    <path d="M -2627.03845 211.81325 L 0 2767.89715" />
    <path d="M -2627.03845 -154.45789 L -2627.03845 211.81325" />
    <path d="M -2627.03845 -154.45789 L -2635.80099 -162.98377 L -2635.80099 -172.25645 L -2589.13643 -1806.33574 L -2585.45679 -1864.97464 A 500 432.70587 134.2157 0 1 -2180.97703 -2325.11519 L -9.33291 -2942.98867 L 0 -2944.33321" />
    <path d="M -2616.40848 -153.38772 L -2635.80099 -172.25645" />
    <path d="M -2616.40848 -148.75138 L -2616.40848 -153.38772 L -2569.74392 -1787.46701 L -2589.13643 -1806.33574" />
    <path d="M -2616.40848 -148.75138 L -2465.14691 -1.57529 L -2465.14691 -6.21163 L -2418.48235 -1640.29092 L -2414.80271 -1698.92982 A 500 432.70587 134.2157 0 1 -2010.32296 -2159.07037 L 161.32116 -2776.94385 L 170.65407 -2778.28839" />
    <path d="M -2452.21858 6.36752 L -2465.14691 -6.21163" />
    <path d="M -2452.21858 11.00386 L -2452.21858 6.36752 L -2405.55402 -1627.71177 L -2418.48235 -1640.29092" />
    <path d="M -2452.21858 11.00386 L -2300.95701 158.17995 L -2300.95701 153.54361 L -2254.29245 -1480.53568 L -2250.61281 -1539.17457 A 500 432.70587 134.2157 0 1 -1846.13306 -1999.31513 L 325.51106 -2617.18861 L 334.84398 -2618.53314" />
    <path d="M -2288.02867 166.12276 L -2300.95701 153.54361" />
    <path d="M -2288.02867 170.75911 L -2288.02867 166.12276 L -2241.36411 -1467.95652 L -2254.29245 -1480.53568" />
    <path d="M -2136.76711 317.9352 L -2288.02867 170.75911" />
    <path d="M -2136.76711 317.9352 L -2136.76711 313.29885 L -2090.10255 -1320.78043 L -2086.42291 -1379.41933 A 500 432.70587 134.2157 0 1 -1681.94315 -1839.55988 L 489.70097 -2457.43336 L 499.03388 -2458.7779" />
    <path d="M -2123.83877 325.87801 L -2136.76711 313.29885" />
    <path d="M -2123.83877 330.51435 L -2123.83877 325.87801 L -2077.17421 -1308.20128 L -2090.10255 -1320.78043" />
    <path d="M -2123.83877 330.51435 L -1979.04138 471.40087 L -1979.04138 466.76452 L -1932.37682 -1167.31477 L -1928.69718 -1225.95366 A 500 432.70587 134.2157 0 1 -1524.21742 -1686.09422 L 647.4267 -2303.9677 L 656.75961 -2305.31223" />
    <path d="M -1959.64887 485.63325 L -1979.04138 466.76452" />
    <path d="M -1959.64887 490.2696 L -1959.64887 485.63325 L -1912.98431 -1148.44604 L -1932.37682 -1167.31477" />
    <path d="M -1959.64887 490.2696 L -1808.3873 637.44569" />
    <path d="M -1738.43485 695.0834 L -1644.03655 786.93206" />
    <path d="M 186.31011 417.79738 L -868.14206 569.70574" />
    <path d="M -1132.66531 607.81396 L -1148.77835 610.13526" />
    <path d="M -1308.78571 633.18653 L -1318.22752 634.54675" />
    <path d="M -1471.56365 656.63693 L -1487.67669 658.95824" />
    <path d="M -1641.01282 681.04842 L -1738.43485 695.0834" />
    <path d="M 741.57653 586.83967 L 651.04484 498.75318" />
    <path d="M 743.88963 578.66492 L 651.04484 488.32781" />
    <path d="M -1487.44662 650.90195 L -1471.33359 648.58064" />
    <path d="M -1317.99745 626.49046 L -1308.55565 625.13024" />
    <path d="M -1148.54828 602.07897 L -1132.43525 599.75767" />
    <path d="M -867.912 561.64945 L 186.31011 409.77424" />
    <path d="M -2278.69576 169.41457 L -2183.457 262.081 L -2135.10556 255.11531" />
    <path d="M -2278.69576 169.41457 L -2288.02867 170.75911" />
    <path d="M 80.79683 -56.09281 L -854.11735 78.59446" />
    <path d="M -1118.6406 116.70267 L -1134.75364 119.02398" />
    <path d="M -1294.761 142.07524 L -1304.20281 143.43547" />
    <path d="M -1457.53894 165.52565 L -1473.65198 167.84695" />
    <path d="M -1626.98811 189.93714 L -1643.10115 192.25844" />
    <path d="M -1796.43728 214.34862 L -1812.55032 216.66993" />
    <path d="M -1972.55768 239.72119 L -1981.99949 241.08141" />
    <path d="M -2135.33562 263.1716 L -2176.27459 269.06942" />
    <path d="M 84.81692 -52.1813 L 80.79683 -56.09281 L 80.79683 -37.97383" />
    <path d="M 87.13001 -60.35605 L -340.67123 -476.60268 L -350.00415 -475.25814" />
    <path d="M 73.61442 -63.08123 L -350.00415 -475.25814" />
    <path d="M -1981.76942 233.02513 L -1972.32761 231.6649" />
    <path d="M -1812.32025 208.61364 L -1796.20722 206.29234" />
    <path d="M -1642.87108 184.20215 L -1626.75805 181.88085" />
    <path d="M -1473.42191 159.79067 L -1457.30888 157.46936" />
    <path d="M -1303.97274 135.37918 L -1294.53093 134.01896" />
    <path d="M -1134.52357 110.96769 L -1118.41054 108.64639" />
    <path d="M -853.88728 70.53817 L 73.61442 -63.08123" />
    <path d="M -746.39445 433.98298 L -864.75314 451.03418" />
    <path d="M -1291.37208 23.40369 L -1300.81389 24.76391" />
    <path d="M -308.55471 859.99696 L -572.41578 898.00978" />
    <path d="M -1950.31595 488.92506 L -1959.64887 490.2696" />
    <path d="M -1819.65519 465.46523 L -1819.65519 474.73792 L -1946.16545 492.96347" />
    <path d="M -1772.99063 -1168.61405 L -1819.65519 465.46523" />
    <path d="M -1770.41488 -1209.66128 L -1772.99063 -1168.61405" />
    <path d="M -1487.27905 -1531.75967 A 350 302.89411 314.2157 0 0 -1770.41488 -1209.66128" />
    <path d="M 666.81921 -2146.00866 L -1487.27905 -1531.75967" />
    <path d="M 668.92192 -2146.31158 L 666.81921 -2146.00866" />
    <path d="M 676.15212 -2193.71663 L 668.92192 -2146.31158" />
    <path d="M 676.15212 -2286.4435 L 676.15212 -2193.71663" />
    <path d="M 666.81921 -2285.09897 L 676.15212 -2286.4435 L 656.75961 -2305.31223" />
    <path d="M -1504.82491 -1667.22549 L 666.81921 -2285.09897 L 647.4267 -2303.9677" />
    <path d="M -1909.30467 -1207.08493 A 500 432.70587 134.2157 0 1 -1504.82491 -1667.22549 L -1524.21742 -1686.09422" />
    <path d="M -1912.98431 -1148.44604 L -1909.30467 -1207.08493 L -1928.69718 -1225.95366" />
    <path d="M -2114.50586 329.16982 L -2123.83877 330.51435" />
    <path d="M -1983.84509 305.70999 L -1983.84509 314.98268 L -2110.35535 333.20822" />
    <path d="M -1937.18053 -1328.3693 L -1983.84509 305.70999" />
    <path d="M -1934.60478 -1369.41653 L -1937.18053 -1328.3693" />
    <path d="M -1651.46895 -1691.51491 A 350 302.89411 314.2157 0 0 -1934.60478 -1369.41653" />
    <path d="M 502.6293 -2305.7639 L -1651.46895 -1691.51491" />
    <path d="M 504.73202 -2306.06683 L 502.6293 -2305.7639" />
    <path d="M 511.96222 -2353.47187 L 504.73202 -2306.06683" />
    <path d="M 511.96222 -2446.19875 L 511.96222 -2353.47187" />
    <path d="M 502.6293 -2444.85421 L 511.96222 -2446.19875 L 499.03388 -2458.7779" />
    <path d="M -1669.01482 -1826.98073 L 502.6293 -2444.85421 L 489.70097 -2457.43336" />
    <path d="M -2073.49457 -1366.84018 A 500 432.70587 134.2157 0 1 -1669.01482 -1826.98073 L -1681.94315 -1839.55988" />
    <path d="M -2077.17421 -1308.20128 L -2073.49457 -1366.84018 L -2086.42291 -1379.41933" />
    <path d="M -1621.93615 808.43555 L -1479.84665 946.68731" />
    <path d="M -1457.74625 968.19079 L -1322.12092 1100.15297" />
    <path d="M 673.49137 827.46077 L 1229.65341 -1138.08228" />
    <path d="M 1027.52409 837.03221 L 1027.52409 832.49914 L 651.04484 886.73616" />
    <path d="M 1027.52409 832.49914 L 977.35495 783.68504 L 651.04484 830.6945" />
    <path d="M 2275.73724 2069.13836 L 2275.73724 2440.04585" />
    <path d="M 2275.73724 2069.13836 L 2274.74966 2068.17745 L -0.98758 2396.02875" />
    <path d="M 2274.74966 2068.17745 L 2274.74966 2046.03799 L -0.98758 2373.88928" />
    <path d="M 2274.74966 2046.03799 L 2224.58053 1997.22388 L -51.15672 2325.07518" />
    <path d="M 2220.52246 1997.8085 L 2220.52246 1993.27543 L -55.21478 2321.12672" />
    <path d="M 2220.52246 1993.27543 L 2170.35333 1944.46133 L -105.38392 2272.31262" />
    <path d="M 2166.29527 1945.04594 L 2166.29527 1940.51287 L -109.44198 2268.36417" />
    <path d="M 2166.29527 1940.51287 L 2116.12613 1891.69877 L -159.61112 2219.55006" />
    <path d="M 2112.06807 1892.28339 L 2112.06807 1887.75031 L -163.66918 2215.60161" />
    <path d="M 2112.06807 1887.75031 L 2061.89893 1838.93621 L -213.83832 2166.78751" />
    <path d="M 2057.84087 1839.52083 L 2057.84087 1834.98775 L -217.89638 2162.83905" />
    <path d="M 2057.84087 1834.98775 L 2007.67173 1786.17365 L -268.06551 2114.02495" />
    <path d="M 2003.61367 1786.75827 L 2003.61367 1782.22519 L -272.12358 2110.07649" />
    <path d="M 2003.61367 1782.22519 L 1953.44453 1733.41109 L -322.29271 2061.26239" />
    <path d="M 1949.38647 1733.99571 L 1949.38647 1729.46263 L -326.35077 2057.31393" />
    <path d="M 1949.38647 1729.46263 L 1899.21733 1680.64853 L -376.51991 2008.49983" />
    <path d="M 1895.15927 1681.23315 L 1895.15927 1676.70008 L -380.57797 2004.55137" />
    <path d="M 1895.15927 1676.70008 L 1844.99013 1627.88597 L -430.74711 1955.73727" />
    <path d="M 1840.93207 1628.47059 L 1840.93207 1623.93752 L -434.80517 1951.78881" />
    <path d="M 1840.93207 1623.93752 L 1790.76293 1575.12342 L -484.97431 1902.97471" />
    <path d="M 1786.70487 1575.70803 L 1786.70487 1571.17496 L -489.03237 1899.02626" />
    <path d="M 1786.70487 1571.17496 L 1736.53574 1522.36086 L -539.20151 1850.21215" />
    <path d="M 1732.47767 1522.94548 L 1732.47767 1518.4124 L -543.25957 1846.2637" />
    <path d="M 1732.47767 1518.4124 L 1682.30854 1469.5983 L 598.25413 1625.77127" />
    <path d="M 1678.25048 1470.18292 L 1678.25048 1465.64984 L 598.25413 1621.23819" />
    <path d="M 1678.25048 1465.64984 L 1628.08134 1416.83574 L 598.25413 1565.19653" />
    <path d="M 1624.02328 1417.42036 L 1624.02328 1412.88728 L 598.25413 1560.66346" />
    <path d="M 1624.02328 1412.88728 L 1573.85414 1364.07318 L 598.25413 1504.6218" />
    <path d="M 1569.79608 1364.6578 L 1569.79608 1360.12472 L 598.25413 1500.08873" />
    <path d="M 1569.79608 1360.12472 L 1519.62694 1311.31062 L 598.25413 1444.04707" />
    <path d="M 1515.56888 1311.89524 L 1515.56888 1307.36217 L 598.25413 1439.51399" />
    <path d="M 1515.56888 1307.36217 L 1465.39974 1258.54806 L 598.25413 1383.47233" />
    <path d="M 1461.34168 1259.13268 L 1461.34168 1254.59961 L 598.25413 1378.93926" />
    <path d="M 1461.34168 1254.59961 L 1411.17254 1205.78551 L 598.25413 1322.8976" />
    <path d="M 1407.11448 1206.37012 L 1407.11448 1201.83705 L 598.25413 1318.36452" />
    <path d="M 1407.11448 1201.83705 L 1356.94534 1153.02295 L 598.25413 1262.32287" />
    <path d="M 1352.88728 1153.60757 L 1352.88728 1149.07449 L 598.25413 1257.78979" />
    <path d="M 1352.88728 1149.07449 L 1302.71814 1100.26039 L 598.25413 1201.74813" />
    <path d="M 1298.66008 1100.84501 L 1298.66008 1096.31193 L 598.25413 1197.21506" />
    <path d="M 1298.66008 1096.31193 L 1248.49095 1047.49783 L 598.25413 1141.1734" />
    <path d="M 1244.43288 1048.08245 L 1244.43288 1043.54937 L 598.25413 1136.64032" />
    <path d="M 1244.43288 1043.54937 L 1194.26375 994.73527 L 598.25413 1080.59867" />
    <path d="M 1190.20569 995.31989 L 1190.20569 990.78681 L 598.25413 1076.06559" />
    <path d="M 1190.20569 990.78681 L 1140.03655 941.97271 L 651.04484 1012.4187" />
    <path d="M 1135.97849 942.55733 L 1135.97849 938.02426 L 651.04484 1007.88563" />
    <path d="M 1135.97849 938.02426 L 1085.80935 889.21015 L 651.04484 951.84397" />
    <path d="M 1081.75129 889.79477 L 1081.75129 885.2617 L 651.04484 947.31089" />
    <path d="M 1081.75129 885.2617 L 1031.58215 836.4476 L 651.04484 891.26924" />
    <path d="M 36.10102 207.39068 L 345.46936 -885.95397" />
    <path d="M 435.20983 -1203.10751 L 450.77125 -1258.10342" />
    <path d="M 501.24844 -1436.49584 L 514.3529 -1482.80855" />
    <path d="M 562.28412 -1652.20323 L 577.93454 -1707.51368" />
    <path d="M 625.82127 -1876.75109 L 630.13257 -1891.98773 L 627.89884 -1877.3422" />
    <path d="M 186.31011 185.75099 L 36.10102 207.39068" />
    <path d="M 603.09075 -1714.68707 L 594.97955 -1661.5057" />
    <path d="M 570.15151 -1498.71973 L 563.35631 -1454.16669" />
    <path d="M 537.21228 -1282.75239 L 529.14099 -1229.83269" />
    <path d="M 482.65936 -925.0742 L 357.0197 -101.3131" />
    <path d="M -2442.88566 9.65933 L -2300.79616 147.91109" />
    <path d="M -2607.07557 -150.09591 L -2464.98607 -11.84416" />
    <path d="M -2256.08678 167.76687 L -2256.08678 170.79378 L -2274.54525 173.45298" />
    <path d="M -2148.03499 152.20053 L -2256.08678 167.76687 A 295.275 98.32694 261.80216 0 1 -2223.74484 222.88131" />
    <path d="M -2148.03499 145.95475 L -2148.03499 152.20053" />
    <path d="M -2101.37043 -1488.12454 L -2148.03499 145.95475" />
    <path d="M -2098.79469 -1529.17177 L -2101.37043 -1488.12454" />
    <path d="M -1815.65886 -1851.27016 A 350 302.89411 314.2157 0 0 -2098.79469 -1529.17177" />
    <path d="M 338.4394 -2465.51915 L -1815.65886 -1851.27016" />
    <path d="M 340.54212 -2465.82207 L 338.4394 -2465.51915" />
    <path d="M 347.77231 -2513.22712 L 340.54212 -2465.82207" />
    <path d="M 347.77231 -2605.95399 L 347.77231 -2513.22712" />
    <path d="M 338.4394 -2604.60946 L 347.77231 -2605.95399 L 334.84398 -2618.53314" />
    <path d="M -1833.20472 -1986.73597 L 338.4394 -2604.60946 L 325.51106 -2617.18861" />
    <path d="M -2237.68447 -1526.59542 A 500 432.70587 134.2157 0 1 -1833.20472 -1986.73597 L -1846.13306 -1999.31513" />
    <path d="M -2241.36411 -1467.95652 L -2237.68447 -1526.59542 L -2250.61281 -1539.17457" />
    <path d="M 16.70851 188.52195 L 318.56721 -878.28272" />
    <path d="M 408.31294 -1195.45484 L 423.8691 -1250.43217" />
    <path d="M 474.35155 -1428.84317 L 487.45074 -1475.1373" />
    <path d="M 535.38723 -1644.55056 L 551.03239 -1699.84244" />
    <path d="M 598.92438 -1869.09842 L 610.74006 -1910.85646 L 630.13257 -1891.98773" />
    <path d="M -620.65859 -431.6303 L -565.60686 -626.18967" />
    <path d="M -475.69836 -943.93705 L -460.31495 -998.30386" />
    <path d="M -409.65976 -1177.32537 L -396.73331 -1223.00899" />
    <path d="M -348.62407 -1393.03277 L -333.15166 -1447.71412" />
    <path d="M -285.08693 -1617.58063 L -269.57001 -1672.41926" />
    <path d="M -221.54978 -1842.12849 L -205.98836 -1897.12439" />
    <path d="M -155.51117 -2075.51681 L -142.40671 -2121.82952" />
    <path d="M -94.47549 -2291.22421 L -78.82507 -2346.53466" />
    <path d="M -30.93834 -2515.77207 L -26.62704 -2531.0087 L -28.86077 -2516.36317" />
    <path d="M -350.00415 -470.6218 L -620.65859 -431.6303" />
    <path d="M -350.00415 -470.6218 L -350.00415 -475.25814" />
    <path d="M -53.66886 -2353.70804 L -61.78006 -2300.52667" />
    <path d="M -86.6081 -2137.7407 L -93.40331 -2093.18767" />
    <path d="M -119.54734 -1921.77337 L -127.61862 -1868.85366" />
    <path d="M -152.48657 -1705.80603 L -160.53791 -1653.01716" />
    <path d="M -185.42581 -1489.83869 L -193.45719 -1437.18066" />
    <path d="M -218.36505 -1273.87135 L -225.08044 -1229.84165" />
    <path d="M -251.30429 -1057.90401 L -259.29576 -1005.50765" />
    <path d="M -305.8572 -700.22582 L -340.05548 -476.00355" />
    <path d="M -357.04291 -469.60777 L -357.04291 -386.69922" />
    <path d="M -629.92093 -446.80653 L -806.84305 -421.31846" />
    <path d="M -1103.94229 -378.51722 L -1120.61389 -376.11545" />
    <path d="M -1612.84837 -305.20229 L -1628.9614 -302.88098" />
    <path d="M -1782.29754 -280.7908 L -1798.41057 -278.4695" />
    <path d="M -1958.41793 -255.41823 L -1967.85974 -254.05801" />
    <path d="M -2121.19588 -231.96783 L -2137.30891 -229.64652" />
    <path d="M -2290.64505 -207.55634 L -2306.75808 -205.23504" />
    <path d="M -2460.09422 -183.14485 L -2476.20725 -180.82355" />
    <path d="M 0 2396.98966 L 2275.73724 2069.13836" />
    <path d="M -626.32972 -443.31232 L -808.92802 -417.00652" />
    <path d="M -1104.19631 -374.46905 L -1120.72892 -372.0873" />
    <path d="M -1612.9634 -301.17415 L -1629.07643 -298.85284" />
    <path d="M -1782.41257 -276.76266 L -1798.5256 -274.44135" />
    <path d="M -1958.53296 -251.39009 L -1967.97477 -250.02987" />
    <path d="M -2121.31091 -227.93968 L -2137.42394 -225.61838" />
    <path d="M -2290.76008 -203.5282 L -2306.87311 -201.20689" />
    <path d="M -2460.20925 -179.11671 L -2476.32228 -176.79541" />
    <path d="M -626.32972 -443.31232 L -627.69735 -438.47895 L -620.65859 -431.6303" />
    <path d="M -1248.21316 1182.4899 L -1244.15509 1181.90528" />
    <path d="M 239.10083 946.08237 L -883.50875 1107.80974" />
    <path d="M -1148.032 1145.91796 L -1248.21316 1160.35044" />
    <path d="M 239.10083 890.04071 L -881.90175 1051.53657" />
    <path d="M -1146.425 1089.64479 L -1298.38229 1111.53633" />
    <path d="M -1298.38229 1128.64128 L -1302.88926 1129.29057" />
    <path d="M -1457.74625 968.19079 L -1467.07916 969.53533" />
    <path d="M -1621.93615 808.43555 L -1631.26906 809.78008" />
    <path d="M -2442.88566 9.65933 L -2452.21858 11.00386" />
    <path d="M -2607.07557 -150.09591 L -2616.40848 -148.75138" />
    <path d="M -430.74711 1973.34366 L -434.80517 1973.92828" />
    <path d="M 336.17309 1663.52765 L -593.42871 1797.4496" />
    <path d="M 332.11503 1659.57919 L -597.48677 1793.50114" />
    <path d="M 281.94589 1610.76509 L -647.65591 1744.68704" />
    <path d="M 277.88783 1606.81664 L -651.71397 1740.73858" />
    <path d="M 239.10083 1556.36278 L -701.88311 1691.92448" />
    <path d="M 239.10083 1551.8297 L -705.94117 1687.97602" />
    <path d="M 239.10083 1495.78805 L -756.1103 1639.16192" />
    <path d="M 239.10083 1491.25497 L -760.16837 1635.21346" />
    <path d="M 239.10083 1435.21331 L -810.3375 1586.39936" />
    <path d="M 239.10083 1430.68024 L -814.39556 1582.4509" />
    <path d="M 239.10083 1374.63858 L -864.5647 1533.6368" />
    <path d="M 239.10083 1370.1055 L -868.62276 1529.68835" />
    <path d="M 239.10083 1314.06385 L -918.7919 1480.87424" />
    <path d="M 239.10083 1309.53077 L -922.84996 1476.92579" />
    <path d="M 239.10083 1253.48911 L -973.0191 1428.11169" />
    <path d="M 239.10083 1248.95604 L -977.07716 1424.16323" />
    <path d="M 239.10083 1192.91438 L -1027.2463 1375.34913" />
    <path d="M -1027.2463 1393.33662 L -1030.9632 1393.87209" />
    <path d="M -1030.80246 1371.32836 L -1031.30436 1388.90379" />
    <path d="M -1030.80246 1371.32836 L -1031.30436 1371.40067" />
    <path d="M 239.10083 1188.3813 L -890.45669 1351.10962" />
    <path d="M -1030.80246 1371.32836 L -1043.38963 1359.08116 L -997.22697 -257.4227" />
    <path d="M 239.10083 1132.33965 L -888.84969 1294.83645" />
    <path d="M -1042.18582 1316.92664 L -1081.4735 1322.58657" />
    <path d="M -1085.53156 1340.77758 L -1081.4735 1340.19296" />
    <path d="M 239.10083 1127.80657 L -888.7197 1290.28465" />
    <path d="M -1042.05583 1312.37483 L -1085.53156 1318.63811" />
    <path d="M 239.10083 1071.76491 L -887.1127 1234.01148" />
    <path d="M -1040.44884 1256.10167 L -1135.7007 1269.82401" />
    <path d="M -1135.7007 1288.61382 L -1138.69935 1289.04581" />
    <path d="M -1139.25685 1265.80325 L -1139.75876 1283.37868" />
    <path d="M -1139.25685 1265.80325 L -1139.75876 1265.87555" />
    <path d="M 239.10083 1067.23184 L -886.98272 1229.45968" />
    <path d="M -1139.25685 1265.80325 L -1151.12579 1254.25489 L -1104.96313 -362.24897" />
    <path d="M 239.10083 1011.19018 L -885.37572 1173.18651" />
    <path d="M -1149.89897 1211.29473 L -1189.9279 1217.06145" />
    <path d="M -1193.98596 1235.25246 L -1189.9279 1234.66784" />
    <path d="M 239.10083 1006.6571 L -885.24573 1168.63471" />
    <path d="M -1149.76898 1206.74293 L -1193.98596 1213.11299" />
    <path d="M 239.10083 950.61545 L -883.63873 1112.36154" />
    <path d="M -1148.16199 1150.46976 L -1244.15509 1164.29889" />
    <path d="M -1515.55454 1293.27672 A 295.275 98.32694 261.80216 0 1 -1566.1296 1362.31481 A 295.275 98.32694 261.80216 0 1 -1700.91217 1112.92547" />
    <path d="M -1652.92905 778.27975 A 295.275 98.32694 261.80216 0 1 -1650.33712 777.79929 A 295.275 98.32694 261.80216 0 1 -1643.7676 777.51409" />
    <path d="M -1599.32717 805.89085 L -1599.32717 809.81476 L -1617.78564 812.47395" />
    <path d="M -796.31669 679.28999 A 295.275 98.32694 81.80216 0 0 -838.42044 660.83151 L -870.87788 665.50745" />
    <path d="M -708.96111 882.87541 A 295.275 98.32694 81.80216 0 0 -796.31669 679.28999" />
    <path d="M 1004.53193 -1966.93302 L 991.60359 -1979.51217" />
    <path d="M 995.19901 -1965.58848 L 982.27067 -1978.16763" />
    <path d="M -1176.44511 -1347.715 L -1189.37345 -1360.29415" />
    <path d="M -1580.92486 -887.57445 L -1593.8532 -900.1536" />
    <path d="M -1584.6045 -828.93555 L -1597.53284 -841.5147" />
    <path d="M -1327.08548 954.00365 L -1453.59574 972.2292" />
    <path d="M -1327.08548 944.73096 L -1327.08548 954.00365" />
    <path d="M -1280.42092 -689.34832 L -1327.08548 944.73096" />
    <path d="M -1277.84517 -730.39555 L -1280.42092 -689.34832" />
    <path d="M -994.70934 -1052.49394 A 350 302.89411 314.2157 0 0 -1277.84517 -730.39555" />
    <path d="M 1159.38892 -1666.74293 L -994.70934 -1052.49394" />
    <path d="M 1161.49163 -1667.04585 L 1159.38892 -1666.74293" />
    <path d="M 1168.72183 -1714.4509 L 1161.49163 -1667.04585" />
    <path d="M 1168.72183 -1807.17777 L 1168.72183 -1714.4509" />
    <path d="M 1159.38892 -1805.83324 L 1168.72183 -1807.17777 L 1155.79349 -1819.75692" />
    <path d="M -1012.2552 -1187.95976 L 1159.38892 -1805.83324 L 1146.46058 -1818.41239" />
    <path d="M -1416.73496 -727.8192 A 500 432.70587 134.2157 0 1 -1012.2552 -1187.95976 L -1025.18354 -1200.53891" />
    <path d="M -1420.4146 -669.18031 L -1416.73496 -727.8192 L -1429.6633 -740.39836" />
    <path d="M 699.27389 823.74644 L 1256.55556 -1145.75353" />
    <path d="M 1271.17593 -1149.92258 L 976.23846 783.84588" />
    <path d="M -46.01955 -2549.87743 L -26.62704 -2531.0087" />
    <path d="M 16.70851 188.52195 L 36.10102 207.39068" />
    <path d="M -2476.4148 -164.28305 L -2602.92506 -146.05751" />
    <path d="M -2312.2249 -13.8005 L -2312.2249 -4.52781 L -2438.73516 13.69774" />
    <path d="M -2265.56034 -1647.87979 L -2312.2249 -13.8005" />
    <path d="M -2262.98459 -1688.92701 L -2265.56034 -1647.87979" />
    <path d="M -1979.84876 -2011.0254 A 350 302.89411 314.2157 0 0 -2262.98459 -1688.92701" />
    <path d="M 174.2495 -2625.27439 L -1979.84876 -2011.0254" />
    <path d="M 176.35222 -2625.57731 L 174.2495 -2625.27439" />
    <path d="M 183.58241 -2672.98236 L 176.35222 -2625.57731" />
    <path d="M 183.58241 -2765.70923 L 183.58241 -2672.98236" />
    <path d="M 174.2495 -2764.3647 L 183.58241 -2765.70923 L 170.65407 -2778.28839" />
    <path d="M -1997.39462 -2146.49122 L 174.2495 -2764.3647 L 161.32116 -2776.94385" />
    <path d="M -2401.87438 -1686.35066 A 500 432.70587 134.2157 0 1 -1997.39462 -2146.49122 L -2010.32296 -2159.07037" />
    <path d="M -2405.55402 -1627.71177 L -2401.87438 -1686.35066 L -2414.80271 -1698.92982" />
    <path d="M -2476.4148 -173.55574 L -2476.4148 -164.28305" />
    <path d="M -2429.75024 -1807.63503 L -2476.4148 -173.55574" />
    <path d="M -2427.17449 -1848.68226 L -2429.75024 -1807.63503" />
    <path d="M -2144.03866 -2170.78064 A 350 302.89411 314.2157 0 0 -2427.17449 -1848.68226" />
    <path d="M 10.0596 -2785.02963 L -2144.03866 -2170.78064" />
    <path d="M 12.16231 -2785.33256 L 10.0596 -2785.02963" />
    <path d="M 19.39251 -2832.7376 L 12.16231 -2785.33256" />
    <path d="M 19.39251 -2925.46448 L 19.39251 -2832.7376" />
    <path d="M 10.0596 -2924.11994 L 19.39251 -2925.46448 L 0 -2944.33321" />
    <path d="M -2161.58452 -2306.24646 L 10.0596 -2924.11994 L -9.33291 -2942.98867" />
    <path d="M -2566.06428 -1846.10591 A 500 432.70587 134.2157 0 1 -2161.58452 -2306.24646 L -2180.97703 -2325.11519" />
    <path d="M -2569.74392 -1787.46701 L -2566.06428 -1846.10591 L -2585.45679 -1864.97464" />
    <path d="M -2175.76171 650.9013 A 295.275 98.32694 261.80216 0 1 -2226.33677 719.9394 A 295.275 98.32694 261.80216 0 1 -2361.11934 470.55006" />
    <path d="M -2313.13622 135.90433 A 295.275 98.32694 261.80216 0 1 -2310.54428 135.42387 A 295.275 98.32694 261.80216 0 1 -2300.44206 135.51116" />
    <path d="M -1456.52385 36.91458 A 295.275 98.32694 81.80216 0 0 -1469.6091 26.2754" />
    <path d="M -1453.94029 39.50964 A 295.275 98.32694 81.80216 0 0 -1456.52385 36.91458" />
    <path d="M -640.0511 -450.49903 L -635.43907 -446.01156" />
    <path d="M -626.32972 -443.31232 L -629.92093 -446.80653" />
    <path d="M -640.0511 -450.49903 L -592.92885 -617.0347" />
    <path d="M -502.59526 -936.28438 L -487.2171 -990.63261" />
    <path d="M -436.55665 -1169.6727 L -423.63546 -1215.33774" />
    <path d="M -375.52097 -1385.3801 L -360.05381 -1440.04288" />
    <path d="M -311.98382 -1609.92796 L -296.47216 -1664.74801" />
    <path d="M -248.44667 -1834.47582 L -232.89051 -1889.45314" />
    <path d="M -182.40807 -2067.86414 L -169.30887 -2114.15828" />
    <path d="M -121.37238 -2283.57154 L -105.72722 -2338.86341" />
    <path d="M -57.83524 -2508.1194 L -46.01955 -2549.87743" />
    <path d="M -844.30496 -265.01156 L -890.58667 1355.66142" />
    <path d="M -841.72921 -306.05879 L -844.30496 -265.01156" />
    <path d="M -558.59338 -628.15718 A 350 302.89411 314.2157 0 0 -841.72921 -306.05879" />
    <path d="M 1595.50488 -1242.40617 L -558.59338 -628.15718" />
    <path d="M 1597.6076 -1242.70909 L 1595.50488 -1242.40617" />
    <path d="M 1604.83779 -1290.11414 L 1597.6076 -1242.70909" />
    <path d="M 1604.83779 -1382.84101 L 1604.83779 -1290.11414" />
    <path d="M 1595.50488 -1381.49647 L 1604.83779 -1382.84101 L 1591.90945 -1395.42016" />
    <path d="M -576.13924 -763.62299 L 1595.50488 -1381.49647 L 1582.57654 -1394.07563" />
    <path d="M -980.619 -303.48244 A 500 432.70587 134.2157 0 1 -576.13924 -763.62299 L -589.06758 -776.20215" />
    <path d="M -984.29864 -244.84354 L -980.619 -303.48244 L -993.54734 -316.06159" />
    <path d="M -780.61561 -680.09239 A 350 302.89411 314.2157 0 0 -892.73557 -564.86008" />
    <path d="M 1497.10163 -1394.94041 L 1493.08634 -1368.61399" />
    <path d="M 1497.10163 -1487.66728 L 1497.10163 -1394.94041" />
    <path d="M 1487.76872 -1486.32275 L 1497.10163 -1487.66728 L 1484.1733 -1500.24644" />
    <path d="M -683.8754 -868.44927 L 1487.76872 -1486.32275 L 1474.84038 -1498.9019" />
    <path d="M -1088.35515 -408.30872 A 500 432.70587 134.2157 0 1 -683.8754 -868.44927 L -696.80374 -881.02842" />
    <path d="M -1092.03479 -349.66982 L -1088.35515 -408.30872 L -1101.28349 -420.88787" />
    <path d="M -1116.23102 -529.59308 L -1162.53804 1091.9661" />
    <path d="M -1113.65527 -570.64031 L -1116.23102 -529.59308" />
    <path d="M -830.51944 -892.7387 A 350 302.89411 314.2157 0 0 -1113.65527 -570.64031" />
    <path d="M 1323.57882 -1506.98768 L -830.51944 -892.7387" />
    <path d="M 1325.68154 -1507.29061 L 1323.57882 -1506.98768" />
    <path d="M 1332.91173 -1554.69566 L 1325.68154 -1507.29061" />
    <path d="M 1332.91173 -1647.42253 L 1332.91173 -1554.69566" />
    <path d="M 1323.57882 -1646.07799 L 1332.91173 -1647.42253 L 1313.51922 -1666.29126" />
    <path d="M -848.0653 -1028.20451 L 1323.57882 -1646.07799 L 1304.18631 -1664.94672" />
    <path d="M -1252.54506 -568.06396 A 500 432.70587 134.2157 0 1 -848.0653 -1028.20451 L -867.45781 -1047.07324" />
    <path d="M -1256.2247 -509.42506 L -1252.54506 -568.06396 L -1271.93756 -586.93269" />
    <path d="M 17.19867 2765.41944 A 295.275 98.32694 261.80216 0 1 -37.13807 2850.00931 A 295.275 98.32694 261.80216 0 1 -171.92064 2600.61997" />
    <path d="M 774.77861 2733.04153 A 295.275 98.32694 81.80216 0 0 829.11535 2648.45166" />
    <path d="M 1417.13546 2563.73927 A 295.275 98.32694 261.80216 0 1 1362.79872 2648.32913 A 295.275 98.32694 261.80216 0 1 1286.79446 2582.51668" />
    <path d="M 2174.7154 2531.36135 A 295.275 98.32694 81.80216 0 0 2229.05213 2446.77149" />
    <path d="M -202.03532 2571.31867 A 295.275 98.32694 261.80216 0 1 -252.61038 2640.35676 A 295.275 98.32694 261.80216 0 1 -387.39295 2390.96742" />
    <path d="M -639.87506 2145.30468 A 295.275 98.32694 261.80216 0 1 -690.45012 2214.34278 A 295.275 98.32694 261.80216 0 1 -825.23269 1964.95344" />
    <path d="M -1619.14038 -84.87141 A 295.275 98.32694 81.80216 0 0 -1634.23945 -118.05672" />
    <path d="M -2483.91284 -55.77019 A 295.275 98.32694 261.80216 0 1 -2464.40707 -32.11912" />
    <path d="M -2391.23403 441.24875 A 295.275 98.32694 261.80216 0 1 -2441.80908 510.28684 A 295.275 98.32694 261.80216 0 1 -2576.59166 260.89751" />
    <path d="M -2528.60853 -73.74822 A 295.275 98.32694 261.80216 0 1 -2526.0166 -74.22868 A 295.275 98.32694 261.80216 0 1 -2483.91284 -55.77019" />
    <path d="M -56.58707 -164.7656 A 295.275 98.32694 81.80216 0 0 -98.69082 -183.22409 L -849.73038 -75.02649" />
    <path d="M 5.24711 -53.23197 A 295.275 98.32694 81.80216 0 0 -56.58707 -164.7656" />
    <path d="M -851.09765 -27.14799 A 295.275 98.32694 261.80216 0 1 -806.66956 63.73581" />
    <path d="M -772.97852 437.81278 A 295.275 98.32694 261.80216 0 1 -826.39998 518.25922 A 295.275 98.32694 261.80216 0 1 -866.20774 501.97053" />
    <path d="M -272.05938 -374.41815 A 295.275 98.32694 81.80216 0 0 -314.16314 -392.87664 L -840.16756 -317.09845" />
    <path d="M -184.7038 -170.83273 A 295.275 98.32694 81.80216 0 0 -272.05938 -374.41815" />
    <path d="M -1123.46779 -276.17892 A 295.275 98.32694 261.80216 0 1 -1107.4971 -273.51549" />
    <path d="M -1830.60079 579.89634 A 295.275 98.32694 261.80216 0 1 -1807.69722 608.64425" />
    <path d="M -1737.92197 1076.91529 A 295.275 98.32694 261.80216 0 1 -1788.49703 1145.95338 A 295.275 98.32694 261.80216 0 1 -1923.2796 896.56404" />
    <path d="M -1875.29648 561.91831 A 295.275 98.32694 261.80216 0 1 -1872.70454 561.43785 A 295.275 98.32694 261.80216 0 1 -1830.60079 579.89634" />
    <path d="M -2046.0731 370.24379 A 295.275 98.32694 261.80216 0 1 -2001.37741 439.24274" />
    <path d="M -1953.39429 867.26274 A 295.275 98.32694 261.80216 0 1 -2003.96934 936.30083 A 295.275 98.32694 261.80216 0 1 -2138.75191 686.91149" />
    <path d="M -2090.76879 352.26576 A 295.275 98.32694 261.80216 0 1 -2088.17686 351.7853 A 295.275 98.32694 261.80216 0 1 -2046.0731 370.24379" />
    <path d="M -430.664 378.21616 A 295.275 98.32694 261.80216 0 1 -368.82982 489.74979" />
    <path d="M -335.13877 863.82676 A 295.275 98.32694 261.80216 0 1 -388.56024 944.2732 A 295.275 98.32694 261.80216 0 1 -462.51689 882.17734" />
    <path d="M -535.7863 513.80217 A 295.275 98.32694 261.80216 0 1 -472.76775 359.75768 A 295.275 98.32694 261.80216 0 1 -430.664 378.21616" />
    <path d="M -646.13631 168.56361 A 295.275 98.32694 261.80216 0 1 -540.75192 514.51754" />
    <path d="M -726.86824 541.33015 A 295.275 98.32694 261.80216 0 1 -688.24007 150.10513 A 295.275 98.32694 261.80216 0 1 -646.13631 168.56361" />
    <path d="M -580.84437 888.94255 A 295.275 98.32694 81.80216 0 0 -622.94813 870.48406 L -877.7798 907.19607" />
    <path d="M -519.42191 999.31636 A 295.275 98.32694 81.80216 0 0 -580.84437 888.94255" />
    <path d="M -1392.76105 1005.91033 A 295.275 98.32694 261.80216 0 1 -1348.06536 1074.90927" />
    <path d="M -1300.08223 1502.92927 A 295.275 98.32694 261.80216 0 1 -1350.65729 1571.96736 A 295.275 98.32694 261.80216 0 1 -1485.43986 1322.57802" />
    <path d="M -1437.45674 987.9323 A 295.275 98.32694 261.80216 0 1 -1434.8648 987.45184 A 295.275 98.32694 261.80216 0 1 -1392.76105 1005.91033" />
    <path d="M 7.17574 804.23015 A 295.275 98.32694 261.80216 0 1 68.59821 914.60396" />
    <path d="M -97.87897 938.58729 A 295.275 98.32694 261.80216 0 1 -34.92801 785.77166 A 295.275 98.32694 261.80216 0 1 7.17574 804.23015" />
    <path d="M 690.97568 681.19523 A 295.275 98.32694 81.80216 0 0 651.04484 552.66265" />
    <path d="M -208.29657 594.5776 A 295.275 98.32694 261.80216 0 1 -102.9634 939.31978" />
    <path d="M -289.3214 966.16721 A 295.275 98.32694 261.80216 0 1 -250.40033 576.11911 A 295.275 98.32694 261.80216 0 1 -208.29657 594.5776" />
    <path d="M -1289.96876 -25.73722 L -1299.41057 -24.377" />
    <path d="M -1467.05458 -63.17798 L -1451.44165 -47.98675" />
    <path d="M -1424.04337 -775.19796 L -1446.10826 -796.66689" />
    <path d="M -1446.09538 -797.11799 L -1423.96621 -775.58651" />
    <path d="M -1188.37047 -1373.49368 L -1396.34341 -1343.53231" />
    <path d="M -1188.37047 -1361.42278 L -1188.37047 -1373.49368 L -1217.72026 -1402.05075" />
    <path d="M -1401.72084 -854.08238 L -1401.72084 -1016.04267" />
    <path d="M -1401.72084 -1247.28151 L -1401.72084 -1340.71023" />
    <path d="M -1462.13214 -1516.98221 L -1561.82349 -1502.6203" />
    <path d="M -1510.5844 -1448.68085 L -1564.55063 -1501.18948" />
    <path d="M -1565.4798 -1500.69562 L -1565.4798 -1407.40363" />
    <path d="M -1565.4798 -1176.60857 L -1565.4798 -1014.99863" />
    <path d="M -1253.63321 -672.08964 L -1281.02647 -668.14327" />
    <path d="M -1326.68794 -1301.38053 L -1357.90814 -1296.88283 L -1393.82019 -1331.82492 L -1393.82019 -1253.89292" />
    <path d="M -1144.55777 -869.33537 L -1144.55777 -972.35391" />
    <path d="M -1144.55777 -1151.99966 L -1144.55777 -1216.33871" />
    <path d="M -1357.90814 -945.37132 L -1357.90814 -1081.80753" />
    <path d="M -1357.90814 -1281.10549 L -1357.90814 -1296.88283" />
    <path d="M -1182.36669 -1362.28771 L -1393.82019 -1331.82492" />
    <path d="M -1393.82019 -1030.22617 L -1393.82019 -874.18774" />
    <path d="M -1380.41461 -1512.01841 L -1447.14959 -1502.40432 L -1447.14959 -1543.20273" />
    <path d="M -1479.57704 -1533.95593 L -1447.14959 -1502.40432" />
    <path d="M -1234.20508 -1768.60817 L -1447.14959 -1737.93058 L -1456.56564 -1747.09231" />
    <path d="M -1233.79922 -1554.12454 L -1233.79922 -1604.04037" />
    <path d="M -1447.14959 -1708.02146 L -1447.14959 -1737.93058" />
    <path d="M -1233.84455 -1768.71074 L -1267.14065 -1801.10753" />
    <path d="M -1520.05105 -1728.98921 L -1520.05105 -1687.27963" />
    <path d="M -1609.2925 -901.66205 L -1594.65241 -887.41737" />
    <path d="M -1467.12744 -1521.84259 L -1545.7018 -1510.52287" />
    <path d="M -1573.38045 -992.21988 L -1573.38045 -1160.9448" />
    <path d="M -1573.38045 -1400.55975 L -1573.38045 -1496.36373" />
    <path d="M -1609.2925 -1473.47358 L -1609.2925 -1366.00598" />
    <path d="M -1609.2925 -991.63797 L -1609.2925 -901.66205" />
    <path d="M 598.25413 1680.20608 L 384.90376 1710.94214 L 384.90376 957.07266 L 320.98031 894.87574 L 320.98031 1648.74521 L 384.90376 1710.94214" />
    <path d="M 385.31881 957.01287 L 384.90376 957.07266" />
    <path d="M 598.25413 1680.20608 L 598.25413 1039.08829" />
    <path d="M 321.39536 894.81594 L 320.98031 894.87574" />
    <path d="M 320.98031 1628.68735 L 303.02428 1631.27417 L 303.02428 877.40469 L 239.10083 815.20777 L 239.10083 1569.07724 L 303.02428 1631.27417" />
    <path d="M 303.43933 877.3449 L 303.02428 877.40469" />
    <path d="M 239.51588 815.14798 L 239.10083 815.20777" />
    <path d="M 401.78242 964.20635 L 393.88177 965.34455 L 393.88177 376.52891 L 230.12281 217.19297 L 230.12281 806.00861 L 393.88177 965.34455" />
    <path d="M 607.23214 345.79285 L 393.88177 376.52891" />
    <path d="M 607.23214 357.86375 L 607.23214 345.79285 L 458.45574 201.0348" />
    <path d="M 333.47047 202.30432 L 230.12281 217.19297" />
    <path d="M 651.04484 1031.48306 L 437.69448 1062.21912 L 437.69448 422.4037 L 401.78242 387.46161 L 401.78242 1027.27703 L 437.69448 1062.21912" />
    <path d="M 651.04484 391.66764 L 437.69448 422.4037" />
    <path d="M 651.04484 1031.48306 L 651.04484 391.66764 L 615.13279 356.72555 L 401.78242 387.46161" />
    <path d="M 561.80339 186.14615 L 348.45303 216.88221 L 348.45303 -18.64405 L 275.55156 -89.5765 L 275.55156 145.94976 L 348.45303 216.88221" />
    <path d="M 561.80339 -49.38011 L 348.45303 -18.64405" />
    <path d="M 561.80339 186.14615 L 561.80339 -49.38011 L 488.90193 -120.31256 L 275.55156 -89.5765" />
    <path d="M 239.10083 850.13497 L 222.22216 852.56657 L 222.22216 212.75115 L 186.31011 177.80906 L 186.31011 817.62448 L 222.22216 852.56657" />
    <path d="M 328.47517 197.44394 L 222.22216 212.75115" />
    <path d="M 292.56312 162.50185 L 186.31011 177.80906" />
    <path d="M -1135.40113 703.61567 L -1151.51417 705.93697" />
    <path d="M -1311.52153 728.98823 L -1320.96334 730.34846" />
    <path d="M -1474.29947 752.43864 L -1490.41251 754.75994" />
    <path d="M -1643.74864 776.85013 L -1650.33712 777.79929" />
    <path d="M -1480.11662 1349.92346 L -1566.1296 1362.31481" />
    <path d="M -1622.60114 36.31619 L -1638.71418 38.63749" />
    <path d="M -1792.05031 60.72767 L -1808.16335 63.04898" />
    <path d="M -1968.17071 86.10024 L -1977.61252 87.46046" />
    <path d="M -2130.94865 109.55065 L -2147.06169 111.87195" />
    <path d="M -2300.39782 133.96213 L -2310.54428 135.42387" />
    <path d="M -2134.97627 706.77766 L -2226.33677 719.9394" />
    <path d="M 774.77861 2733.04153 L -37.13807 2850.00931" />
    <path d="M 2174.7154 2531.36135 L 1362.79872 2648.32913" />
    <path d="M -584.59391 2199.09273 L -690.45012 2214.34278" />
    <path d="M -166.5974 2627.9654 L -252.61038 2640.35676" />
    <path d="M -1785.14839 -180.96095 L -1801.26142 -178.63965" />
    <path d="M -1961.26878 -155.58838 L -1970.71059 -154.22816" />
    <path d="M -2124.04673 -132.13798 L -2140.15976 -129.81667" />
    <path d="M -2293.4959 -107.72649 L -2309.60893 -105.40518" />
    <path d="M -2462.94507 -83.315 L -2526.0166 -74.22868" />
    <path d="M -2355.7961 497.89549 L -2441.80908 510.28684" />
    <path d="M -735.03948 505.09748 L -826.39998 518.25922" />
    <path d="M -1107.35171 -278.6069 L -1123.46474 -276.28559" />
    <path d="M -1128.27834 454.19301 L -1144.39138 456.51431" />
    <path d="M -1304.39874 479.56558 L -1313.84055 480.9258" />
    <path d="M -1467.17668 503.01598 L -1483.28972 505.33729" />
    <path d="M -1636.62585 527.42747 L -1652.73889 529.74877" />
    <path d="M -1806.07502 551.83895 L -1872.70454 561.43785" />
    <path d="M -1697.13653 1132.79164 L -1788.49703 1145.95338" />
    <path d="M -1297.49682 237.87695 L -1306.93863 239.23718" />
    <path d="M -1460.27476 261.32736 L -1476.3878 263.64866" />
    <path d="M -1629.72393 285.73884 L -1645.83697 288.06015" />
    <path d="M -1799.1731 310.15033 L -1815.28614 312.47164" />
    <path d="M -1975.2935 335.5229 L -2088.17686 351.7853" />
    <path d="M -1917.95636 923.90947 L -2003.96934 936.30083" />
    <path d="M 186.31011 264.80843 L -472.76775 359.75768" />
    <path d="M -297.19974 931.11146 L -388.56024 944.2732" />
    <path d="M 57.99821 42.59922 L -688.24007 150.10513" />
    <path d="M -1142.30306 945.30429 L -1158.41609 947.62559" />
    <path d="M -1318.42345 970.67686 L -1434.8648 987.45184" />
    <path d="M -1244.80108 1556.71732 L -1350.65729 1571.96736" />
    <path d="M 715.89382 677.60543 L 651.04484 686.94782" />
    <path d="M 186.31011 753.89926 L -34.92801 785.77166" />
    <path d="M 186.31011 513.20495 L -250.40033 576.11911" />
</svg>